<svg width="252" height="28" viewBox="0 0 252 28" fill="none" xmlns="http://www.w3.org/2000/svg">
<path fill-rule="evenodd" clip-rule="evenodd" d="M53.383 0.31923V1.28096H55.6688V26.6672H53.255V27.5643H61.45V26.6672H58.9729V13.6529H62.0857C62.0857 13.6529 65.6431 13.7822 65.771 17.5644C65.8977 21.3454 65.3764 27.6276 70.5999 27.6276C72.8238 27.6276 73.2696 26.6672 73.2696 26.6672L72.5072 26.3467C72.5072 26.3467 71.4903 27.4364 70.4733 26.8599C69.4563 26.2807 68.4421 24.6791 68.5054 21.6673C68.5687 18.6555 68.5687 16.1555 67.4884 14.6792C66.4082 13.2043 65.4545 13.4616 65.4545 13.4616V12.9484C65.4545 12.9484 69.3324 11.5368 69.3324 6.60149C69.3324 0.769119 62.343 0.320577 62.343 0.320577L53.383 0.31923ZM176.831 0.294988H182.519L189.788 21.0571L197.149 0.366369H202.399V1.27961H200.4V26.6551H203.652L212.731 0.365023H213.219L222.706 26.6497H224.516L224.525 1.27961H222.646V0.296334H227.986L240.945 20.2139V1.27827H238.996V0.294988L251.856 0.327308V1.2648H250.285V26.647H252V27.5886H244.616V26.6524H246.352V1.2648H241.64V27.7785H241.224L225.481 3.22598H225.131V26.639H227.43V27.6384H215.583V26.6551H218.556L215.722 19.1781H207.32L204.546 26.6686H206.495L206.503 27.5603H194.292V26.6551H196.657V4.76961L188.744 27.7772H188.136L180.013 4.83965V26.6538H181.892V27.567H176.97V27.0956C176.517 27.2249 173.976 27.893 172.396 26.9353C170.917 26.0409 170.257 24.7074 169.978 23.4413C169.699 22.1778 169.77 17.1402 169.42 16.5798C169.073 16.0168 168.217 13.7902 166.29 13.7902H162.759V26.5824H165.335V27.5657H147.711V26.6524H150.984L147.99 19.1067H139.676L136.98 26.6524H138.979V27.5657H133.709V26.6524H135.935L145.363 0.222251H145.642L155.14 26.6524H159.228V1.27827H156.791V0.294988H165.87C165.87 0.294988 172.949 0.767765 172.949 6.85875C172.949 12.9484 168.864 13.0885 168.864 13.0885C168.864 13.0885 172.463 13.8616 172.463 17.9147C172.463 21.9677 172.552 26.1621 174.064 26.515C175.574 26.8653 176.898 26.0948 176.898 26.0948L176.978 26.6551H178.916V1.27827H176.898L176.831 0.294988ZM101.021 14.3614C101.021 14.3614 100.882 0 112.395 0C123.196 0 123.45 13.5909 123.45 13.5909C123.45 13.5909 123.517 27.7583 112.014 27.7583C101.177 27.7569 101.021 14.3614 101.021 14.3614ZM30.2556 14.3614C30.2556 14.3614 30.1168 0 41.6294 0C52.4293 0 52.6839 13.5909 52.6839 13.5909C52.6839 13.5909 52.7513 27.7583 41.2482 27.7583C30.4118 27.7569 30.2556 14.3614 30.2556 14.3614ZM18.7323 8.27441V0.787974C18.7323 0.787974 17.5079 2.56732 16.4976 2.20364C15.4888 1.83996 13.3983 0.351561 10.1925 0.351561C6.98672 0.351561 0 4.45711 0 14.1984C0 23.9369 8.24613 27.6074 9.97564 27.6074C11.7051 27.6074 14.8597 26.5501 15.8484 25.8631C18.4292 24.0716 19.4286 27.2545 19.4286 27.2545C19.4286 27.2518 20.0267 27.2411 20.028 27.2464L20.0631 17.0674H22.0094V16.1946H14.6954V16.9233H16.4976V21.9003C16.4976 21.9003 15.6666 26.8801 10.0484 26.8801C4.43017 26.8801 3.78228 15.7231 3.78228 14.2684C3.78228 12.815 3.96008 1.00484 10.408 1.00484C16.8559 1.00484 18.7323 8.27441 18.7323 8.27441ZM162.9 12.9488C162.9 12.9488 169.701 12.8087 169.701 6.7177C169.701 0.62672 162.9 1.27865 162.9 1.27865V12.9488ZM105.088 10.4475C105.088 10.4475 105.408 0.897461 112.333 0.897461C119.258 0.897461 119.448 10.2575 119.448 10.2575V17.5662C119.448 17.5662 118.878 26.7323 112.207 26.7323C105.534 26.7323 105.153 18.1427 105.153 18.1427L105.088 10.4475ZM207.742 18.2652H215.497L211.76 7.34943H211.202L207.742 18.2652ZM139.887 18.2652H147.644L143.903 7.34943H143.348L139.887 18.2652ZM92.5339 0.327148H99.7496V1.26464H98.1777V26.5782H99.8938V27.5884H92.1016V26.6523H94.2459V1.26464H92.5312L92.5339 0.327148ZM89.1834 8.09375V0.607312C89.1834 0.607312 87.959 2.38666 86.9488 2.02298C85.9386 1.6593 83.8494 0.170898 80.6437 0.170898C77.4379 0.170898 70.4512 4.27645 70.4512 14.0177C70.4512 23.7563 78.6973 27.4268 80.4268 27.4268C82.1563 27.4268 85.3109 26.3694 86.2982 25.6825C88.8804 23.891 89.8785 27.0739 89.8785 27.0739C89.8785 27.0739 90.4765 27.0631 90.4779 27.0658L90.5129 16.8868H92.4593V16.0139H85.1452V16.7426H86.9475V21.7197C86.9475 21.7197 86.1151 26.6994 80.4982 26.6994C74.8813 26.6994 74.2321 15.5425 74.2321 14.0905C74.2321 12.6344 74.4099 0.824178 80.8592 0.824178C87.3098 0.825525 89.1834 8.09375 89.1834 8.09375ZM58.9758 12.7562V1.28269C58.9758 1.28269 66.0905 0.766804 66.0905 6.79313C66.0905 12.8195 58.9758 12.7562 58.9758 12.7562ZM34.3223 10.4475C34.3223 10.4475 34.6428 0.897461 41.5663 0.897461C48.4897 0.897461 48.6809 10.2575 48.6809 10.2575V17.5662C48.6809 17.5662 48.1125 26.7323 41.4396 26.7323C34.7668 26.7323 34.3856 18.1427 34.3856 18.1427L34.3223 10.4475ZM22.0756 0.327148H29.2913V1.26464H27.7207V26.5782H29.4354V27.5884H21.6445V26.6523H23.7889V1.26464H22.0729L22.0756 0.327148Z" fill="#231F20"/>
</svg>
