<svg width="225" height="27" viewBox="0 0 225 27" fill="none" xmlns="http://www.w3.org/2000/svg">
<path d="M207.719 2.2832V24.4863H221.486V21.9954H210.259V14.5896H219.886V12.0995H210.259V4.77266H221.486V2.2832H207.719Z" fill="#231F20"/>
<path d="M195.396 12.1786C192.699 11.5124 190.191 10.9414 190.191 8.08716C190.191 5.9305 191.883 4.53468 194.11 4.53468C196.086 4.53468 197.905 5.51807 198.752 7.10375L201.103 5.80321C199.976 3.45599 197.466 1.93359 194.362 1.93359C190.284 1.93359 187.619 4.37611 187.619 8.30901C187.619 12.7809 191.1 13.669 194.204 14.4619C196.902 15.1281 199.379 15.6991 199.379 18.522C199.379 20.9958 197.341 22.265 194.831 22.265C192.042 22.265 189.219 20.6788 189.219 17.6659C189.219 17.4754 189.219 16.9364 189.281 16.4607H186.615C186.553 16.9044 186.553 17.4753 186.553 17.7612C186.553 22.3597 190.63 24.8343 194.738 24.8343C198.563 24.8343 201.982 22.7408 201.982 18.2682C201.982 13.7643 198.563 12.9395 195.396 12.1786Z" fill="#231F20"/>
<path d="M178.112 16.2706C178.112 20.1722 176.324 22.2655 172.342 22.2655C168.359 22.2655 166.572 20.1722 166.572 16.2706V2.2832H164.031V16.2706C164.031 22.1382 167.293 24.8347 172.342 24.8347C177.39 24.8347 180.652 22.1382 180.652 16.2706V2.2832H178.112V16.2706Z" fill="#231F20"/>
<path d="M32.0767 22.6035C27.2041 22.6035 23.2382 18.5931 23.2382 13.6633C23.2382 8.73492 27.2041 4.72451 32.0767 4.72451C36.9508 4.72451 40.9146 8.73492 40.9146 13.6633C40.9146 18.5931 36.9508 22.6035 32.0767 22.6035ZM32.0767 1.95703C25.6848 1.95703 20.502 7.19831 20.502 13.6633C20.502 20.1291 25.6848 25.371 32.0767 25.371C38.4701 25.371 43.6506 20.1291 43.6506 13.6633C43.6506 7.19831 38.4701 1.95703 32.0767 1.95703Z" fill="#231F20"/>
<path d="M126.704 12.0525H114.851V2.2832H112.311V24.4862H114.851V14.5583H126.704V24.4862H129.244V2.2832H126.704V12.0525Z" fill="#231F20"/>
<path d="M83.5056 22.6036C78.633 22.6036 74.6679 18.5931 74.6679 13.6633C74.6679 8.73492 78.633 4.72451 83.5056 4.72451C88.3797 4.72451 92.3441 8.73492 92.3441 13.6633C92.3441 18.5931 88.3797 22.6036 83.5056 22.6036ZM83.5056 1.95703C77.1137 1.95703 71.9316 7.19831 71.9316 13.6633C71.9316 20.1291 77.1137 25.3711 83.5056 25.3711C89.899 25.3711 95.0803 20.1291 95.0803 13.6633C95.0803 7.19831 89.899 1.95703 83.5056 1.95703Z" fill="#231F20"/>
<path d="M63.683 12.0525H51.8291V2.2832H49.2891V24.4862H51.8291V14.5583H63.683V24.4862H66.223V2.2832H63.683V12.0525Z" fill="#231F20"/>
<path d="M146.527 22.6036C141.654 22.6036 137.689 18.5931 137.689 13.6633C137.689 8.73492 141.654 4.72451 146.527 4.72451C151.401 4.72451 155.366 8.73492 155.366 13.6633C155.366 18.5931 151.401 22.6036 146.527 22.6036ZM146.527 1.95703C140.135 1.95703 134.953 7.19831 134.953 13.6633C134.953 20.1291 140.135 25.3711 146.527 25.3711C152.921 25.3711 158.102 20.1291 158.102 13.6633C158.102 7.19831 152.921 1.95703 146.527 1.95703Z" fill="#231F20"/>
<path d="M9.41788 12.2999C6.71191 11.6308 4.19506 11.0584 4.19506 8.19424C4.19506 6.03118 5.89288 4.63109 8.12711 4.63109C10.1097 4.63109 11.9333 5.61734 12.7833 7.20799L15.1427 5.90391C14.0094 3.54886 11.4939 2.02148 8.37949 2.02148C4.28857 2.02148 1.61493 4.47181 1.61493 8.41751C1.61493 12.9043 5.10759 13.796 8.22203 14.5903C10.9273 15.2594 13.4125 15.8325 13.4125 18.6633C13.4125 21.1463 11.3667 22.4192 8.85123 22.4192C6.05036 22.4192 3.21995 20.827 3.21995 17.8043C3.21995 17.6137 3.21995 17.0733 3.28251 16.5962H0.607491C0.544922 17.0406 0.544922 17.6137 0.544922 17.9003C0.544922 22.5129 4.63446 24.996 8.75633 24.996C12.5949 24.996 16.0236 22.8963 16.0236 18.4094C16.0236 13.8906 12.5949 13.0636 9.41788 12.2999Z" fill="#231F20"/>
</svg>
