<svg width="106" height="42" viewBox="0 0 106 42" fill="none" xmlns="http://www.w3.org/2000/svg">
<path d="M88.508 25.5007C88.4793 25.2953 88.4793 25.1207 89.4713 24.8291C90.4633 24.5374 92.8315 23.72 94.2918 22.9005C95.7521 22.081 95.9863 21.9659 96.3375 22.2001C96.6887 22.4342 96.5716 22.96 96.5716 23.3688V27.3122C97.0974 26.4352 98.8494 23.5433 100.223 22.6971C101.304 22.0255 101.684 21.9659 102.355 21.9659C103.173 21.9372 105.073 22.463 105.159 24.4779C105.216 26.0552 104.05 26.6981 103.319 26.581C102.735 26.4927 102.296 25.9382 101.947 25.4124C101.595 24.8578 101.041 24.5354 100.458 24.712C99.903 24.9174 96.7483 26.961 96.5429 29.8816C96.4258 32.0136 96.5429 38.7031 96.5429 38.7031C96.5429 39.7259 96.9228 40.1059 97.3891 40.3688C97.8266 40.6317 99.4923 40.6605 99.9605 40.72C100.429 40.7775 100.429 40.8946 100.429 41.0404C100.429 41.1863 100.429 41.2458 100.02 41.2458H88.9209C88.5697 41.2458 88.4238 41.1883 88.4238 40.9542C88.4238 40.6625 88.8921 40.72 89.2413 40.6625C89.5925 40.605 91.4615 40.7796 92.0161 39.8163C92.4248 39.2022 92.3673 38.2102 92.3673 38.2102L92.3098 26.4681C92.3098 25.5336 92.0181 25.3877 91.7552 25.2419C91.4923 25.0961 91.0549 25.0078 90.1491 25.3302C89.268 25.6178 88.6539 25.8807 88.508 25.5007Z" fill="#231F20"/>
<path d="M49.6572 25.5305C49.5114 25.2388 49.7743 25.0622 50.6205 24.8301C51.5263 24.5959 53.5411 23.9839 55.1473 23.0781C56.7534 22.1723 57.0163 22.084 57.3675 22.2011C57.7188 22.3182 57.6879 22.9015 57.6879 23.3985V38.6179C57.6879 39.4641 57.805 39.8153 58.185 40.1953C58.565 40.5465 59.5282 40.7498 60.7852 40.7498C61.3398 40.7498 61.5164 40.8073 61.5164 41.0702C61.5164 41.3044 61.3418 41.3044 61.1077 41.3044H50.0947C49.7435 41.3044 49.686 41.1585 49.686 41.0127C49.686 40.8381 49.8318 40.7211 50.3576 40.7211C50.7951 40.7211 52.7812 40.8669 53.2495 39.844C53.4241 39.4353 53.5124 38.9095 53.5124 38.3837V26.3192C53.5124 25.4134 52.812 25.0047 51.9925 25.2101C50.9717 25.3559 49.8318 25.8817 49.6572 25.5305Z" fill="#231F20"/>
<path d="M55.2661 15.0157C56.7552 15.0157 57.9834 13.7895 57.9834 12.2984C57.9834 10.8093 56.7572 9.58105 55.2661 9.58105C53.775 9.58105 52.5488 10.7785 52.5488 12.2984C52.5509 13.7874 53.7771 15.0157 55.2661 15.0157Z" fill="#231F20"/>
<path d="M68.5286 32.2477C69.0832 37.1853 72.0038 41.0117 75.6556 40.3688C79.3074 39.726 81.119 36.2508 80.6794 30.6703C80.2419 25.0037 77.4363 22.1693 73.6407 22.5205C69.7548 22.8717 67.9741 27.3122 68.5286 32.2477ZM72.1209 21.6455C76.8243 20.7685 83.5138 21.7914 85.0316 29.1525C86.5515 36.5137 81.4969 40.4284 77.0872 41.3629C72.7925 42.2974 65.5197 41.6258 64.1764 33.7101C63.0077 26.6406 68.1486 22.3747 72.1209 21.6455Z" fill="#231F20"/>
<path d="M16.5051 40.0776H19.2224C29.3583 40.0776 32.0756 39.1431 35.6391 34.4109C39.2006 29.6787 39.6401 22.8721 39.6401 20.5656C39.6401 18.2591 39.026 12.5041 35.4625 7.6261C31.899 2.74811 25.9407 1.49112 20.7114 1.49112H16.4763C15.4822 1.49112 15.4247 1.9286 15.4247 2.63104V39.2026C15.4247 39.9605 15.7164 40.0776 16.5051 40.0776ZM0 40.9238C0 40.5438 0.468287 40.4863 0.934521 40.4863C6.10417 40.3405 7.0695 40.1659 7.6528 39.5518C7.97321 39.2006 8.4415 38.9377 8.4415 36.5429V3.62307C8.4415 0.673677 4.84924 1.13991 2.30652 0.877013C1.42951 0.788696 1.34325 0.671624 1.34325 0.408726C1.34325 0.145827 1.51783 0.0287545 1.98611 0H22.7838C45.656 0 46.8246 16.7084 46.8246 21.1777C46.8246 30.7591 40.4863 41.275 27.2531 41.275H0.671623C0.351216 41.3038 0 41.2463 0 40.9238Z" fill="#231F20"/>
</svg>
