<svg width="299" height="21" viewBox="0 0 299 21" fill="none" xmlns="http://www.w3.org/2000/svg">
<path d="M4.4122 9.95454C4.4122 9.81818 4.36894 8.95455 4.32568 8L5.32076 9.18182L10.0798 14.1818L14.8389 9.18182L15.7907 8.04545C15.7475 8.81818 15.7042 9.81818 15.7042 9.95454V20H18.8625V1H18.1703L10.0366 9.54545L1.94614 1H1.25391V20H4.4122V9.95454Z" fill="#231F20"/>
<path d="M26.0007 1.18164H22.7559V19.9998H26.0007V1.18164Z" fill="#231F20"/>
<path d="M72.4675 1.18164H69.2227V19.9998H72.4675V1.18164Z" fill="#231F20"/>
<path d="M50.8341 9.95454C50.8341 9.81818 50.7908 8.95455 50.7476 8L51.7426 9.18182L56.5017 14.1818L61.2608 9.18182L62.2126 8.04545C62.1693 8.81818 62.1261 9.81818 62.1261 9.95454V20H65.2844V1H64.5921L56.5017 9.54545L48.368 1H47.6758V20H50.8341V9.95454Z" fill="#231F20"/>
<path d="M42.831 13.3182L37.7258 1H37.0336L35.2598 5.40909L42.831 13.3182Z" fill="#231F20"/>
<path d="M33.0525 10.8633L29.375 19.9996H32.6198L33.8745 16.6815H38.6336L33.0525 10.8633Z" fill="#231F20"/>
<path d="M215.887 8.58915C214.416 7.90733 213.162 7.31642 213.162 6.22551C213.162 4.95279 213.897 4.27097 215.238 4.27097C216.19 4.27097 216.926 4.6346 217.791 5.5437L217.964 5.72551L220.3 3.99824L220.127 3.72551C218.959 1.99824 217.229 1.0437 215.238 1.0437C211.994 0.998241 209.83 3.08915 209.83 6.18006C209.83 9.08915 212.297 10.3164 214.416 11.4528C216.104 12.3164 217.661 13.1346 217.661 14.6346C217.661 16.1346 216.623 17.0891 214.936 17.0891C213.638 17.0891 212.513 16.3619 211.604 14.9528L211.431 14.6801L208.922 16.4073L209.052 16.6346C210.479 19.3164 213.075 20.271 214.936 20.271C218.7 20.271 221.036 18.0891 221.036 14.6346C221.036 10.9982 218.18 9.6346 215.887 8.58915Z" fill="#231F20"/>
<path d="M258.59 1.22656H255.345V20.0447H258.59V1.22656Z" fill="#231F20"/>
<path d="M275.333 14.3631C274.165 16.1813 272.564 17.0904 270.444 17.0904C267.069 17.0904 264.603 14.3631 264.603 10.5904C264.603 6.8631 267.069 4.13583 270.444 4.13583C272.477 4.13583 274.078 4.99947 275.073 6.63583L275.246 6.90856L277.756 4.99947L277.582 4.77219C276.025 2.27219 273.602 1.04492 270.401 1.04492C265.166 1.04492 261.229 5.18129 261.229 10.6813C261.229 16.1813 265.166 20.3176 270.401 20.3176C273.559 20.3176 276.198 18.9086 277.842 16.3177L278.015 16.0904L275.463 14.2267L275.333 14.3631Z" fill="#231F20"/>
<path d="M279.66 1.22656V4.31747H284.765V20.0447H288.053V4.31747H293.202V1.22656H279.66Z" fill="#231F20"/>
<path d="M205.895 1.22656H202.65V20.0447H205.895V1.22656Z" fill="#231F20"/>
<path d="M222.379 4.31747H227.527V20.0447H230.815V4.31747H235.964V1.22656H222.379V4.31747Z" fill="#231F20"/>
<path d="M244.963 1.22656C244.833 1.22656 244.66 1.22656 244.53 1.22656H238.43V8.0902L244.963 1.22656Z" fill="#231F20"/>
<path d="M251.149 7.31854C251.149 5.86399 250.76 4.63672 250.111 3.63672L247.645 6.22763C247.731 6.54581 247.774 6.90945 247.774 7.31854C247.774 9.31854 246.693 10.3185 244.443 10.3185H243.751L238.473 15.864V20.0458H241.761V13.2731H244.443L248.207 20.0004H251.971L247.818 12.6367C249.938 11.7276 251.149 9.86399 251.149 7.31854Z" fill="#231F20"/>
<path d="M189.497 4.31747H190.233C194.256 4.31747 196.549 6.63565 196.549 10.6357C196.549 10.9993 196.506 11.3629 196.463 11.6811L199.188 14.5447C199.664 13.3629 199.924 12.0447 199.924 10.6357C199.924 4.99929 196.073 1.22656 190.406 1.22656H186.512L189.497 4.31747Z" fill="#231F20"/>
<path d="M193.477 16.272C192.569 16.6811 191.487 16.9084 190.233 16.9084H188.632V11.1811L185.344 7.72656V19.9993H190.406C192.439 19.9993 194.256 19.4993 195.727 18.6357L193.477 16.272Z" fill="#231F20"/>
<path d="M122.957 16.772C121.659 16.772 120.534 16.0447 119.626 14.6357L119.453 14.3629L116.943 16.0902L117.073 16.3175C118.501 18.9993 121.097 19.9538 122.957 19.9538C126.721 19.9538 129.057 17.772 129.057 14.3175C129.057 10.7266 126.202 9.36293 123.909 8.27202C122.438 7.5902 121.183 6.99929 121.183 5.90838C121.183 4.63565 121.919 3.95384 123.26 3.95384C124.212 3.95384 124.947 4.31747 125.813 5.22656L125.986 5.40838L128.322 3.68111L128.149 3.40838C126.981 1.68111 125.25 0.726562 123.26 0.726562C120.015 0.726562 117.809 2.81747 117.809 5.90838C117.809 8.81747 120.275 10.0447 122.395 11.1811C124.082 12.0447 125.639 12.8629 125.639 14.3629C125.639 15.8629 124.601 16.772 122.957 16.772Z" fill="#231F20"/>
<path d="M114.434 4.04403V0.953125H102.883V19.7713H114.824V16.6349H106.128V11.8168H113.526V8.77131H106.128V4.04403H114.434Z" fill="#231F20"/>
<path d="M97.2143 3.22656L95.0078 5.54474C96.1759 6.63565 96.7816 8.22656 96.7816 10.3175C96.7816 14.3175 94.4886 16.6357 90.465 16.6357H88.8643V11.9993L85.5762 15.4538V19.7266H90.6381C96.349 19.7266 100.156 15.9538 100.156 10.3175C100.156 7.36293 99.0747 4.90838 97.2143 3.22656Z" fill="#231F20"/>
<path d="M91.936 1.04403C91.5034 0.99858 91.0707 0.953125 90.6381 0.953125H85.5762V7.72585L91.936 1.04403Z" fill="#231F20"/>
<path d="M143.897 5.04474C144.848 4.31747 146.016 3.90838 147.314 3.90838C149.088 3.90838 150.386 4.45383 151.425 5.5902L151.641 5.81747L153.847 3.49929L153.674 3.27202C152.247 1.5902 150.127 0.726562 147.314 0.726562C145.108 0.726562 143.161 1.45384 141.604 2.63565L143.897 5.04474Z" fill="#231F20"/>
<path d="M147.747 16.8629H147.704C144.07 16.8629 141.517 14.1811 141.517 10.3629C141.517 10.3175 141.517 10.3175 141.517 10.272L138.618 7.22656C138.315 8.18111 138.186 9.22656 138.186 10.3629C138.186 15.9538 142.209 19.9993 147.704 19.9993C148.699 19.9993 149.607 19.8629 150.473 19.6811L147.747 16.8629Z" fill="#231F20"/>
<path d="M146.969 9.81641V12.8619H151.338L154.713 16.3619V9.81641H146.969Z" fill="#231F20"/>
<path d="M135.243 0.953125H131.998V19.7713H135.243V0.953125Z" fill="#231F20"/>
<path d="M161.852 9.04421L171.5 19.9533H172.235V0.953303H169.163V11.2715C169.163 11.7715 169.207 12.3624 169.25 12.9078C168.947 12.4988 168.558 12.0442 168.255 11.6806L158.607 0.771484H157.828V19.7715H160.9V9.40785C160.9 8.86239 160.857 8.27149 160.813 7.77149C161.159 8.18058 161.549 8.68058 161.852 9.04421Z" fill="#231F20"/>
<path d="M295.234 2.77308C295.234 1.81854 295.927 1.13672 296.792 1.13672C297.657 1.13672 298.349 1.81854 298.349 2.77308C298.349 3.72763 297.657 4.36399 296.792 4.36399C295.927 4.40945 295.234 3.72763 295.234 2.77308ZM298.047 2.77308C298.047 1.9549 297.527 1.4549 296.792 1.4549C296.1 1.4549 295.58 1.9549 295.58 2.77308C295.58 3.54581 296.1 4.09126 296.792 4.09126C297.484 4.09126 298.047 3.59126 298.047 2.77308ZM296.186 1.90945H296.835C297.268 1.90945 297.484 2.13672 297.484 2.4549C297.484 2.68217 297.354 2.86399 297.181 2.9549L297.527 3.59126H297.095L296.792 3.04581H296.576V3.63672H296.186V1.90945ZM296.835 2.77308C297.008 2.77308 297.095 2.68217 297.095 2.50036C297.095 2.36399 297.008 2.27308 296.835 2.27308H296.576V2.77308H296.835Z" fill="#231F20"/>
</svg>
