<svg width="265" height="26" viewBox="0 0 265 26" fill="none" xmlns="http://www.w3.org/2000/svg">
<path d="M260.547 20.5637V4.95327C260.547 3.46729 260.762 2.55323 261.114 2.19578C261.681 1.62896 262.6 1.34811 263.871 1.34811H265V0.709798H251.933V1.34811H252.995C253.699 1.34811 254.409 1.49109 255.042 1.77194C255.538 1.98642 255.819 2.26727 255.962 2.54813C256.176 2.97197 256.242 3.74815 256.242 4.94817V20.6301C256.242 22.1161 256.028 23.0302 255.676 23.3876C255.109 23.9544 254.19 24.2353 252.918 24.2353H251.856V24.8736H264.923V24.2353H263.795C263.09 24.2353 262.38 24.0923 261.747 23.8114C261.252 23.597 260.971 23.3161 260.828 23.0353C260.619 22.6114 260.547 21.8352 260.547 20.5637ZM229.04 24.8736H237.165V24.2353C235.469 24.0923 234.126 23.74 233.136 23.2446C232.074 22.7493 230.873 21.6923 229.393 20.0633L223.107 13.0674C225.65 12.6436 227.559 11.8674 228.759 10.7338C229.959 9.60526 230.598 8.33375 230.598 6.84777C230.598 5.43328 230.031 4.23326 228.974 3.24261C227.912 2.25195 226.574 1.54726 225.088 1.19491C223.535 0.842565 221.13 0.628093 217.954 0.628093H206.863V1.2664H207.991C209.12 1.2664 210.039 1.54726 210.606 2.04259C211.03 2.39493 211.244 3.38559 211.244 4.86646V20.5484C211.244 21.9629 211.101 22.8106 210.749 23.1629C210.182 23.8012 209.263 24.1536 207.991 24.1536H206.863V24.7919H219.93V24.1536H218.73C217.602 24.1536 216.754 23.8727 216.187 23.3774C215.763 23.0251 215.549 22.0344 215.549 20.5535V13.4964C215.763 13.4964 216.044 13.4964 216.254 13.4964C216.468 13.4964 216.678 13.4964 216.892 13.4964C217.387 13.4964 218.021 13.4964 218.73 13.4249L229.04 24.8736ZM216.82 12.4393C216.678 12.4393 216.54 12.4393 216.325 12.4393C216.111 12.4393 215.901 12.4393 215.549 12.4393V2.33876C217.035 2.12429 218.235 1.98641 219.083 1.98641C221.059 1.98641 222.616 2.48174 223.816 3.40091C225.016 4.32007 225.583 5.59158 225.583 7.07246C225.583 8.62482 224.878 9.89633 223.393 10.887C221.907 11.944 219.716 12.4393 216.82 12.4393ZM181.851 24.8736H193.862V24.2353C192.59 24.1638 191.671 23.8829 190.966 23.3876C190.262 22.8923 189.48 21.8352 188.633 20.2063L178.037 0H177.261L166.522 19.9918C165.603 21.7586 164.755 22.8872 163.979 23.454C163.626 23.7349 162.779 23.9493 161.507 24.1587V24.797H171.118V24.1587C169.632 24.0872 168.718 23.8778 168.222 23.5919C167.798 23.311 167.584 22.9536 167.584 22.6012C167.584 22.1059 167.865 21.4012 168.36 20.482L170.408 16.6675H182.204L184.042 20.1297C184.609 21.2582 184.961 22.1059 184.961 22.6012C184.961 23.025 184.747 23.3059 184.323 23.5919C183.899 23.8778 183.051 24.0157 181.851 24.0872V24.8736ZM181.565 15.4062H171.107L176.408 5.58647L181.565 15.4062ZM149.778 12.2964H150.345V11.5917H138.549V12.2964C139.749 12.2964 140.668 12.3679 141.092 12.5772C141.587 12.7917 141.939 13.0725 142.154 13.4249C142.368 13.7772 142.506 14.6249 142.506 15.8249V22.8208C141.515 23.2446 140.53 23.597 139.468 23.8114C138.406 24.0259 137.349 24.1638 136.22 24.1638C134.31 24.1638 132.406 23.7399 130.639 22.8208C128.8 21.9016 127.319 20.5586 126.186 18.6539C125.057 16.7441 124.491 14.6249 124.491 12.2964C124.491 9.47249 125.338 6.99586 127.034 4.94817C129.081 2.47664 132.048 1.27662 135.934 1.27662C138.758 1.27662 141.092 1.98131 142.93 3.3958C144.201 4.38646 145.192 5.79584 146.04 7.70565H146.816L146.04 0.0766016H145.192C145.121 0.71491 145.049 1.06725 144.84 1.27662C144.63 1.48598 144.416 1.55747 144.135 1.55747C143.854 1.55747 143.287 1.41449 142.44 1.20513C140.744 0.709799 139.473 0.428942 138.554 0.285961C137.635 0.14298 136.644 0.0714902 135.515 0.0714902C132.477 0.0714902 129.791 0.566822 127.605 1.62386C124.919 2.89537 122.8 4.6622 121.319 6.99075C120.048 8.96695 119.41 11.0197 119.41 13.1389C119.41 16.1058 120.538 18.7203 122.872 20.911C125.91 23.9493 130.429 25.4302 136.297 25.4302C138.344 25.4302 140.254 25.2872 141.878 24.9349C143.573 24.5825 145.269 24.0157 146.964 23.311V15.8913C146.964 14.6198 147.107 13.7007 147.388 13.2768C147.796 12.6487 148.578 12.2964 149.778 12.2964ZM105.622 24.8736L108.237 18.3016L107.46 18.1586C106.684 19.6446 105.908 20.7731 105.127 21.4778C104.351 22.1825 103.503 22.6778 102.512 22.9638C101.593 23.2446 99.8978 23.3876 97.5692 23.3876H95.3071C93.3309 23.3876 92.1972 23.3161 91.7734 23.1731C91.421 23.0301 91.1351 22.8923 90.9257 22.6063C90.7112 22.254 90.5734 21.5442 90.5734 20.5586V5.30051C90.5734 3.88602 90.7163 2.96685 90.9257 2.54302C91.1402 2.19067 91.6304 1.83833 92.2687 1.62386C92.907 1.343 94.0355 1.27151 95.6594 1.27151V0.633204H81.8107V1.27151H82.9392C84.0677 1.27151 84.9869 1.55236 85.5537 2.04769C85.9775 2.40004 86.192 3.3907 86.192 4.87157V20.5535C86.192 21.968 86.049 22.8157 85.6967 23.168C85.1299 23.8063 84.2107 24.1587 82.9392 24.1587H81.8107V24.797H105.617V24.8736H105.622ZM66.1338 1.98131C66.6292 1.55747 67.4053 1.343 68.396 1.13364V0.495328H59.6384V1.13364C59.7814 1.13364 59.9193 1.20513 59.9907 1.20513C60.9814 1.34811 61.6146 1.55747 62.0384 1.84343C62.4623 2.12429 62.6767 2.48174 62.6767 2.83409C62.6767 3.40091 62.3244 4.32007 61.6861 5.72945L54.9762 19.7876L47.771 5.58647C47.1327 4.31496 46.7803 3.3958 46.7803 2.7626C46.7803 2.33876 46.9948 1.98642 47.3471 1.70045C47.771 1.4196 48.6186 1.20513 49.8902 1.13364V0.495328H38.2985V1.13364C39.1462 1.20513 39.8508 1.34811 40.3462 1.55747C40.8415 1.77194 41.2653 2.0528 41.6177 2.40515C41.8322 2.61962 42.256 3.32431 42.7462 4.38135L53.4136 25.2923H54.1898L64.081 4.6622C64.7193 3.46729 65.424 2.54813 66.1338 1.98131ZM23.4591 14.3441C22.4684 13.5679 20.9876 13.0011 19.0063 12.6487C20.7016 12.1534 21.9731 11.4487 22.8208 10.5295C23.6685 9.53887 24.0923 8.48183 24.0923 7.28182C24.0923 5.86732 23.5255 4.59582 22.4684 3.53878C21.3399 2.47664 19.7824 1.70045 17.6633 1.27662C16.2488 0.995761 14.4156 0.852779 12.1534 0.852779H0V1.49109H1.06214C2.12429 1.49109 2.97196 1.77194 3.46218 2.26727C3.88602 2.69111 4.10049 3.61027 4.10049 5.09115V20.7731C4.10049 22.1161 3.95751 23.0353 3.60516 23.4591C3.10984 24.0974 2.26216 24.4497 1.06214 24.4497H0V25.0881H13.4249C16.6062 25.0881 19.0063 24.8072 20.5586 24.3119C22.111 23.8166 23.3161 22.9689 24.2302 21.9118C25.1493 20.7833 25.5732 19.6497 25.5732 18.4497C25.5119 16.7492 24.8736 15.4062 23.4591 14.3441ZM19.0114 9.61037C18.4445 10.3866 17.6684 10.9534 16.6777 11.3057C15.6156 11.6581 14.1347 11.8725 12.087 11.8725C11.3108 11.8725 10.5346 11.8725 9.89633 11.801C9.25802 11.7295 8.62482 11.7295 8.12949 11.5866V2.26217C9.25802 1.98131 10.5295 1.83833 11.8725 1.83833C14.487 1.83833 16.4632 2.33365 17.8062 3.32431C19.1492 4.31496 19.8539 5.51499 19.8539 6.92948C19.859 7.98651 19.5782 8.83419 19.0114 9.61037ZM20.6352 18.6539C20.6352 20.0684 19.9969 21.2684 18.659 22.2591C17.316 23.2497 15.4113 23.7451 12.8683 23.7451C11.3159 23.7451 9.68696 23.6021 8.06311 23.2497V13.287C8.41545 13.2155 8.91078 13.2155 9.54909 13.144C10.1874 13.144 10.8921 13.0725 11.7398 13.0725C13.716 13.0725 15.4113 13.3534 16.7543 13.8487C18.0973 14.3441 19.088 15.0487 19.6497 15.8964C20.3544 16.8207 20.6352 17.7348 20.6352 18.6539Z" fill="#231F20"/>
</svg>
