<svg width="257" height="23" viewBox="0 0 257 23" fill="none" xmlns="http://www.w3.org/2000/svg">
<path d="M8.25148 23C12.636 23 15.5286 20.4444 15.5286 17.0583C15.5286 13.5764 13.5799 11.5958 8.7082 9.99861C4.59769 8.625 3.25796 7.475 3.25796 5.43055C3.25796 3.7375 4.87172 2.36389 7.27714 2.36389C10.0175 2.36389 11.9662 3.86528 12.0575 6.45278C12.0575 6.70833 12.1489 6.80417 12.3924 6.77222L14.128 6.51667C14.3716 6.48472 14.402 6.38889 14.402 6.19722C14.3716 2.5875 11.5094 0.031944 7.33803 0.031944C3.65379 0.031944 0.822103 2.14028 0.822103 5.39861C0.822103 8.72083 2.86214 10.5417 6.82041 11.9153C11.0527 13.3847 13.0928 14.3431 13.0928 16.9306C13.0928 19.0708 11.205 20.6681 8.22103 20.6681C4.62814 20.6681 2.37496 18.7833 2.37496 15.5889C2.37496 15.3014 2.22272 15.2375 1.97914 15.2694L0.334931 15.525C0.0304484 15.5889 0 15.7167 0 15.9403C0 20.9236 3.83648 23 8.25148 23Z" fill="#231F20"/>
<path d="M21.6111 22.5847V0.447222C21.6111 0.255554 21.4893 0.127776 21.3066 0.127776H19.4798C19.2971 0.127776 19.1753 0.255554 19.1753 0.447222V22.5847C19.1753 22.7764 19.2971 22.9042 19.4798 22.9042H21.3066C21.4893 22.9042 21.6111 22.7764 21.6111 22.5847Z" fill="#231F20"/>
<path d="M36.5826 20.5722H28.4834C28.3007 20.5722 28.1789 20.4444 28.1789 20.2528V0.447222C28.1789 0.255554 28.0571 0.127776 27.8744 0.127776H26.0475C25.8648 0.127776 25.7431 0.255554 25.7431 0.447222V22.5847C25.7431 22.7764 25.8648 22.9042 26.0475 22.9042H36.5826C36.7653 22.9042 36.8871 22.7764 36.8871 22.5847V20.8917C36.8871 20.7 36.7653 20.5722 36.5826 20.5722Z" fill="#231F20"/>
<path d="M46.8791 22.6806L55.4047 0.51111C55.496 0.2875 55.4047 0.127776 55.1915 0.127776H53.3342C53.1819 0.127776 53.0601 0.191666 52.9992 0.351388L46.1788 18.5917C46.0875 18.8153 45.8744 18.8153 45.7526 18.5917L38.9321 0.351388C38.8713 0.191666 38.7495 0.127776 38.5972 0.127776H36.7399C36.5267 0.127776 36.4354 0.2875 36.5267 0.51111L45.0827 22.6806C45.1436 22.8403 45.2958 22.9042 45.4481 22.9042H46.5138C46.666 22.9042 46.8182 22.8403 46.8791 22.6806Z" fill="#231F20"/>
<path d="M61.5638 22.5847V0.447222C61.5638 0.255554 61.442 0.127776 61.2593 0.127776H59.4324C59.2497 0.127776 59.1279 0.255554 59.1279 0.447222V22.5847C59.1279 22.7764 59.2497 22.9042 59.4324 22.9042H61.2593C61.442 22.9042 61.5638 22.7764 61.5638 22.5847Z" fill="#231F20"/>
<path d="M74.069 0.351388L65.1172 22.5208C65.0258 22.7444 65.1172 22.9042 65.3303 22.9042H67.1268C67.279 22.9042 67.4008 22.8403 67.4617 22.6806L69.3799 17.9528C69.4408 17.7931 69.5931 17.7292 69.7453 17.7292H80.1891C80.3413 17.7292 80.4631 17.7931 80.524 17.9528L82.4422 22.6806C82.5031 22.8403 82.6554 22.9042 82.8076 22.9042H84.6041C84.8172 22.9042 84.9085 22.7444 84.8172 22.5208L75.8654 0.351388C75.8045 0.191666 75.6523 0.127776 75.5 0.127776H74.4343C74.2821 0.127776 74.1299 0.191666 74.069 0.351388ZM70.5674 14.9819L74.7693 4.47222C74.8606 4.24861 75.1042 4.24861 75.1955 4.47222L79.367 14.9819C79.4583 15.2056 79.367 15.3653 79.1538 15.3653H70.7805C70.5674 15.3653 70.4761 15.2056 70.5674 14.9819Z" fill="#231F20"/>
<path d="M114.508 0.127776H100.654C100.471 0.127776 100.349 0.255554 100.349 0.447222V2.14028C100.349 2.33194 100.471 2.45972 100.654 2.45972H106.073C106.256 2.45972 106.378 2.5875 106.378 2.77917V22.5847C106.378 22.7764 106.5 22.9042 106.682 22.9042H108.509C108.692 22.9042 108.814 22.7764 108.814 22.5847V2.77917C108.814 2.5875 108.936 2.45972 109.118 2.45972H114.508C114.69 2.45972 114.812 2.33194 114.812 2.14028V0.447222C114.812 0.255554 114.69 0.127776 114.508 0.127776Z" fill="#231F20"/>
<path d="M133.582 16.7708C133.094 18.0806 130.719 20.6681 127.248 20.6681C122.437 20.6681 119.301 16.6431 119.301 11.4681C119.301 6.325 122.437 2.36389 127.248 2.36389C130.719 2.36389 133.094 4.91944 133.582 6.22917C133.673 6.45278 133.825 6.38889 134.008 6.35694L135.743 6.10139C135.987 6.06944 135.896 5.87778 135.865 5.71805C134.921 2.84306 131.481 0 127.309 0C120.793 0 116.865 5.43055 116.865 11.4681C116.865 17.5375 120.793 23 127.309 23C131.481 23 134.952 20.1889 135.865 17.3139C135.896 17.1542 135.926 16.9306 135.743 16.8986L134.008 16.6431C133.856 16.6111 133.673 16.5472 133.582 16.7708Z" fill="#231F20"/>
<path d="M154.241 0.447222V10.5736C154.241 10.7653 154.119 10.8931 153.936 10.8931H142.914C142.731 10.8931 142.61 10.7653 142.61 10.5736V0.447222C142.61 0.255554 142.488 0.127776 142.305 0.127776H140.478C140.296 0.127776 140.174 0.255554 140.174 0.447222V22.5847C140.174 22.7764 140.296 22.9042 140.478 22.9042H142.305C142.488 22.9042 142.61 22.7764 142.61 22.5847V13.5444C142.61 13.3528 142.731 13.225 142.914 13.225H153.936C154.119 13.225 154.241 13.3528 154.241 13.5444V22.5847C154.241 22.7764 154.363 22.9042 154.545 22.9042H156.372C156.555 22.9042 156.677 22.7764 156.677 22.5847V0.447222C156.677 0.255554 156.555 0.127776 156.372 0.127776H154.545C154.363 0.127776 154.241 0.255554 154.241 0.447222Z" fill="#231F20"/>
<path d="M173.455 20.5722H163.956C163.773 20.5722 163.651 20.4444 163.651 20.2528V13.2889C163.651 13.0972 163.773 12.9694 163.956 12.9694H170.563C170.746 12.9694 170.867 12.8417 170.867 12.65V10.9569C170.867 10.7653 170.746 10.6375 170.563 10.6375H163.956C163.773 10.6375 163.651 10.5097 163.651 10.3181V2.77917C163.651 2.5875 163.773 2.45972 163.956 2.45972H173.151C173.334 2.45972 173.455 2.33194 173.455 2.14028V0.447222C173.455 0.255554 173.334 0.127776 173.151 0.127776H161.52C161.337 0.127776 161.215 0.255554 161.215 0.447222V22.5847C161.215 22.7764 161.337 22.9042 161.52 22.9042H173.455C173.638 22.9042 173.76 22.7764 173.76 22.5847V20.8917C173.76 20.7 173.638 20.5722 173.455 20.5722Z" fill="#231F20"/>
<path d="M177.781 22.9042H179.608C179.791 22.9042 179.912 22.7764 179.912 22.5847V15.4292C179.912 15.2375 180.034 15.1097 180.217 15.1097H186.428C186.581 15.1097 186.702 15.1736 186.794 15.3333L190.356 22.6806C190.447 22.8403 190.569 22.9042 190.721 22.9042H192.731C192.944 22.9042 193.066 22.7444 192.944 22.5208L189.108 14.7583C189.016 14.5986 189.047 14.375 189.199 14.3111C191.178 13.225 193.127 11.1486 193.127 7.60278C193.127 2.97083 189.991 0.127776 185.637 0.127776H177.781C177.598 0.127776 177.477 0.255554 177.477 0.447222V22.5847C177.477 22.7764 177.598 22.9042 177.781 22.9042ZM180.217 12.7458C180.034 12.7458 179.912 12.6181 179.912 12.4264V2.77917C179.912 2.5875 180.034 2.45972 180.217 2.45972H185.423C188.225 2.45972 190.691 3.92917 190.691 7.60278C190.691 11.2125 187.829 12.7458 186.032 12.7458H180.217Z" fill="#231F20"/>
<path d="M204.49 0.351388L195.538 22.5208C195.447 22.7444 195.538 22.9042 195.751 22.9042H197.548C197.7 22.9042 197.822 22.8403 197.883 22.6806L199.801 17.9528C199.862 17.7931 200.014 17.7292 200.166 17.7292H210.61C210.762 17.7292 210.884 17.7931 210.945 17.9528L212.863 22.6806C212.924 22.8403 213.076 22.9042 213.228 22.9042H215.025C215.238 22.9042 215.329 22.7444 215.238 22.5208L206.286 0.351388C206.225 0.191666 206.073 0.127776 205.921 0.127776H204.855C204.703 0.127776 204.551 0.191666 204.49 0.351388ZM200.988 14.9819L205.19 4.47222C205.281 4.24861 205.525 4.24861 205.616 4.47222L209.788 14.9819C209.879 15.2056 209.788 15.3653 209.575 15.3653H201.201C200.988 15.3653 200.897 15.2056 200.988 14.9819Z" fill="#231F20"/>
<path d="M225.803 23C230.188 23 233.08 20.4444 233.08 17.0583C233.08 13.5764 231.132 11.5958 226.26 9.99861C222.149 8.625 220.81 7.475 220.81 5.43055C220.81 3.7375 222.423 2.36389 224.829 2.36389C227.569 2.36389 229.518 3.86528 229.609 6.45278C229.609 6.70833 229.701 6.80417 229.944 6.77222L231.68 6.51667C231.923 6.48472 231.954 6.38889 231.954 6.19722C231.923 2.5875 229.061 0.031944 224.89 0.031944C221.205 0.031944 218.374 2.14028 218.374 5.39861C218.374 8.72083 220.414 10.5417 224.372 11.9153C228.604 13.3847 230.644 14.3431 230.644 16.9306C230.644 19.0708 228.757 20.6681 225.773 20.6681C222.18 20.6681 219.927 18.7833 219.927 15.5889C219.927 15.3014 219.774 15.2375 219.531 15.2694L217.887 15.525C217.582 15.5889 217.552 15.7167 217.552 15.9403C217.552 20.9236 221.388 23 225.803 23Z" fill="#231F20"/>
<path d="M243.64 23C248.025 23 250.917 20.4444 250.917 17.0583C250.917 13.5764 248.969 11.5958 244.097 9.99861C239.987 8.625 238.647 7.475 238.647 5.43055C238.647 3.7375 240.261 2.36389 242.666 2.36389C245.406 2.36389 247.355 3.86528 247.446 6.45278C247.446 6.70833 247.538 6.80417 247.781 6.77222L249.517 6.51667C249.76 6.48472 249.791 6.38889 249.791 6.19722C249.76 2.5875 246.898 0.031944 242.727 0.031944C239.043 0.031944 236.211 2.14028 236.211 5.39861C236.211 8.72083 238.251 10.5417 242.209 11.9153C246.442 13.3847 248.482 14.3431 248.482 16.9306C248.482 19.0708 246.594 20.6681 243.61 20.6681C240.017 20.6681 237.764 18.7833 237.764 15.5889C237.764 15.3014 237.612 15.2375 237.368 15.2694L235.724 15.525C235.419 15.5889 235.389 15.7167 235.389 15.9403C235.389 20.9236 239.225 23 243.64 23Z" fill="#231F20"/>
<path d="M257 22.5847V0.447222C257 0.255554 256.878 0.127776 256.695 0.127776H254.869C254.686 0.127776 254.564 0.255554 254.564 0.447222V22.5847C254.564 22.7764 254.686 22.9042 254.869 22.9042H256.695C256.878 22.9042 257 22.7764 257 22.5847Z" fill="#231F20"/>
</svg>
