<svg width="302" height="25" viewBox="0 0 302 25" fill="none" xmlns="http://www.w3.org/2000/svg">
<path fill-rule="evenodd" clip-rule="evenodd" d="M5.13621 10.8635H0V23.9008H1.57918V18.7663H4.93688C6.12083 18.7663 6.91128 18.5687 7.70173 17.7765C8.49218 16.9878 8.88569 16.0015 8.88569 14.8158C8.88741 12.8397 7.70345 10.8635 5.13621 10.8635ZM6.71539 16.7885C6.32016 17.1837 5.72733 17.383 4.93688 17.383H1.57918V12.2468H5.13449C6.71367 12.2468 7.50412 13.6318 7.50412 14.8158C7.50584 15.6045 7.11061 16.1991 6.71539 16.7885ZM30.8121 22.5175V17.7765H36.3435V16.1991H30.8121V12.4427H37.5275V10.8635H29.4288V23.9008H37.5275V22.5175H30.8121ZM173.22 22.5175V17.7765H178.75V16.1991H173.22V12.4427H179.936V10.8635H171.837V23.9008H180.133V22.5175H173.22ZM201.663 22.5175V10.8635H200.281V23.9008H207.983V22.5175H201.663ZM229.909 22.5175V10.8635H228.523V23.9008H236.229V22.5175H229.909ZM256.376 23.9008H257.953V10.8635H256.376V23.9008ZM67.5491 23.9008L64.7843 18.1718C65.1778 17.9741 65.573 17.7765 65.9682 17.383C66.561 16.5909 67.1522 15.6045 66.9563 14.6182C66.9563 12.6421 65.3771 10.8635 63.2033 10.8635H58.0689V23.9008H59.4521V18.567H63.4027L65.9699 23.9008H67.5491ZM59.4521 17.1854V12.2468H63.2051C64.9836 12.2468 65.5747 13.6318 65.5747 14.6182C65.5747 15.4069 65.3771 16.0015 64.9819 16.3932C64.5866 16.7885 63.9938 17.1854 63.0075 17.1854H59.4521ZM97.9677 23.9008L95.2028 18.1718C95.5963 17.9741 95.9916 17.7765 96.3868 17.383C96.9796 16.5909 97.3748 15.6045 97.3748 14.6182C97.3748 12.6421 95.7957 10.8635 93.6219 10.8635H88.4874V23.9008H89.8707V18.567H93.8213L96.3885 23.9008H97.9677ZM89.869 17.1854V12.2468H93.6219C95.4004 12.2468 95.9916 13.6318 95.9916 14.6182C95.9916 15.4069 95.794 16.0015 95.3987 16.3932C95.0035 16.7885 94.4107 17.1854 93.4243 17.1854H89.869ZM288.172 14.6182C287.978 12.2468 285.803 10.6676 283.235 10.6676C280.866 10.6676 278.496 11.8533 278.496 14.2229C278.496 15.8038 279.68 16.9878 281.46 17.3847C281.46 17.3847 284.421 18.1735 285.213 18.3711C285.747 18.4395 286.238 18.6957 286.6 19.0937C286.961 19.4918 287.169 20.0056 287.186 20.5431C287.186 22.124 285.411 23.1103 283.433 23.1103C281.46 23.1103 279.68 21.7271 279.482 20.1496H277.902C278.297 22.5192 280.666 24.4919 283.433 24.4919C285.212 24.4919 286.595 23.9008 287.581 22.911C288.172 22.3199 288.568 21.5312 288.568 20.5414C288.568 19.1581 287.581 17.383 285.603 16.9878L281.653 16.0015C280.864 15.8039 279.878 15.2093 279.878 14.2229C279.878 13.8277 280.075 13.2366 280.469 13.039C281.063 12.4444 282.05 12.0526 283.234 12.0526C285.012 12.0526 286.395 13.039 286.791 14.4223L288.172 14.6182ZM128.187 10.8635H126.608L122.855 17.1854L119.102 10.8635H117.521L122.064 18.7663V23.9008H123.446V18.7663L128.187 10.8635ZM297.654 0C295.482 0 293.51 1.7768 293.51 4.14815C293.51 6.51778 295.482 8.29629 297.654 8.29629C300.027 8.29629 302 6.51778 302 4.14815C302 1.77851 300.027 0 297.654 0ZM297.654 0.790448H297.852C299.63 0.790448 301.014 2.17202 301.014 4.14815C301.014 6.12255 299.63 7.50584 297.654 7.50584C295.879 7.50584 294.298 6.12255 294.298 4.14815C294.298 2.17374 295.68 0.790448 297.654 0.790448ZM296.077 1.77852V6.51949H296.866V4.54509H297.654L299.038 6.51949H299.83L298.446 4.34747C299.235 4.34747 299.63 3.75464 299.63 3.16181C299.63 2.17374 299.036 1.77852 298.049 1.77852H296.077ZM296.866 3.75292V2.37135H297.852C298.644 2.37135 298.838 2.56896 298.838 3.16008C298.838 3.5553 298.644 3.75292 298.049 3.75292H296.866Z" fill="#231F20"/>
</svg>
