<svg width="163" height="45" viewBox="0 0 163 45" fill="none" xmlns="http://www.w3.org/2000/svg">
<path d="M28.8048 0.990799V1.43444H32.6533L22.9432 32.6668L11.5456 1.43444H15.3053V0.990799H0V1.43444H4.02615L19.8199 44.6599L33.4082 1.4788H37.0939V1.03516L28.8048 0.990799ZM96.8941 0.251397V15.2613H96.5389C95.9582 12.2886 94.8825 9.43431 93.3564 6.81729C91.4766 3.77095 88.4718 0.354913 84.4752 0.354913C75.4904 0.354913 74.6615 16.4739 74.6615 22.537C74.471 28.063 75.2989 33.5769 77.1038 38.8038C78.584 42.4269 80.5379 44.2015 84.2828 44.2015C85.8146 44.2416 87.3324 43.9004 88.6993 43.2085C90.0662 42.5167 91.2394 41.4959 92.1131 40.2383C92.4672 39.566 92.6213 38.8066 92.5571 38.0496V26.4114H88.605V25.9678H102.993V26.4114H99.6325V43.743H99.3365C98.9569 43.0374 98.3932 42.4476 97.7052 42.0362C97.0172 41.6248 96.2305 41.4072 95.4287 41.4065C94.182 41.4542 92.9665 41.8099 91.891 42.4417L90.9141 42.974C88.8189 44.0214 86.5209 44.6017 84.1792 44.6747C73.0184 44.6747 67.068 32.8442 67.068 22.9362C67.068 15.7345 69.8212 8.00033 75.6532 3.50477C78.2425 1.35874 81.4685 0.126734 84.8305 0C86.1581 0.0483128 87.4644 0.349467 88.679 0.887283L89.5671 1.22741C90.5951 1.66438 91.6928 1.91476 92.8088 1.96681C94.1647 1.81424 95.4384 1.24006 96.4501 0.325337H96.8053L96.8941 0.251397ZM100.299 0.990799H115.545V1.43444H111.519V34.7075C111.519 39.9129 116.892 43.0923 121.584 43.0923C126.646 43.0923 130.909 39.5728 130.909 34.4118V1.43444H126.099V0.990799H162.186V16.4295H161.89C161.446 12.3332 160.646 8.14821 157.834 4.95399C155.022 1.75978 151.114 1.40486 147.147 1.40486H142.854V21.2652C143.74 21.3591 144.629 21.4085 145.519 21.4131C150.922 21.4131 152.328 17.7161 152.55 13.1318H152.949V30.5373H152.55C151.869 26.3966 150.033 21.9159 145.149 21.9159C144.379 21.9159 143.669 21.9159 142.854 22.0342V43.2698H149.279C152.657 43.2185 155.886 41.8679 158.293 39.4989C160.331 37.5001 161.692 34.9148 162.186 32.1048C162.44 30.5435 162.598 28.9681 162.66 27.3874H163V43.6543H132.064V43.2106H135.661V1.39007H131.575V34.5153C131.575 41.3621 125.062 44.3937 118.964 44.3937C112.066 44.3937 104.458 41.0516 104.458 33.1548V1.39007H100.254V0.946435L100.299 0.990799ZM58.2164 22.4778C58.2164 16.2373 55.9961 0.650673 47.5589 0.650673C39.1218 0.650673 36.9015 16.2816 36.9015 22.4778C36.9015 28.674 39.1218 44.3641 47.5589 44.3641C55.9961 44.3641 58.2164 28.7627 58.2164 22.4778ZM47.4553 45C44.9168 44.899 42.4308 44.2459 40.1709 43.0864C37.9109 41.9268 35.9314 40.2887 34.3703 38.2862C30.8662 33.7684 29.0075 28.1925 29.1008 22.4778C29.0333 17.0103 30.7593 11.671 34.0151 7.27572C35.5919 5.10588 37.6434 3.32404 40.0135 2.0658C42.3836 0.807559 45.0098 0.106093 47.6922 0.0147884C50.2081 0.126159 52.6697 0.78301 54.9062 1.93978C57.1427 3.09655 59.1006 4.72554 60.6439 6.71377C64.1608 11.2178 66.0446 16.7805 65.9875 22.4926C66.0367 27.9506 64.3065 33.2763 61.0584 37.6651C59.5024 39.8446 57.4673 41.6389 55.1092 42.9104C52.7512 44.1818 50.1329 44.8967 47.4553 45Z" fill="#231F20"/>
</svg>
