<svg width="172" height="46" viewBox="0 0 172 46" fill="none" xmlns="http://www.w3.org/2000/svg">
<path fill-rule="evenodd" clip-rule="evenodd" d="M165.516 0.000991518V1.35814H168.194V17.2153L160.304 4.35813L157.627 0H147.832V1.35715H150.439V26.0714H147.832V28.0714H154.243V26.0714H152.483V5.35714L160.304 18.6429L165.941 28.0714H170.167V1.35814H172V0.000991518H165.516ZM168.194 26.0724H166.786L160.304 14.9296L152.483 1.35814H155.3L160.304 9.42957L168.194 21.9296V26.0724ZM67.9973 26.0724H63.1354V1.35814H65.0379V0.000991518H53.1297V1.35814H55.7368V26.0724H53.1297V28.0724H74.5503V18.7153H72.6478C72.6478 23.5714 71.7318 26.0724 67.9973 26.0724ZM59.3304 26.0724H57.0756V1.35814H59.3304V26.0724ZM132.824 0.000991518V1.35814H135.36V26.0724H132.824L123.169 0.000991518H115.841L107.175 26.0724H103.089V1.35814H105.555V0.000991518H95.6196L90.4054 11.8581L84.558 0.000991518H75.3978V1.35814H77.0889V26.0724H75.3978V28.0724H81.2462V26.0724H79.1323V5.57242L84.0647 15.2867L88.1516 23.4296L95.6196 5.21528V26.0724H93.9295V28.0724H111.756V26.0724H109.502L112.249 17.1438H118.803L120.704 17.2153L123.734 26.0724H121.198V28.0724H145.436V26.0724H142.829V1.35814H145.436V0.000991518H132.824ZM87.445 18.5724L84.0628 11.5724L79.1304 1.35814H81.667L84.0628 5.85813L88.9951 15.001L87.445 18.5724ZM99.9168 26.0724H97.662V1.35814H99.9168V26.0724ZM118.802 15.2153H112.531L116.265 3.42956L118.802 10.7153L120.352 15.2153H118.802ZM139.799 1.35814V26.0724H137.544V1.35814H139.799ZM125.705 26.0724L118.801 5.92957L117.251 1.35814H120.421L129.229 26.0724H125.705ZM41.5034 0.000991518H34.8799L26.4244 26.0724H24.0992V28.0724H30.5113V26.0724H28.0451L30.7226 17.501H39.8123L42.5603 26.0724H39.8123V28.0724H52.4251V26.0724H50.9454L41.5034 0.000991518ZM43.9696 26.0724L35.9369 1.35814H38.9668L47.4223 26.0724H43.9696ZM31.0045 16.2153L35.1618 3.42956L39.3191 16.2153H31.0045ZM20.3647 13.6438C22.9718 11.8581 23.465 9.71528 23.465 7.28671C23.465 4.85814 21.5625 0.000991518 17.5461 0.000991518H0V1.35814H2.67758V26.0724H0.000979042V28.0724H17.5471C20.6475 28.0724 24.1001 24.9296 24.1001 20.7867C24.0992 16.7153 22.8308 15.4296 20.3647 13.6438ZM10.0067 1.35814H14.2344C14.7981 1.35814 15.2209 2.14385 15.5732 3.14385C16.0664 4.50099 16.2778 6.28671 16.2778 7.28671C16.2778 8.00099 15.996 9.00099 15.5732 10.001C15.0095 11.4296 14.0935 12.7153 13.1775 12.6439H10.0067V1.35814ZM7.11769 26.0724H4.86289V1.35814H7.11769V26.0724ZM15.5732 24.9296C15.2913 25.6448 14.7981 26.0724 14.2344 26.0724H10.0067V14.6438H12.9661C13.9526 14.6438 14.939 16.001 15.5732 17.5724C16.0664 18.7153 16.3483 19.9286 16.3483 20.7867C16.3483 22.2153 16.1369 23.8581 15.5732 24.9296L16.3483 26.0724C17.6166 24.501 17.7575 23.2867 17.7575 20.7867C17.7575 18.7153 16.8415 16.2867 15.5732 14.5724C15.3733 14.2372 15.1369 13.9257 14.8686 13.6438C15.08 13.2867 15.3618 13.001 15.5732 12.7153C16.8415 11.0724 17.7575 9.14385 17.7575 7.28671C17.7575 5.07242 16.912 3.28671 16.3483 1.35814C18.8849 2.14385 20.7874 4.21528 20.7874 7.28671C20.7874 10.2867 18.4622 11.8581 15.6437 13.6438C18.8145 15.4296 20.7874 17.2867 20.7874 20.7867C20.7874 24.2867 19.2372 25.4306 16.3483 26.0724L15.5732 24.9296ZM65.8834 37.4296C65.4411 37.1243 64.9343 36.9286 64.4037 36.8581C64.1923 36.8581 63.9105 36.7867 63.6286 36.7867H62.1489V45.7153H62.9945V41.7867H63.7696C63.9809 41.7867 64.1923 41.7867 64.4037 41.7163C64.9674 41.6448 65.4607 41.501 65.8834 41.2153C66.3767 40.8591 66.6585 40.2153 66.6585 39.2877C66.6585 38.3581 66.3767 37.7857 65.8834 37.4296ZM65.3902 40.6438C65.1788 40.7867 64.8265 40.9286 64.4037 41H62.9945V37.5714H63.6991C63.9809 37.5714 64.1923 37.5714 64.4037 37.6429C65.3902 37.7857 65.813 38.3571 65.813 39.2857C65.813 39.9296 65.672 40.3581 65.3902 40.6438ZM109.923 41.2153C109.762 41.0563 109.57 40.9348 109.359 40.8591C109.076 40.7153 108.795 40.502 108.302 40.2877C107.668 39.8581 107.315 39.3581 107.315 38.7877C107.315 38.2867 107.457 37.9305 107.738 37.7163C108.019 37.502 108.302 37.3591 108.725 37.3591C109.288 37.3591 109.711 37.6448 110.062 38.1448L110.626 37.7163C110.345 37.2163 110.062 36.9306 109.782 36.7867C109.43 36.6438 109.147 36.6438 108.725 36.6438C108.09 36.6438 107.526 36.7867 107.174 37.2153C106.752 37.6438 106.54 38.1438 106.54 38.7867C106.54 39.2153 106.611 39.501 106.823 39.7867C107.104 40.1429 107.387 40.4286 107.668 40.7153C107.951 40.8591 108.302 41.0724 108.867 41.4296C109.36 41.7163 109.641 41.9305 109.783 42.001C110.134 42.3581 110.276 42.7867 110.276 43.4296C110.276 44.001 110.134 44.501 109.783 44.8581C109.502 45.1429 109.077 45.2867 108.584 45.2867C107.668 45.2867 107.175 44.8581 106.823 43.9296L106.189 44.2867C106.47 45.001 106.823 45.4286 107.246 45.6429C107.669 45.8581 108.09 46 108.584 46C109.147 46 109.641 45.8571 110.063 45.5714C110.417 45.3571 110.627 45 110.84 44.6419C110.981 44.2133 111.052 43.7857 111.052 43.3562C111.051 42.5 110.697 41.7867 109.923 41.2153ZM76.6642 36.7143L73.0001 45.7143H73.7752L74.9026 42.7153H78.4258L79.4827 45.7143H80.3282L76.7347 36.5L76.6642 36.7143ZM76.6642 42.0724H75.1845L76.6642 38.2153V38.1439L78.1439 42.0724H76.6642ZM98.8599 45.7153H99.7045V36.7867H98.8599V45.7153ZM88.9951 41.501H89.0656C89.5588 41.4296 90.1225 41.2867 90.5453 40.9296C90.9681 40.5734 91.1795 40.001 91.1795 39.2877C91.1795 37.7867 90.4739 37.001 89.0656 36.8591C88.8532 36.8591 88.7143 36.7877 88.5019 36.7877H86.9517V45.7163H87.7278V41.502H88.1506L89.0666 42.7877L91.11 45.7163H92.0965L89.0666 41.5734L88.9951 41.501ZM87.7278 40.8581V37.5724H89.0656C89.4169 37.6438 89.6998 37.7163 89.9102 37.9296C90.2635 38.1438 90.4034 38.6438 90.4034 39.2153C90.4034 39.9296 90.193 40.3581 89.8417 40.5724C89.6293 40.6438 89.3465 40.7153 89.0656 40.7867C88.8532 40.7867 88.5724 40.8581 88.2915 40.8581H87.7278Z" fill="#231F20"/>
</svg>
