<svg width="200" height="44" viewBox="0 0 200 44" fill="none" xmlns="http://www.w3.org/2000/svg">
<path d="M6.09666 22.7251V3.02648H0V0.391041H14.6715V3.02648H8.54602V22.7251H6.09666ZM17.3802 22.7251V0.391041H19.8296V9.56416H29.45V0.391041H31.8994V22.7251H29.45V12.1996H19.8296V22.7251H17.3802ZM36.9875 11.8859C36.9875 14.6395 37.6009 16.778 38.8276 18.3014C40.0543 19.8208 41.5445 20.5784 43.3023 20.5784C45.0971 20.5784 46.6038 19.8126 47.8223 18.277C49.0367 16.7413 49.646 14.4847 49.646 11.5071C49.646 9.58452 49.329 7.86966 48.7074 6.35438C48.2257 5.19756 47.5012 4.26884 46.5297 3.5723C45.5623 2.87577 44.5002 2.52953 43.3517 2.52953C41.5034 2.52953 39.9844 3.28717 38.7864 4.81874C37.5844 6.33809 36.9875 8.69654 36.9875 11.8859ZM34.464 11.8493C34.464 8.04074 35.312 5.11202 37.0039 3.06721C38.7 1.02241 40.8077 0 43.3311 0C44.9654 0 46.4515 0.456212 47.7935 1.36864C49.1396 2.28106 50.2058 3.60897 50.988 5.35235C51.7742 7.09573 52.1653 9.16904 52.1653 11.5804C52.1653 14.8921 51.4037 17.5845 49.8847 19.666C48.2134 21.9633 46.0193 23.1079 43.3106 23.1079C40.5771 23.1079 38.383 21.9348 36.7199 19.5764C35.2174 17.442 34.464 14.8676 34.464 11.8493ZM55.2034 22.7251V0.391041H58.8877L63.2801 16.2037L64.161 19.5112C64.3751 18.6843 64.7044 17.4949 65.149 15.9308L69.5867 0.391041H72.88V22.7251H70.5253V4.04481L65.1284 22.7251H62.9261L57.5622 3.72302V22.7251H55.2034ZM85.6908 20.0896H90.3013C91.3181 20.0896 92.0673 20 92.5531 19.8167C93.2488 19.556 93.784 19.1202 94.1462 18.5173C94.5126 17.9104 94.6937 17.1487 94.6937 16.2362C94.6937 15.3931 94.5167 14.6802 94.1709 14.0978C93.821 13.5153 93.3476 13.0835 92.7589 12.8187C92.1703 12.554 91.2399 12.4155 89.9761 12.4155H85.6866V20.0896H85.6908ZM85.6908 9.78004H89.7003C90.75 9.78004 91.4951 9.7108 91.9356 9.56823C92.5737 9.35234 93.0636 8.99389 93.4093 8.49287C93.7551 7.98778 93.9239 7.30754 93.9239 6.44399C93.9239 5.64155 93.7675 4.96945 93.4546 4.43992C93.1418 3.90632 92.7219 3.53972 92.2073 3.33605C91.6845 3.13238 90.75 3.03055 89.4039 3.03055H85.6866V9.78004H85.6908ZM83.2414 22.7251V0.391041H90.1943C91.6022 0.391041 92.7136 0.602852 93.537 1.0387C94.3603 1.47047 95.0313 2.14257 95.5582 3.05499C96.081 3.97149 96.3445 4.9776 96.3445 6.08554C96.3445 7.11202 96.1181 8.03666 95.6652 8.8554C95.2124 9.67821 94.5743 10.3381 93.7551 10.835C94.8255 11.2179 95.6735 11.8778 96.291 12.8106C96.9084 13.7434 97.2172 14.888 97.2172 16.2485C97.2172 17.6008 96.9373 18.7861 96.3774 19.8086C95.8175 20.831 95.0724 21.5723 94.138 22.0326C93.2035 22.4969 91.9233 22.7291 90.289 22.7291H83.2414M103.013 10.2485H108.278C109.427 10.2485 110.3 10.11 110.897 9.833C111.489 9.56009 111.963 9.12831 112.313 8.54175C112.663 7.95112 112.835 7.27088 112.835 6.48473C112.835 5.35642 112.502 4.46843 111.835 3.82892C111.168 3.18127 110.176 2.85947 108.863 2.85947H103.013V10.2485ZM100.564 22.7251V0.391041H108.772C110.489 0.391041 111.753 0.59878 112.568 1.01426C113.383 1.42974 114.05 2.1222 114.577 3.09165C115.1 4.0611 115.363 5.18534 115.363 6.46436C115.363 8.15072 114.918 9.5112 114.029 10.5621C113.14 11.6049 111.852 12.2688 110.16 12.554C110.847 12.9613 111.37 13.3768 111.732 13.7963C112.461 14.6477 113.103 15.5967 113.655 16.6436L116.89 22.721H113.811L111.341 18.0733C110.386 16.2566 109.662 15.0346 109.176 14.4073C108.69 13.776 108.221 13.3523 107.764 13.1324C107.307 12.9124 106.665 12.8065 105.85 12.8065H103.017V22.7251H100.564ZM120.171 11.8859C120.171 14.6395 120.785 16.778 122.011 18.3014C123.242 19.8208 124.732 20.5784 126.486 20.5784C128.281 20.5784 129.788 19.8126 131.002 18.277C132.216 16.7413 132.826 14.4847 132.826 11.5071C132.826 9.58452 132.513 7.86966 131.887 6.35438C131.405 5.19756 130.681 4.26884 129.709 3.5723C128.742 2.87577 127.68 2.52953 126.531 2.52953C124.683 2.52953 123.16 3.28717 121.966 4.81874C120.772 6.33809 120.171 8.69654 120.171 11.8859ZM117.648 11.8493C117.648 8.04074 118.496 5.11202 120.188 3.06721C121.884 1.02241 123.991 0 126.519 0C128.149 0 129.639 0.456212 130.981 1.36864C132.323 2.28106 133.39 3.60897 134.176 5.35235C134.958 7.09573 135.353 9.16904 135.353 11.5804C135.353 14.8921 134.596 17.5845 133.077 19.666C131.405 21.9633 129.211 23.1079 126.503 23.1079C123.769 23.1079 121.571 21.9348 119.912 19.5764C118.401 17.442 117.648 14.8676 117.648 11.8493ZM140.853 22.7251L135.925 0.391041H138.432L141.252 15.0306C141.557 16.5458 141.816 18.0692 142.039 19.6008L142.87 15.4705L146.394 0.391041H149.366L152.009 11.6945C152.651 14.444 153.133 17.0835 153.45 19.6008C153.684 18.1426 153.993 16.5295 154.359 14.7413L157.274 0.38697H159.736L154.652 22.721H152.297L148.386 5.70672L147.802 3.08351C147.625 4.05703 147.448 4.93687 147.262 5.70672L143.339 22.721H140.853M161.946 22.7251V0.391041H164.462L174.189 17.9593V0.391041H176.527V22.7251H174.016L164.301 5.14868V22.7251H161.946ZM179.829 22.7251V0.391041H193.208V3.02648H182.278V9.85336H192.516V12.4847H182.274V20.0855H193.636V22.721H179.829M197.415 19.6049H200V22.7251H197.415V19.6049ZM63.807 43.7841V31.0998H65.2313L70.7599 41.0754V31.0998H72.0896V43.7841H70.6652L65.149 33.8004V43.7841H63.807ZM73.7115 43.7841V31.0998H81.3107V32.5988H75.1029V36.4766H80.9155V37.9715H75.1029V42.2933H81.5577V43.7882H73.7115M85.4479 43.7841L82.6486 31.0998H84.0688L85.6743 39.4134C85.8431 40.2688 85.9913 41.1365 86.1189 42.0081L86.5882 39.6619L88.5888 31.0957H90.2807L91.7792 37.5153C92.1456 39.0794 92.4173 40.5743 92.5984 42.0041C92.7342 41.1813 92.903 40.2566 93.1171 39.2464L94.7719 31.0957H96.1716L93.2817 43.78H91.9438L89.7209 34.114L89.3875 32.6273C89.2969 33.1242 89.1981 33.6212 89.0828 34.114L86.8516 43.78H85.4479M104.94 43.7841V38.4114L100.889 31.0998H102.589L104.656 34.9287C105.039 35.6334 105.397 36.3503 105.73 37.0754C106.039 36.4114 106.422 35.666 106.879 34.835L108.925 31.0998H110.53L106.331 38.4114V43.7841H104.94ZM111.806 37.6253C111.806 39.1894 112.152 40.4033 112.852 41.2668C113.552 42.1303 114.396 42.558 115.392 42.558C116.413 42.558 117.265 42.1263 117.957 41.2505C118.648 40.3788 118.994 39.0957 118.994 37.4053C118.994 36.3177 118.817 35.3401 118.463 34.4807C118.187 33.8208 117.775 33.2953 117.224 32.9002C116.672 32.5051 116.071 32.3055 115.417 32.3055C114.371 32.3055 113.502 32.7413 112.827 33.6049C112.148 34.4766 111.806 35.8167 111.806 37.6253ZM110.374 37.6049C110.374 35.446 110.851 33.78 111.815 32.6232C112.774 31.4582 113.976 30.8758 115.408 30.8758C116.335 30.8758 117.183 31.1365 117.944 31.6578C118.71 32.1751 119.311 32.9287 119.76 33.9145C120.204 34.9083 120.426 36.0855 120.426 37.4501C120.426 39.332 119.998 40.8635 119.134 42.0448C118.183 43.3483 116.936 44 115.4 44C113.848 44 112.605 43.3279 111.658 41.9959C110.802 40.7821 110.374 39.3198 110.374 37.6049ZM123.156 36.7006H126.144C126.799 36.7006 127.293 36.6191 127.63 36.4644C127.968 36.3096 128.236 36.0611 128.433 35.7312C128.631 35.3971 128.73 35.0061 128.73 34.5621C128.73 33.9226 128.54 33.4216 128.162 33.0509C127.783 32.6884 127.219 32.4969 126.474 32.4969H123.152V36.7006H123.156ZM121.764 43.7841V31.0998H126.424C127.396 31.0998 128.116 31.2138 128.577 31.4542C129.038 31.6904 129.421 32.0855 129.718 32.6354C130.014 33.1853 130.162 33.8208 130.162 34.5499C130.162 35.5031 129.911 36.2811 129.405 36.8717C128.903 37.4664 128.166 37.8411 127.206 38.0041C127.598 38.2362 127.894 38.4766 128.1 38.7088C128.52 39.2057 128.886 39.7515 129.191 40.3259L131.027 43.78H129.277L127.877 41.1446C127.334 40.11 126.922 39.4175 126.647 39.0591C126.367 38.7047 126.103 38.4603 125.844 38.334C125.585 38.2118 125.222 38.1507 124.753 38.1507H123.148V43.78H121.764M132.093 43.7841V31.0998H133.484V37.389L138.704 31.0998H140.594L136.181 36.2444L140.787 43.7841H138.951L135.217 37.3686L133.488 39.389V43.7841H132.093Z" fill="#231F20"/>
</svg>
