<svg width="157" height="37" viewBox="0 0 157 37" fill="none" xmlns="http://www.w3.org/2000/svg">
<path d="M12.3388 8.00591C10.4241 8.00591 9.99864 8.8714 9.99864 10.6024V13.6316H14.8916L14.4661 18.6082H9.99864V33.5381H4.04201V18.6082H0V13.6316H4.04201V10.6024C4.04201 5.62579 5.95664 3.0293 11.4878 3.0293H14.8916V7.57316L12.3388 8.00591ZM15.3171 22.9357C15.3171 17.31 17.8699 13.1989 23.4011 13.1989C26.3794 13.1989 28.0813 14.7135 28.9322 16.6609V13.6316H34.6762V33.5381H28.9322V30.5088C28.0813 32.4562 26.1667 33.9708 23.4011 33.9708C17.8699 33.9708 15.3171 29.8597 15.3171 24.234V22.9357ZM21.2737 24.234C21.2737 27.2632 22.3374 29.2106 25.103 29.2106C27.8686 29.2106 28.7195 27.4796 28.7195 24.6667V22.7194C28.7195 19.9065 27.4431 18.1755 25.103 18.1755C22.7629 18.1755 21.2737 20.1229 21.2737 23.1521V24.234ZM47.0149 13.1989C49.355 13.1989 51.4824 13.6316 52.7588 14.4971L51.4824 18.8246C50.2152 18.2336 48.8343 17.9379 47.4404 17.9591C44.2493 17.9591 42.7602 19.9065 42.7602 23.1521V24.234C42.7602 27.4796 44.2493 29.427 47.4404 29.427C48.8343 29.4482 50.2152 29.1525 51.4824 28.5615L52.7588 32.8889C51.4824 33.7544 49.355 34.1872 47.0149 34.1872C39.9946 34.1872 36.8035 30.2925 36.8035 24.234V23.3685C36.8035 17.0936 39.9946 13.1989 47.0149 13.1989ZM53.397 24.4503V22.7194C53.397 17.0936 56.5881 13.4153 62.9702 13.4153C69.3523 13.4153 71.6924 17.0936 71.6924 22.7194V25.965H59.3537C59.5664 28.7778 60.6301 29.8597 64.0339 29.8597C67.4377 29.8597 68.5014 29.427 70.416 28.5615L71.4797 32.6726C69.9905 33.5381 66.7995 34.1872 63.8211 34.1872C56.1626 33.9708 53.397 30.2925 53.397 24.4503ZM59.3537 21.8539H66.5867V21.4211C66.5867 19.2574 65.7358 17.5264 63.1829 17.5264C60.6301 17.5264 59.3537 19.041 59.3537 21.8539ZM93.6043 24.234C93.6043 29.8597 91.0515 33.9708 85.5203 33.9708C82.542 33.9708 80.4146 32.4562 79.7764 30.5088V33.5381H74.2453V3.67842L80.2019 3.0293V16.2281C81.0528 14.4971 82.9675 12.9825 85.7331 12.9825C91.2642 12.9825 93.8171 17.0936 93.8171 22.7194L93.6043 24.234ZM87.6477 22.9357C87.6477 20.1229 86.584 17.9591 83.8184 17.9591C81.0528 17.9591 79.9892 19.6901 79.9892 22.503V24.6667C79.9892 27.4796 81.2656 29.2106 83.8184 29.2106C86.3713 29.2106 87.6477 27.0468 87.6477 24.234V22.9357ZM95.7317 24.0176V22.9357C95.7317 17.31 98.9228 12.9825 105.518 12.9825C112.112 12.9825 115.304 17.0936 115.304 22.9357V24.0176C115.304 29.6433 112.112 33.9708 105.518 33.9708C98.9228 33.9708 95.7317 29.8597 95.7317 24.0176ZM109.347 22.503C109.347 19.9065 108.283 17.7427 105.518 17.7427C102.752 17.7427 101.688 19.9065 101.688 22.503V24.4503C101.688 27.0468 102.752 29.2106 105.518 29.2106C108.283 29.2106 109.347 27.0468 109.347 24.4503V22.503ZM117.005 24.0176V22.9357C117.005 17.31 120.196 12.9825 126.791 12.9825C133.386 12.9825 136.577 17.0936 136.577 22.9357V24.0176C136.577 29.6433 133.386 33.9708 126.791 33.9708C120.196 33.9708 117.005 29.8597 117.005 24.0176ZM130.621 22.503C130.621 19.9065 129.557 17.7427 126.791 17.7427C124.026 17.7427 122.962 19.9065 122.962 22.503V24.4503C122.962 27.0468 124.026 29.2106 126.791 29.2106C129.557 29.2106 130.621 27.0468 130.621 24.4503V22.503ZM144.661 23.1521L150.405 13.6316H156.787L150.618 23.3685L157 33.5381H150.831L144.661 23.8012V33.5381H138.705V3.67842L144.661 3.0293V23.1521Z" fill="#231F20"/>
</svg>
