<svg width="94" height="50" viewBox="0 0 94 50" fill="none" xmlns="http://www.w3.org/2000/svg">
<g clip-path="url(#clip0_2241_11084)">
<path d="M0.0076283 0.00767931C31.321 0.00767931 62.6345 0.0255977 93.9453 0C94.0206 1.95822 94.0128 3.92157 93.9557 5.87979C62.6423 5.86699 31.3288 5.86699 0.0180219 5.87979C-0.013159 3.92413 0.0050299 1.9659 0.0076283 0.00767931Z" fill="#231F20"/>
<path d="M15.4177 8.89444C19.1464 8.61799 22.9661 9.68797 26.0088 11.8254C29.6414 14.3365 32.1878 18.3349 32.84 22.6634C33.4169 26.3188 32.6893 30.1713 30.7613 33.3505C28.6722 36.8932 25.1773 39.6014 21.1862 40.7585C17.2885 41.9206 12.9492 41.5648 9.30363 39.7755C5.80877 38.1193 2.97911 35.1807 1.40447 31.6969C-0.333861 27.8495 -0.463781 23.3213 1.06928 19.3869C3.26493 13.5558 9.09056 9.21953 15.4177 8.89444ZM15.2904 17.334C12.9128 17.6642 10.7639 19.1642 9.56867 21.2044C8.15514 23.5594 8.13435 26.6644 9.52969 29.0322C11.2291 32.068 15.0747 33.7626 18.489 32.8155C22.1891 31.9477 24.9149 28.2233 24.5095 24.4834C24.2523 20.0781 19.7051 16.5149 15.2904 17.334Z" fill="#231F20"/>
<path d="M37.5059 10.3126C39.0806 8.89452 41.3672 8.70765 43.3939 8.90732C44.836 8.99435 46.4133 9.35783 47.3825 10.4969C48.3491 11.6002 48.6973 13.0541 49.0662 14.4287C49.8432 17.4339 50.6591 20.4314 51.4256 23.4391C52.413 20.1217 53.2627 16.7658 54.1851 13.4304C54.632 11.8306 55.4245 10.0669 57.1109 9.43207C58.9038 8.76141 60.902 8.71277 62.778 9.01739C64.4748 9.3092 65.9923 10.4176 66.7068 11.9688C67.9541 14.4159 67.5591 17.2215 67.5799 19.858C67.5903 26.8718 67.5591 33.8856 67.5617 40.8993C64.7087 40.9224 61.8556 40.9044 59.0026 40.9096C58.9792 34.8224 59.0129 28.7353 58.987 22.6482C57.6176 27.7831 56.4275 32.964 55.0478 38.0989C54.6528 39.2816 54.2553 40.8046 52.9119 41.25C51.7946 41.5316 50.4798 41.5802 49.4742 40.948C48.492 40.1724 48.201 38.8822 47.8424 37.7559C46.5068 32.7516 45.4363 27.6807 44.0695 22.6866C44.2228 24.5578 43.9941 26.4289 44.0409 28.3027C44.0149 32.511 44.0903 36.7243 44.0045 40.9326C41.1385 40.8917 38.2724 40.9019 35.4064 40.9275C35.3103 32.5417 35.4064 24.1508 35.396 15.7624C35.448 13.799 36.017 11.7 37.5059 10.3126Z" fill="#231F20"/>
<path d="M75.2772 10.7163C78.0705 8.88857 81.6485 8.50205 84.8887 9.13431C88.5005 9.86641 91.7485 12.3571 93.1412 15.7488C94.1676 18.1882 94.1312 20.9323 93.6064 23.4844C93.0477 26.0851 91.4523 28.5271 89.0358 29.7942C85.9437 31.5733 82.2487 31.453 78.7902 31.4862C78.7902 34.6296 78.8032 37.7756 78.7824 40.9215C75.9294 40.8371 73.0555 41.0495 70.2129 40.8115C70.2727 35.7943 70.2207 30.7772 70.2389 25.76C70.2701 22.9443 70.0518 20.0773 70.8027 17.3256C71.4549 14.7069 72.949 12.2086 75.2772 10.7163ZM79.7153 18.1038C78.4654 19.3222 78.85 21.2318 78.8032 22.7958C79.9673 22.7677 81.1418 22.8649 82.3007 22.7241C83.2543 22.5885 84.3144 22.1175 84.6159 21.1371C84.8055 20.3103 84.6159 19.4041 84.1845 18.6797C83.2283 17.2846 81.0483 17.2821 79.7153 18.1038Z" fill="#231F20"/>
<path d="M0.0100896 49.9932C0.00229438 48.0375 -0.00809925 46.0793 0.0230816 44.1211C31.3339 44.1441 62.6447 44.1339 93.9555 44.1288C94.0257 46.0844 93.9711 48.0427 93.9555 50.0009C62.6395 49.9906 31.3261 50.006 0.0100896 49.9932Z" fill="#231F20"/>
</g>
<defs>
<clipPath id="clip0_2241_11084">
<rect width="94" height="50" fill="white"/>
</clipPath>
</defs>
</svg>
