<svg width="191" height="43" viewBox="0 0 191 43" fill="none" xmlns="http://www.w3.org/2000/svg">
<g clip-path="url(#clip0_2241_11147)">
<path d="M22.2481 0H23.106C23.9388 0.190103 24.7027 0.699087 25.0409 1.49016C25.8518 3.25321 25.6389 5.29221 25.0878 7.09819C24.3552 9.42848 23.2281 11.679 21.5468 13.4973C20.9112 14.1994 20.1066 14.7544 19.1955 15.0549C20.116 14.3497 21.168 13.7671 21.8223 12.789C22.8649 11.4552 23.3189 9.58179 22.5455 8.01804C21.9851 6.65359 20.3946 5.9637 20.0314 4.49501C19.5086 2.75342 20.3257 0.499786 22.2481 0ZM36.4749 0H39.3647C42.8713 0.643896 45.6954 3.1183 47.5144 6.02196C50.6422 10.9708 51.7474 16.9283 51.5846 22.6835C51.3811 28.1076 50.016 33.6696 46.7223 38.1186C44.9784 40.5041 42.4424 42.3622 39.4868 43L39.8813 43.0031H37.1324C35.7141 42.6995 34.3146 42.2181 33.1186 41.3964C30.1286 39.3758 28.1749 36.2023 26.885 32.9399C24.6025 26.9792 24.3051 20.3686 25.6389 14.1596C26.5969 9.96506 28.3471 5.75214 31.5844 2.74116C33.0434 1.35218 34.922 0.478323 36.8819 0.00613234L36.4749 0ZM37.3547 0.285154C35.5513 0.398602 34.0516 1.64653 33.2908 3.19802C31.8725 5.97597 31.5437 9.13413 31.2338 12.185C30.8518 16.7106 30.8831 21.2608 30.9489 25.7988C31.0271 28.8435 31.1524 31.8974 31.6596 34.9084C32.029 36.9903 32.6145 39.1182 33.9201 40.8414C35.9082 43.555 40.6797 43.5059 42.6052 40.7494C43.8951 38.9986 44.4618 36.8615 44.8218 34.7612C45.304 31.8023 45.4324 28.8067 45.5106 25.8172C45.5795 21.1075 45.6077 16.3826 45.1756 11.6882C44.9377 9.32116 44.6183 6.93568 43.8231 4.67591C43.3096 3.3084 42.5926 1.91329 41.3372 1.0609C40.1819 0.285154 38.7135 0.156375 37.3547 0.285154ZM118.692 0H120.818C122.524 0.475257 124.149 1.24487 125.909 1.52082C126.964 1.70786 128.298 1.17434 128.404 0H128.492C128.673 2.70436 128.545 5.41486 128.586 8.12229C128.545 10.0294 128.686 11.9458 128.486 13.8468C128.266 10.1858 127.048 6.57081 124.86 3.57822C123.805 2.19231 122.502 0.809469 120.74 0.346477C119.002 0.00613234 117.014 0.512051 115.862 1.88876C114.494 3.5077 113.946 5.61109 113.535 7.6317C112.712 12.1267 112.656 16.7106 112.621 21.267C112.637 25.7436 112.693 30.2447 113.404 34.6753C113.77 36.7205 114.227 38.8269 115.411 40.5839C117.02 42.9632 120.683 43.5396 123.057 41.9299C125.693 40.2159 127.196 37.2969 128.141 34.427C128.899 32.1733 129.124 29.8001 129.284 27.4453C129.425 31.3547 129.306 35.2702 129.343 39.1857C129.378 40.4551 129.249 41.7367 129.44 43H129.134C129.149 42.0526 128.326 41.1235 127.327 41.1664C126.269 41.1879 125.279 41.5957 124.296 41.9391C123.351 42.3101 122.346 42.5125 121.45 42.9969L121.5 43H118.921C115.602 42.4021 112.828 40.1975 110.999 37.4901C107.847 32.8694 106.585 27.2245 106.525 21.7269C106.522 16.125 107.696 10.3483 110.837 5.58657C112.628 2.85154 115.376 0.619367 118.692 0ZM0 0.971977C3.98562 0.959712 7.97125 0.984241 11.9569 0.956646C12.511 0.959712 13.0621 1.0057 13.6006 1.12529C12.2355 1.30006 10.8611 1.19887 9.48973 1.22954C9.47721 14.7422 9.47408 28.2517 9.49286 41.7643C11.1835 41.7521 12.8774 41.8318 14.5618 41.7275C16.8348 41.5344 18.7853 40.0565 20.0001 38.229C22.054 35.2242 22.6583 31.5478 22.843 28.0033C22.987 29.1777 22.9463 30.3582 22.9463 31.5356C22.94 35.031 22.9526 38.5265 22.94 42.0219C15.2913 42.0372 7.64877 42.028 0 42.028V41.7766C1.29932 41.7735 2.59864 41.7827 3.89796 41.7643C3.9324 28.2548 3.92614 14.7422 3.90109 1.23567C2.60177 1.21727 1.29932 1.22647 0 1.2234V0.971977ZM49.9033 0.96891C57.1826 0.971977 64.4588 0.962778 71.7381 0.975043C71.76 4.47661 71.7318 7.97818 71.7538 11.4767C71.76 12.0777 71.7225 12.6817 71.6254 13.2765C71.5033 10.146 70.8489 6.92342 69.008 4.30184C67.8996 2.71663 66.187 1.38898 64.1676 1.25713C62.5615 1.18967 60.9459 1.22034 59.3366 1.25406C59.3085 7.78808 59.3304 14.3221 59.3241 20.853C60.9522 20.9542 62.5771 20.2981 63.5884 19.0348C65.1319 17.3116 65.5421 14.9905 65.7831 12.789C65.9334 17.0448 65.8082 21.3099 65.8489 25.5688C65.8332 26.7432 65.9021 27.9206 65.7894 29.0918C65.5389 26.9884 65.1664 24.7808 63.7543 23.0852C62.7462 21.7146 61.0524 20.9358 59.3304 21.0431C59.3241 27.9451 59.3147 34.847 59.3366 41.749C60.7048 41.8287 62.0824 41.703 63.4506 41.8532C62.5802 42.1721 61.6347 42.0004 60.733 42.0341C57.0636 41.9912 53.3911 42.1231 49.7279 41.9667C51.0398 41.5681 52.4456 41.8839 53.7981 41.7551C53.8044 28.2517 53.8106 14.7483 53.7918 1.24793C52.4894 1.21114 51.1869 1.2326 49.8876 1.22647L49.9033 0.96891ZM72.1263 0.96891C79.4088 0.96891 86.6912 0.962778 93.9768 0.971977C94.0175 4.47661 93.9706 7.98431 94.0019 11.4889C94.0175 12.0777 93.9518 12.6633 93.7984 13.2305C93.814 10.1092 93.0376 6.90809 91.2404 4.29571C90.129 2.7013 88.3882 1.37058 86.3562 1.251C84.7626 1.18967 83.169 1.22034 81.5754 1.24793C81.5628 7.78808 81.5441 14.3282 81.5848 20.8684C82.7494 20.8469 83.9705 20.6537 84.8941 19.8995C87.0638 18.2284 87.8591 15.4167 87.9405 12.8197C88.1346 13.7916 88.0688 14.782 88.072 15.7663C88.072 19.1881 88.072 22.613 88.072 26.0349C88.0657 27.0467 88.1408 28.0677 87.9436 29.0673C87.8497 26.5193 87.0763 23.7966 85.0131 22.104C84.0644 21.2915 82.7933 21.0155 81.5628 21.0431C81.5628 27.9451 81.5472 34.8501 81.5722 41.749C82.9342 41.8839 84.3493 41.5589 85.6706 41.9606C81.1621 42.1169 76.6411 41.9851 72.1295 42.028L72.1201 41.7735C73.4257 41.7674 74.7312 41.7919 76.0337 41.7459C76.04 28.2456 76.0493 14.7452 76.0306 1.24487C74.7312 1.20807 73.4319 1.22647 72.1357 1.22034L72.1263 0.96891ZM94.3713 0.96891C97.9593 0.965844 101.547 0.971977 105.135 0.96891C106.068 0.971977 107.008 0.925984 107.937 1.0425C106.616 1.41657 105.214 1.13755 103.861 1.22647C103.823 14.7391 103.82 28.2578 103.861 41.7705C105.214 41.8624 106.613 41.5742 107.928 41.9514C105.217 42.1261 102.49 41.979 99.7721 42.028C97.9186 41.9912 96.0557 42.1047 94.2054 41.9636C95.5047 41.5497 96.9136 41.8808 98.2599 41.7643C98.2849 28.2548 98.2787 14.7452 98.263 1.23873C96.9637 1.2142 95.6644 1.22647 94.3651 1.2234L94.3713 0.96891ZM129.622 0.971977C133.739 0.962778 137.856 0.981175 141.973 0.959712C142.377 0.950513 142.784 0.987307 143.157 1.15901C141.807 1.29392 140.452 1.18661 139.102 1.2418C139.084 14.7452 139.084 28.2517 139.102 41.7582C140.402 41.7889 141.704 41.7735 143.007 41.7766L142.991 42.0311C138.533 42.0311 134.074 42.0342 129.613 42.028L129.619 41.7766C130.912 41.7735 132.208 41.7797 133.501 41.7705C133.536 28.2578 133.536 14.7391 133.501 1.22647C132.205 1.22034 130.903 1.22647 129.606 1.22034L129.622 0.971977ZM143.461 1.0333C147.271 0.88919 151.091 1.01184 154.904 0.971977C158.407 0.990374 161.911 0.935182 165.414 0.999572C165.577 2.17392 165.433 3.36972 165.48 4.55327C165.439 7.4508 165.565 10.3545 165.411 13.2489C165.161 11.9427 165.214 10.5906 164.863 9.29663C164.218 6.56467 162.979 3.71927 160.505 2.12179C158.31 0.711352 155.571 1.38898 153.11 1.23873C153.05 7.77581 153.097 14.3129 153.085 20.853C154.406 20.9052 155.818 20.7304 156.861 19.8596C159.009 18.1763 159.747 15.3952 159.907 12.8166C160.029 16.6646 159.923 20.5219 159.957 24.373C159.929 25.9245 160.02 27.4821 159.91 29.0336C159.726 26.4641 158.962 23.6923 156.801 22.0304C155.768 21.1811 154.381 21.0094 153.082 21.0615C153.097 27.9666 153.044 34.8746 153.11 41.7797C155.674 41.6662 158.376 42.1629 160.812 41.1542C163.173 40.1914 164.888 38.137 165.925 35.8987C167.002 33.6114 167.44 31.0818 167.484 28.5767C167.609 29.1532 167.659 29.7419 167.65 30.3336C167.625 34.2338 167.662 38.1371 167.631 42.0372C160.461 42.0434 153.292 42.0372 146.122 42.0403C145.233 42.0403 144.343 42.074 143.461 41.979C144.769 41.5589 146.194 41.8992 147.553 41.7674C147.571 28.2609 147.581 14.7544 147.546 1.24793C146.188 1.11609 144.769 1.45337 143.461 1.0333ZM167.866 1.0609C170.53 0.858528 173.21 1.0241 175.884 0.96891C177.81 1.01797 179.744 0.855462 181.664 1.07316C180.311 1.35218 178.918 1.18661 177.55 1.22954C177.531 14.7422 177.534 28.2517 177.55 41.7674C179.115 41.7643 180.681 41.8134 182.249 41.7551C184.175 41.6969 185.975 40.7096 187.221 39.2991C189.006 37.3 189.936 34.7152 190.452 32.1427C190.753 30.7414 190.715 29.2973 191.003 27.893V42.0219C184.256 42.0403 177.512 42.0188 170.765 42.0311C169.798 42.0342 168.827 42.0648 167.869 41.9391C169.209 41.6294 170.593 41.8226 171.958 41.7705C171.989 28.2578 171.983 14.7452 171.961 1.2326C170.593 1.17434 169.206 1.36751 167.866 1.0609Z" fill="#231F20"/>
</g>
<defs>
<clipPath id="clip0_2241_11147">
<rect width="191" height="43" fill="white"/>
</clipPath>
</defs>
</svg>
