<svg width="218" height="40" viewBox="0 0 218 40" fill="none" xmlns="http://www.w3.org/2000/svg">
<g clip-path="url(#clip0_2241_11105)">
<path fill-rule="evenodd" clip-rule="evenodd" d="M217.641 6.55805V0.793943H203.13V6.55805H207.542V39.243H213.23V6.55805H217.641ZM119.73 39.1961H126.861V0.756866H121.579V20.3195L121.696 24.3951L116.994 0.756866H111.596V39.1961H116.878V24.9774L116.762 20.9017L119.73 39.1961ZM100.104 39.1961H105.792V8.38398C105.792 3.31855 102.309 0 98.188 0C94.067 0 90.5263 3.31855 90.5263 8.38398V39.1961H96.2147V8.26747C96.2147 6.75387 97.2594 6.05506 98.188 6.05506C99.175 6.05506 100.104 6.75387 100.104 8.26747V39.1961ZM79.0339 39.1961H84.7223V0.756866H79.0339V39.1961ZM67.5417 39.1961H73.2299V0.756866H67.5417V21.193H63.6525V0.756866H57.9644V39.1961H63.6525V27.0152H67.5417V39.1961ZM46.4723 14.9634H52.1605V8.38398C52.1605 2.85264 48.2716 0 44.4407 0C40.6096 0 36.895 2.85264 36.895 9.08266C36.895 11.9357 37.5913 15.0795 38.6361 17.583L44.9049 32.6627C45.2456 33.4595 46.8776 38.0173 47.1936 39.1961H53.0357C52.7071 37.3186 50.9043 32.0083 50.245 30.3917L44.0343 15.3124C43.3959 13.6822 42.5252 10.8294 42.5252 8.73326C42.5252 7.27797 43.1056 6.1717 44.4986 6.1717C45.6015 6.1717 46.4723 7.16146 46.4723 8.50023V14.9634ZM16.8802 39.1961H31.9582L28.0324 0.756866H20.8933L16.8802 39.1961ZM22.4023 33.3032L23.9694 16.7681L24.3755 11.9937L24.7237 16.7681L26.3492 33.3032H22.4023ZM5.68839 6.52098H13.4082V0.756866H0V39.1961H5.68839V26.4327H11.0283V20.7851H5.68839V6.52098ZM36.8946 39.1961H42.5831V33.1286H36.8946V39.1961ZM145.395 0.839005V39.243H158.803V33.4793H151.084V18.3416H156.424V12.6941H151.084V0.839005H145.395ZM167.266 0.700864L163.669 39.243H169.241L169.996 30.9759H174.93L175.743 39.243H181.373L177.854 0.700864H172.782L172.84 1.50472L174.466 25.2114H170.519L172.086 1.50472L172.154 0.700864H167.266ZM191.937 25.0368H186.248V31.6159C186.248 37.1469 190.079 40 193.91 40C197.741 40 201.456 37.1468 201.456 30.9172C201.456 28.0644 200.643 24.8623 199.599 22.3007L190.76 0.697647H184.86C185.042 1.25703 187.776 8.97812 187.99 9.49167L194.258 24.5712C194.955 26.2012 195.884 29.1708 195.884 31.2665C195.884 32.7223 195.303 33.8286 193.91 33.8286C192.807 33.8286 191.937 32.8384 191.937 31.4994V25.0368Z" fill="#231F20"/>
</g>
<defs>
<clipPath id="clip0_2241_11105">
<rect width="218" height="40" fill="white"/>
</clipPath>
</defs>
</svg>
