<svg width="280" height="58" viewBox="0 0 280 58" fill="none" xmlns="http://www.w3.org/2000/svg">
<path d="M113.752 43.0273C113.489 43.0273 113.18 43.0273 112.883 43.0613L111.939 43.1236C111.681 43.1236 111.367 43.1236 110.966 43.1236C110.142 43.1236 109.416 43.1236 108.792 43.067H108.392C108.151 43.067 108.026 43.1519 108.026 43.3218C108.028 43.3602 108.038 43.3978 108.055 43.4325C108.072 43.4671 108.096 43.4979 108.125 43.5233C108.154 43.5486 108.189 43.5678 108.226 43.5799C108.262 43.592 108.301 43.5966 108.34 43.5935C108.577 43.6008 108.809 43.6546 109.024 43.7518C109.239 43.849 109.433 43.9877 109.593 44.1597C109.873 44.5794 110.004 45.0794 109.965 45.5808V52.075C110.001 52.6496 109.927 53.2258 109.748 53.7735C109.661 53.9376 109.536 54.0794 109.385 54.1876C109.233 54.2957 109.057 54.3672 108.872 54.3963C108.842 54.3985 108.812 54.4066 108.785 54.4204C108.757 54.4342 108.733 54.4533 108.713 54.4765C108.693 54.4997 108.679 54.5267 108.67 54.5557C108.661 54.5847 108.658 54.6152 108.661 54.6455C108.662 54.6786 108.671 54.7109 108.687 54.7402C108.703 54.7695 108.725 54.7951 108.751 54.8151C108.778 54.8351 108.809 54.849 108.842 54.8559C108.874 54.8628 108.908 54.8624 108.941 54.8549C109.121 54.8497 109.301 54.8327 109.479 54.804C110.027 54.7333 110.579 54.6917 111.132 54.6794H111.464L112.785 54.7304C112.98 54.7304 113.169 54.7304 113.357 54.7304H113.603C113.821 54.7304 113.93 54.6511 113.93 54.4926C113.934 54.4608 113.931 54.4285 113.921 54.398C113.911 54.3674 113.895 54.3393 113.873 54.3156C113.852 54.2919 113.825 54.2732 113.795 54.2607C113.765 54.2483 113.733 54.2424 113.701 54.2435L113.335 54.2038C113.09 54.2135 112.848 54.1529 112.638 54.0293C112.428 53.9057 112.259 53.7244 112.15 53.5074C111.967 52.8151 111.896 52.0986 111.939 51.3842V45.0147C111.915 44.8241 111.931 44.6306 111.986 44.4465C112.041 44.2623 112.134 44.0914 112.259 43.9446C112.636 43.7216 113.076 43.6262 113.512 43.6728C113.879 43.6601 114.244 43.7253 114.584 43.864C114.923 44.0027 115.229 44.2116 115.48 44.4768C116.002 45.049 116.278 45.801 116.247 46.5717C116.258 46.8845 116.205 47.1963 116.091 47.4882C115.976 47.7802 115.804 48.0462 115.583 48.2702C115.359 48.4923 115.091 48.6659 114.795 48.7799C114.5 48.8939 114.183 48.946 113.867 48.9327C113.561 48.9334 113.256 48.8895 112.963 48.8024C112.917 48.7962 112.871 48.7962 112.825 48.8024C112.795 48.7993 112.765 48.8031 112.737 48.8137C112.708 48.8242 112.683 48.8412 112.662 48.8632C112.642 48.8851 112.627 48.9116 112.618 48.9403C112.61 48.9691 112.608 48.9994 112.614 49.0289C112.614 49.1818 112.82 49.3233 113.232 49.4366C113.701 49.5557 114.183 49.6128 114.668 49.6064C115.612 49.6286 116.527 49.2806 117.213 48.6382C117.552 48.3373 117.821 47.9674 118.001 47.5541C118.182 47.1407 118.27 46.6936 118.26 46.2433C118.265 45.8265 118.179 45.4136 118.008 45.0326C117.838 44.6515 117.586 44.3114 117.271 44.0352C116.531 43.3633 115.358 43.0273 113.752 43.0273Z" fill="#231F20"/>
<path d="M132.87 54.3578C132.497 54.3052 132.145 54.1547 131.851 53.9219C131.549 53.6431 131.315 53.3006 131.165 52.9197L127.298 44.0533L127.092 43.6003C127.017 43.3205 126.852 43.0722 126.623 42.8926C126.445 43.0738 126.318 43.2985 126.256 43.5437L125.85 44.342L125.061 45.9556C124.986 46.1085 124.855 46.4029 124.666 46.8332L122.349 52.1271C122.12 52.69 121.844 53.2334 121.525 53.752C121.341 54.0024 121.08 54.1872 120.782 54.2786C120.719 54.2913 120.662 54.3234 120.619 54.3702C120.575 54.4169 120.548 54.476 120.541 54.539C120.54 54.5692 120.545 54.5993 120.557 54.6271C120.569 54.6548 120.588 54.6795 120.611 54.6992C120.634 54.7188 120.662 54.733 120.691 54.7406C120.721 54.7481 120.752 54.7489 120.782 54.7428C120.89 54.7428 121.165 54.7428 121.617 54.6749C122.217 54.6183 122.652 54.5956 122.921 54.5956C123.261 54.5997 123.6 54.6357 123.934 54.7032C124.079 54.7276 124.227 54.7409 124.374 54.7428C124.409 54.7511 124.446 54.7518 124.481 54.7448C124.517 54.7378 124.55 54.7234 124.58 54.7024C124.609 54.6814 124.633 54.6545 124.651 54.6234C124.669 54.5922 124.68 54.5577 124.683 54.522C124.683 54.3861 124.58 54.3012 124.363 54.2729C123.362 54.1597 122.858 53.7463 122.858 53.0329C122.859 52.8381 122.9 52.6455 122.978 52.4668L123.242 51.81C123.355 51.3682 123.605 50.9725 123.957 50.6776L124.717 50.5361H125.862C126.513 50.5142 127.165 50.5388 127.812 50.6097C127.932 50.6633 128.039 50.7416 128.126 50.8392C128.213 50.9368 128.277 51.0516 128.316 51.1759C128.67 51.8303 128.919 52.5351 129.054 53.2651C129.046 53.5054 128.951 53.7348 128.785 53.9105C128.605 54.1154 128.369 54.2631 128.104 54.3352C128.057 54.3408 128.013 54.3616 127.979 54.3943C127.945 54.427 127.923 54.4699 127.915 54.5164C127.911 54.5489 127.914 54.582 127.924 54.6133C127.935 54.6445 127.952 54.6729 127.975 54.6964C127.998 54.7199 128.027 54.7379 128.058 54.7488C128.089 54.7598 128.123 54.7636 128.156 54.7598C128.232 54.7584 128.307 54.745 128.379 54.7202C129.04 54.6114 129.711 54.5697 130.381 54.5956C131.092 54.5747 131.803 54.624 132.504 54.7428C132.647 54.7711 132.755 54.7881 132.83 54.7994C132.859 54.8012 132.889 54.7961 132.916 54.7844C132.943 54.7727 132.968 54.7548 132.986 54.7322C133.005 54.7096 133.019 54.6829 133.025 54.6542C133.032 54.6256 133.031 54.5958 133.024 54.5673C133.026 54.5203 133.012 54.4741 132.984 54.4361C132.956 54.3981 132.916 54.3705 132.87 54.3578ZM127.412 49.7661H124.906C124.5 49.7661 124.294 49.6698 124.294 49.483C124.298 49.4056 124.32 49.3301 124.357 49.2622L124.449 49.047L125.438 46.7823L125.599 46.4256C125.66 46.1935 125.789 45.9846 125.97 45.8254C126.085 45.8254 126.274 46.1312 126.542 46.754L127.652 49.3358L127.692 49.432C127.716 49.478 127.732 49.5279 127.738 49.5792C127.71 49.7038 127.601 49.7661 127.412 49.7661Z" fill="#231F20"/>
<path d="M149.261 53.6826C149.198 53.6752 149.135 53.6752 149.072 53.6826C148.951 53.708 148.829 53.7193 148.706 53.7165C148.4 53.7234 148.103 53.614 147.876 53.4108C147.547 53.0927 147.273 52.7236 147.064 52.318L146.188 50.7724L145.428 49.4362C145.325 49.255 145.25 49.1191 145.199 49.0398C145.153 48.9803 145.123 48.9101 145.113 48.836C145.117 48.7943 145.135 48.7551 145.164 48.7245C145.193 48.6938 145.231 48.6733 145.273 48.6662C145.799 48.4508 146.25 48.0889 146.572 47.6244C146.882 47.172 147.046 46.6368 147.041 46.09C147.046 45.6651 146.953 45.2445 146.769 44.8608C146.584 44.477 146.313 44.1402 145.977 43.8762C145.217 43.2758 144.265 42.9644 143.294 42.9986C142.928 42.9986 142.27 43.0383 141.303 43.1062C140.49 43.1685 139.793 43.1968 139.22 43.1968C138.739 43.1989 138.258 43.1743 137.779 43.1232C137.677 43.1067 137.573 43.0972 137.47 43.0949C137.437 43.0919 137.403 43.0964 137.372 43.1081C137.341 43.1198 137.313 43.1384 137.291 43.1625C137.268 43.1865 137.251 43.2154 137.242 43.2469C137.232 43.2783 137.23 43.3116 137.235 43.344C137.238 43.3864 137.25 43.4279 137.269 43.4659C137.288 43.504 137.314 43.5379 137.347 43.5658C137.379 43.5937 137.417 43.615 137.458 43.6284C137.498 43.6418 137.541 43.6472 137.584 43.6441C137.847 43.657 138.105 43.7241 138.34 43.8411C138.576 43.958 138.784 44.1224 138.952 44.3235C139.164 44.7456 139.254 45.2183 139.209 45.688V51.8481V52.1765V52.9805C139.233 53.3018 139.155 53.6224 138.986 53.8977C138.776 54.1357 138.496 54.3021 138.185 54.3733C138.132 54.3866 138.085 54.4186 138.053 54.4633C138.022 54.508 138.008 54.5625 138.013 54.6168C138.014 54.6538 138.023 54.6902 138.04 54.7232C138.057 54.7563 138.081 54.7851 138.111 54.8074C138.14 54.8298 138.175 54.8452 138.212 54.8524C138.248 54.8596 138.286 54.8584 138.322 54.8489H138.654L139.226 54.8036L139.941 54.7357C140.239 54.7357 140.576 54.7073 140.96 54.7073C141.343 54.7073 141.886 54.7073 142.373 54.764H142.722C142.757 54.7727 142.794 54.7733 142.829 54.7657C142.864 54.758 142.898 54.7423 142.926 54.7198C142.954 54.6973 142.977 54.6686 142.992 54.636C143.007 54.6034 143.014 54.5677 143.013 54.5318C143.013 54.362 142.893 54.277 142.653 54.2487C142.416 54.2521 142.182 54.1937 141.976 54.0794C141.769 53.9651 141.596 53.7989 141.474 53.5976C141.225 52.8971 141.123 52.1531 141.177 51.4121V49.7136C141.163 49.6406 141.166 49.5653 141.188 49.4942C141.21 49.4231 141.25 49.3585 141.303 49.3059L141.686 49.238H142.218C142.56 49.2082 142.901 49.2962 143.185 49.4871C143.506 49.8362 143.761 50.2388 143.94 50.6761C144.459 51.8203 145.104 52.9044 145.862 53.909C146.05 54.1619 146.292 54.37 146.571 54.518C146.85 54.6659 147.159 54.75 147.476 54.764C147.905 54.7447 148.326 54.6367 148.711 54.4469C149.18 54.2374 149.415 54.0506 149.415 53.8807C149.421 53.8573 149.422 53.8329 149.417 53.8092C149.412 53.7856 149.402 53.7634 149.387 53.7442C149.372 53.7251 149.353 53.7096 149.331 53.6989C149.309 53.6883 149.285 53.6826 149.261 53.6826ZM143.872 48.502C143.244 48.5539 142.613 48.5728 141.984 48.5586C141.751 48.5902 141.514 48.5401 141.314 48.417C141.19 48.2091 141.14 47.9659 141.171 47.7263V44.7935C141.138 44.4822 141.217 44.1693 141.394 43.9102C141.503 43.8187 141.63 43.7503 141.767 43.7094C141.904 43.6685 142.048 43.6559 142.19 43.6724C142.585 43.6548 142.981 43.7188 143.35 43.8604C143.72 44.002 144.056 44.2181 144.337 44.4949C144.617 44.7717 144.837 45.1032 144.981 45.4685C145.126 45.8337 145.192 46.2247 145.176 46.6166C145.195 46.9019 145.151 47.188 145.048 47.4549C144.944 47.7218 144.783 47.9632 144.575 48.1622C144.382 48.3416 144.139 48.4599 143.877 48.502H143.872Z" fill="#231F20"/>
<path d="M159.175 54.2786C158.798 54.2933 158.429 54.1681 158.14 53.9276C157.86 53.6613 157.682 53.3071 157.636 52.9254L157.568 52.0762V44.863C157.534 44.5302 157.595 44.1947 157.745 43.8948C157.957 43.6901 158.238 43.571 158.534 43.5607C158.573 43.5672 158.612 43.5639 158.649 43.551C158.686 43.5382 158.719 43.5162 158.744 43.4873C158.77 43.4584 158.788 43.4234 158.796 43.3858C158.805 43.3481 158.803 43.3089 158.792 43.272C158.792 43.1361 158.695 43.0625 158.506 43.0625C158.191 43.0625 157.745 43.0625 157.156 43.1248L156.538 43.1757C156.069 43.2154 155.668 43.2324 155.348 43.2324C155.001 43.2418 154.655 43.2191 154.312 43.1644C154.161 43.1339 154.008 43.1112 153.855 43.0965C153.825 43.094 153.794 43.0986 153.766 43.1099C153.738 43.1212 153.713 43.1388 153.693 43.1613C153.673 43.1839 153.658 43.2108 153.651 43.2398C153.643 43.2688 153.642 43.2993 153.649 43.3286C153.644 43.3746 153.653 43.4209 153.676 43.4614C153.698 43.5018 153.733 43.5345 153.775 43.5551C153.958 43.6246 154.151 43.6685 154.347 43.6853C154.723 43.709 155.078 43.8657 155.348 44.1269C155.561 44.4546 155.657 44.843 155.623 45.231V52.7329C155.652 53.0978 155.581 53.4637 155.417 53.7917C155.211 54.0512 154.926 54.2379 154.604 54.3239L154.352 54.5277V54.5957C154.362 54.6507 154.392 54.7001 154.437 54.7346C154.481 54.7691 154.537 54.7862 154.593 54.7825C154.799 54.7712 155.003 54.7447 155.205 54.7033C155.652 54.635 156.103 54.6047 156.555 54.6127C157.158 54.6216 157.759 54.6632 158.357 54.7372C158.655 54.7372 158.878 54.7825 159.044 54.7825C159.415 54.7825 159.616 54.6976 159.616 54.5334C159.616 54.3692 159.45 54.2786 159.175 54.2786Z" fill="#231F20"/>
<path d="M168.511 47.3653C167.796 47.1211 167.115 46.7861 166.486 46.3689C166.325 46.2273 166.196 46.0528 166.109 45.8573C166.022 45.6618 165.979 45.45 165.983 45.2365C165.982 45.0045 166.033 44.7753 166.132 44.5649C166.231 44.3546 166.375 44.1683 166.555 44.0192C166.917 43.6822 167.397 43.4975 167.894 43.504C168.683 43.5199 169.438 43.8268 170.01 44.3646C170.649 44.8857 171.089 45.6066 171.257 46.4085C171.303 46.6236 171.378 46.7255 171.486 46.7255C171.595 46.7255 171.704 46.6066 171.704 46.3632C171.709 46.3067 171.709 46.2498 171.704 46.1933L171.618 45.4233L171.463 44.608C171.458 44.5062 171.458 44.4041 171.463 44.3023V43.6342C171.463 43.4473 171.401 43.3567 171.286 43.3567C171.238 43.3574 171.191 43.369 171.149 43.3907L170.823 43.5492C170.746 43.588 170.662 43.6093 170.577 43.6115C170.388 43.5906 170.205 43.539 170.033 43.4587L169.461 43.2209C168.961 43.0216 168.427 42.9179 167.888 42.9151C167.461 42.9039 167.036 42.9823 166.641 43.1453C166.247 43.3082 165.892 43.5521 165.6 43.8607C165.298 44.1722 165.062 44.5398 164.905 44.9421C164.748 45.3444 164.673 45.7735 164.684 46.2047C164.651 46.9106 164.886 47.6033 165.342 48.1467C166.065 48.8147 166.912 49.3377 167.836 49.6867L169.135 50.2529C169.6 50.4272 170.019 50.7041 170.359 51.0625C170.605 51.3736 170.73 51.7609 170.714 52.1553C170.713 52.4394 170.652 52.7201 170.534 52.9795C170.417 53.2389 170.246 53.4711 170.033 53.6613C169.835 53.8657 169.597 54.0286 169.333 54.1404C169.07 54.2522 168.787 54.3107 168.5 54.3124C168.095 54.2968 167.698 54.2017 167.33 54.0326C166.963 53.8634 166.633 53.6237 166.36 53.3273C165.665 52.6573 165.165 51.8143 164.913 50.887C164.913 50.8386 164.895 50.7919 164.864 50.7548C164.833 50.7176 164.789 50.6923 164.741 50.6832C164.558 50.6832 164.467 50.8191 164.467 51.0908C164.526 51.5909 164.636 52.084 164.793 52.5629C164.91 52.9328 164.996 53.3115 165.05 53.6953C165.053 53.8468 165.091 53.9957 165.159 54.1312C165.298 54.2144 165.455 54.2648 165.617 54.2785C165.913 54.3461 166.205 54.4293 166.492 54.5276C167.091 54.75 167.719 54.8891 168.357 54.9409C168.831 54.9409 169.3 54.8426 169.734 54.6525C170.167 54.4623 170.556 54.1845 170.874 53.8368C171.218 53.4999 171.49 53.0985 171.674 52.6561C171.859 52.2137 171.953 51.7393 171.95 51.2607C171.971 50.4296 171.695 49.6178 171.172 48.9676C170.417 48.2432 169.508 47.6956 168.511 47.3653Z" fill="#231F20"/>
<path d="M48.2817 28.7038C47.739 28.687 47.2063 28.555 46.7197 28.3167C46.2331 28.0783 45.8039 27.7392 45.4613 27.3223C44.8893 26.5409 44.6051 25.3369 44.6089 23.71V22.9966L44.1684 12.024V10.8293C44.1684 9.26286 44.3877 8.15125 44.8263 7.49448C45.0992 7.14346 45.4515 6.86071 45.8549 6.66896C46.2583 6.47721 46.7016 6.3818 47.149 6.39042C47.2108 6.39614 47.2732 6.38868 47.3319 6.36854C47.3906 6.3484 47.4442 6.31605 47.4892 6.27367C47.5342 6.23129 47.5695 6.17986 47.5927 6.12284C47.6159 6.06583 47.6266 6.00455 47.6238 5.94313C47.625 5.86746 47.6087 5.79252 47.5762 5.72401C47.5437 5.6555 47.4958 5.59521 47.4363 5.54773C47.3767 5.50025 47.307 5.46683 47.2325 5.44999C47.1579 5.43315 47.0805 5.43334 47.006 5.45055C46.8344 5.45055 46.5578 5.46565 46.1765 5.49585C45.5824 5.56963 44.9845 5.60933 44.3858 5.61474C44.0285 5.61827 43.6713 5.60126 43.316 5.56379C42.9613 5.56379 42.7039 5.51283 42.5323 5.51283C42.3265 5.50651 42.1223 5.54955 41.937 5.63828C41.7517 5.72701 41.5908 5.8588 41.4682 6.0224C40.9481 6.81776 40.5001 7.6571 40.1295 8.5306L33.459 22.6852C33.4174 22.8491 33.3364 23.0006 33.2228 23.1268C33.1092 23.253 32.9665 23.3502 32.8068 23.4099C32.5951 23.4099 32.3262 23.0815 32.0116 22.3908L24.7632 6.62255C24.6424 6.28384 24.4161 5.99176 24.117 5.7883C23.8179 5.58483 23.4613 5.48046 23.0985 5.49018C22.8639 5.49018 22.3433 5.52982 21.5424 5.62607C21.0035 5.69389 20.4609 5.72793 19.9176 5.72798C19.6259 5.72798 19.3799 5.72798 19.1911 5.72798L18.1442 5.66004H17.738C17.2517 5.64872 17 5.82423 17 6.16394C17 6.50366 17.2231 6.66785 17.6693 6.66785C18.2074 6.64068 18.7446 6.73516 19.2402 6.94412C19.7358 7.15308 20.1768 7.47102 20.5298 7.87382C21.2676 8.82015 21.6353 9.99836 21.5653 11.1917L21.4966 12.375L21.0046 23.9422C21.0601 25.0578 20.8443 26.1704 20.3753 27.1864C19.9503 27.967 19.2338 28.5522 18.3787 28.817C18.2656 28.8359 18.1623 28.892 18.0855 28.9763C18.0086 29.0605 17.9628 29.168 17.9554 29.2813C17.95 29.3529 17.962 29.4247 17.9906 29.4908C18.0192 29.5568 18.0634 29.615 18.1195 29.6606C18.1756 29.7061 18.242 29.7376 18.313 29.7524C18.384 29.7672 18.4576 29.7648 18.5275 29.7455C18.8259 29.735 19.1228 29.6971 19.4142 29.6323C20.2432 29.5078 21.0818 29.4566 21.92 29.4794C22.3784 29.4695 22.837 29.4884 23.293 29.5361L24.5516 29.7116C24.931 29.7608 25.3131 29.7873 25.6957 29.7908C26.1076 29.7908 26.3193 29.638 26.3193 29.3266C26.3193 29.0152 26.0561 28.8453 25.5241 28.7207C23.9985 28.3433 23.0737 27.2845 22.7495 25.5445L22.5893 23.8969V23.1948L22.8181 14.3V13.7338C22.8181 13.2507 22.9116 13.0091 23.0985 13.0091C23.1418 13.009 23.1844 13.0206 23.2216 13.0425C23.2589 13.0644 23.2895 13.0959 23.3101 13.1337L23.436 13.3998L29.1111 25.9917L30.0093 27.8205C30.6214 29.1227 31.0505 29.7682 31.3079 29.7569C31.5653 29.7455 31.8113 29.3775 32.1546 28.6245L32.4464 28.1149L39.0883 14.0396C39.3972 13.3941 39.6604 13.0714 39.8148 13.0714C39.9693 13.0714 40.0322 13.2243 40.0437 13.5413L40.57 25.2331C40.57 25.3916 40.57 25.669 40.57 26.0597C40.6113 26.6963 40.4663 27.3313 40.1524 27.8885C39.8051 28.346 39.3039 28.6653 38.7393 28.7887C38.6105 28.8003 38.4895 28.8548 38.396 28.9432C38.3025 29.0316 38.242 29.1488 38.2244 29.2756C38.2151 29.3362 38.2201 29.3982 38.239 29.4565C38.258 29.5149 38.2903 29.5681 38.3336 29.6121C38.3768 29.656 38.4298 29.6893 38.4883 29.7095C38.5468 29.7298 38.6092 29.7363 38.6707 29.7286C39.2057 29.7044 39.7388 29.6476 40.2668 29.5587C41.297 29.4299 42.3349 29.3713 43.3732 29.3832C43.9453 29.3832 44.998 29.4625 46.4396 29.621C46.9602 29.6833 47.3378 29.7172 47.5838 29.7172C48.3847 29.7172 48.7909 29.5587 48.7909 29.2247C48.7949 29.1567 48.7846 29.0886 48.7606 29.0247C48.7367 28.9609 48.6996 28.9027 48.6517 28.8537C48.6039 28.8048 48.5463 28.7662 48.4826 28.7404C48.4189 28.7145 48.3505 28.7021 48.2817 28.7038Z" fill="#231F20"/>
<path d="M64.4839 27.9151C64.342 27.9322 64.2044 27.9744 64.0777 28.0397C63.8365 28.1363 63.5766 28.1789 63.3168 28.1643C62.3481 28.1643 61.8637 27.5603 61.8637 26.3525C61.8637 25.8316 61.9 24.8011 61.9724 23.2611C62.0411 21.9023 62.0811 20.7812 62.0811 19.864C62.0811 18.0918 61.6921 16.8462 60.9369 16.1328C59.869 15.2156 58.3244 14.757 56.303 14.757C54.6871 14.711 53.099 15.1793 51.7721 16.0932C51.208 16.5031 50.8233 17.1106 50.6966 17.7918C50.6623 17.9729 50.6279 18.1201 50.5936 18.2504C50.544 18.3735 50.5132 18.5033 50.5021 18.6354C50.4864 18.7259 50.4932 18.8188 50.5218 18.9061C50.5505 18.9934 50.6002 19.0725 50.6666 19.1366C50.7331 19.2007 50.8143 19.2478 50.9032 19.2739C50.9921 19.3 51.0861 19.3043 51.1771 19.2865C53.0078 19.2865 53.9212 18.8902 53.9174 18.0975L53.8659 17.7634C53.8426 17.5965 53.8311 17.4281 53.8316 17.2595C53.8316 16.3234 54.4037 15.8554 55.5479 15.8554C55.9781 15.8521 56.4025 15.9537 56.7836 16.1511C57.1648 16.3486 57.4909 16.636 57.7333 16.9878C58.3212 17.8264 58.6147 18.8329 58.5685 19.8527C58.5584 20.3191 58.4931 20.7828 58.374 21.2342C55.4411 21.7701 53.4731 22.2929 52.47 22.8025C51.7049 23.1678 51.0656 23.7483 50.6321 24.4714C50.1986 25.1945 49.9902 26.028 50.033 26.8677C50.0074 27.3046 50.0695 27.7423 50.2158 28.1553C50.3621 28.5683 50.5897 28.9485 50.8854 29.274C51.1951 29.572 51.5641 29.8029 51.9689 29.952C52.3737 30.1011 52.8054 30.1652 53.2366 30.1402C54.6859 30.1402 56.5071 29.4401 58.7001 28.0397C59.4095 29.3759 60.2848 30.044 61.326 30.044C61.8129 30.0502 62.2934 29.9333 62.7219 29.7043L63.3397 29.3646L64.0319 29.0079C64.2115 28.9407 64.3701 28.8279 64.4916 28.6808C64.6131 28.5337 64.6933 28.3575 64.7242 28.1699C64.7295 28.1367 64.7272 28.1028 64.7172 28.0706C64.7073 28.0385 64.6901 28.009 64.667 27.9844C64.6438 27.9598 64.6152 27.9408 64.5835 27.9288C64.5518 27.9168 64.5177 27.9121 64.4839 27.9151ZM58.5227 23.1026V24.4614C58.5473 25.2205 58.4878 25.9799 58.3454 26.7262C58.307 26.9223 58.2296 27.1089 58.1176 27.2751C58.0056 27.4413 57.8614 27.5838 57.6932 27.6943C57.085 28.0763 56.3768 28.2732 55.6566 28.2605C54.4094 28.2605 53.7859 27.4811 53.7859 25.9222C53.8079 25.4152 53.943 24.9193 54.1813 24.4701C54.4197 24.0208 54.7554 23.6292 55.1646 23.3234C55.5492 22.959 56.0046 22.6757 56.5032 22.4908C57.0018 22.3059 57.5332 22.2231 58.0651 22.2476C58.1949 22.2452 58.3231 22.2764 58.4369 22.3382L58.5399 22.7289V23.1026H58.5227Z" fill="#231F20"/>
<path d="M73.815 28.789C72.831 28.7324 72.1616 28.472 71.8069 27.9964C71.4522 27.5208 71.2634 26.6942 71.2634 25.4995V15.5177C71.2634 15.0987 71.2634 14.8326 71.2634 14.725V14.5665C71.2726 14.5287 71.2735 14.4894 71.2661 14.4512C71.2586 14.4131 71.2429 14.377 71.2202 14.3453C71.1974 14.3136 71.168 14.2872 71.134 14.2677C71.1001 14.2482 71.0622 14.2362 71.0232 14.2324C70.9144 14.2466 70.8116 14.2896 70.7257 14.357C69.4506 15.2186 68.0027 15.798 66.4808 16.0555C65.76 16.2141 65.3995 16.4349 65.3995 16.735C65.3936 16.8229 65.4114 16.9108 65.451 16.9897C65.5136 17.0445 65.5875 17.085 65.6675 17.1085C65.7476 17.132 65.8318 17.1378 65.9144 17.1256H66.3206C66.5286 17.1045 66.7383 17.1429 66.9249 17.2363C67.1115 17.3296 67.2671 17.4739 67.3733 17.6522C67.6099 18.2576 67.7095 18.9069 67.665 19.5546V25.5165V26.2582C67.6821 26.7754 67.6046 27.2914 67.4362 27.7812C67.3367 28.1604 67.1007 28.4906 66.7726 28.7098L66.1719 29.0098C66.1032 29.0413 66.0451 29.0917 66.0045 29.1549C65.9639 29.2182 65.9426 29.2916 65.943 29.3665C65.9379 29.4151 65.9443 29.4642 65.9615 29.51C65.9788 29.5558 66.0065 29.597 66.0425 29.6305C66.0785 29.6639 66.1218 29.6886 66.169 29.7028C66.2163 29.7169 66.2662 29.72 66.3149 29.7119C66.5171 29.7027 66.718 29.6762 66.9156 29.6326C67.7546 29.4846 68.6037 29.3994 69.4556 29.3779C69.6902 29.3779 70.1765 29.4118 70.9088 29.4798L72.2417 29.61C72.6307 29.644 72.8824 29.6666 73.0026 29.6666C73.9408 29.6666 74.4042 29.5081 74.4042 29.2023C74.4042 28.8966 74.2097 28.8173 73.815 28.789Z" fill="#231F20"/>
<path d="M83.3108 21.3205C82.6314 20.9279 81.9217 20.5891 81.1883 20.3071L79.9698 19.8088C78.5911 19.2426 77.9046 18.4613 77.9046 17.4818C77.9065 17.2112 77.969 16.9444 78.0877 16.7006C78.2065 16.4568 78.3784 16.2421 78.5911 16.072C79.0499 15.6908 79.6341 15.4894 80.233 15.5058C81.503 15.5058 82.5499 16.2532 83.3852 17.7706C83.8142 18.5406 84.1231 18.9312 84.3119 18.9312C84.3601 18.9392 84.4095 18.9361 84.4562 18.9223C84.503 18.9085 84.546 18.8842 84.5819 18.8515C84.6178 18.8187 84.6456 18.7782 84.6633 18.7332C84.6809 18.6881 84.6879 18.6397 84.6838 18.5915C84.6818 18.5205 84.6702 18.4501 84.6495 18.382L84.6151 17.7819L84.5293 16.6495L84.5064 15.8512C84.4632 15.6719 84.3654 15.5101 84.2263 15.3876C84.0871 15.265 83.9134 15.1877 83.7284 15.1661C82.8671 14.9086 81.9736 14.7714 81.0739 14.7585C79.6356 14.683 78.2168 15.1143 77.0693 15.9758C76.5818 16.3708 76.1936 16.8726 75.9355 17.4415C75.6773 18.0104 75.5563 18.6309 75.5819 19.254C75.5284 20.2302 75.8446 21.1911 76.4686 21.949C77.3684 22.7985 78.4496 23.437 79.6323 23.8174C80.57 24.136 81.4449 24.613 82.2181 25.2272C82.4485 25.4558 82.6281 25.7294 82.7454 26.0307C82.8626 26.332 82.9149 26.6543 82.8989 26.9767C82.9106 27.2852 82.8559 27.5926 82.7385 27.8786C82.6212 28.1645 82.4438 28.4226 82.2181 28.6356C81.7372 29.0768 81.1 29.3127 80.4446 29.2924C79.8188 29.2901 79.2055 29.1185 78.6711 28.7962C78.1367 28.4739 77.7015 28.0131 77.4126 27.4636C76.8798 26.6501 76.4928 25.7519 76.2684 24.8082C76.2732 24.6959 76.2372 24.5856 76.1669 24.4973C76.0966 24.409 75.9966 24.3486 75.8851 24.327C75.7397 24.3074 75.5922 24.3439 75.4732 24.4289C75.3846 24.5879 75.3429 24.7684 75.353 24.9498V25.8104L75.4103 27.7354C75.413 27.9643 75.4015 28.193 75.3759 28.4205C75.3759 28.6243 75.3759 28.7659 75.3759 28.8565C75.3679 28.9145 75.3717 28.9736 75.3869 29.0302C75.4022 29.0868 75.4288 29.1399 75.465 29.1862C75.5012 29.2326 75.5463 29.2714 75.5978 29.3003C75.6494 29.3292 75.7062 29.3477 75.765 29.3547L76.543 29.4793L77.7615 29.7737C78.6349 29.9983 79.5312 30.1236 80.4332 30.1474C81.076 30.1612 81.7145 30.0396 82.3063 29.7907C82.8981 29.5418 83.4296 29.1712 83.8657 28.7036C84.3226 28.2363 84.6813 27.6839 84.9209 27.0784C85.1605 26.4729 85.2763 25.8264 85.2616 25.1763C85.2965 24.1642 84.9929 23.1691 84.3977 22.3453C84.1011 21.9414 83.7328 21.5942 83.3108 21.3205Z" fill="#231F20"/>
<path d="M95.822 14.7581C94.7377 14.7392 93.6607 14.9376 92.6559 15.3414C91.6511 15.7452 90.7393 16.3461 89.9753 17.1078C89.1979 17.8344 88.5814 18.7127 88.1648 19.6873C87.7483 20.6619 87.5407 21.7115 87.5554 22.7697C87.5283 23.752 87.7104 24.7291 88.0898 25.6372C88.4693 26.5454 89.0377 27.3643 89.7579 28.0408C90.4901 28.736 91.3549 29.2797 92.3018 29.6404C93.2487 30.001 94.2587 30.1713 95.2728 30.1414C96.3572 30.1726 97.4369 29.9883 98.4481 29.5993C99.4592 29.2103 100.381 28.6245 101.16 27.8766C101.929 27.1531 102.537 26.278 102.944 25.3076C103.351 24.3373 103.548 23.2934 103.522 22.2431C103.553 21.2463 103.375 20.2541 103 19.3285C102.625 18.403 102.061 17.5641 101.343 16.8643C100.613 16.1644 99.7474 15.6171 98.7989 15.2552C97.8504 14.8934 96.838 14.7243 95.822 14.7581ZM99.1859 27.82C98.88 28.2485 98.4732 28.5966 98.0007 28.8344C97.5282 29.0722 97.0042 29.1923 96.4742 29.1845C95.0173 29.1845 93.7701 28.3862 92.7328 26.7896C91.6602 25.069 91.1211 23.0749 91.1824 21.0541C91.1094 19.6852 91.4585 18.3267 92.1836 17.1588C92.474 16.7073 92.8772 16.3378 93.3543 16.0858C93.8314 15.8339 94.3661 15.7081 94.9067 15.7207C96.3865 15.7207 97.6451 16.5548 98.6825 18.2232C99.7654 20.0702 100.303 22.181 100.233 24.3153C100.283 25.5666 99.913 26.7992 99.1802 27.82H99.1859Z" fill="#231F20"/>
<path d="M112.773 29.6211C113.317 29.6777 113.78 29.7117 114.175 29.7117C114.25 29.729 114.328 29.7291 114.403 29.712C114.478 29.6948 114.548 29.6609 114.608 29.6128C114.667 29.5647 114.715 29.5036 114.747 29.4344C114.779 29.3652 114.795 29.2896 114.793 29.2134C114.79 29.1537 114.774 29.0953 114.746 29.042C114.719 28.9887 114.681 28.9416 114.634 28.9038C114.587 28.8659 114.533 28.8382 114.474 28.8223C114.416 28.8064 114.355 28.8027 114.295 28.8115C113.911 28.8123 113.531 28.7353 113.177 28.5854C112.824 28.4355 112.506 28.2157 112.241 27.9395C111.779 27.2371 111.566 26.4026 111.635 25.5672V19.6902C111.623 19.2962 111.697 18.9042 111.853 18.5415C112.009 18.1787 112.243 17.854 112.539 17.5897C113.203 17.0286 114.058 16.7391 114.93 16.78C115.451 16.7654 115.966 16.8845 116.426 17.1256C116.886 17.3667 117.276 17.7216 117.556 18.1559C118.254 19.3005 118.588 20.6258 118.517 21.9606V26.1391C118.557 26.786 118.468 27.4344 118.254 28.0471C118.149 28.2504 118.002 28.4296 117.823 28.573C117.644 28.7164 117.436 28.8208 117.213 28.8794C117.107 28.9014 117.01 28.9559 116.938 29.0352C116.865 29.1144 116.819 29.2145 116.807 29.321C116.799 29.3736 116.804 29.4271 116.821 29.4774C116.838 29.5278 116.866 29.5737 116.904 29.6114C116.941 29.6492 116.987 29.6779 117.038 29.6953C117.089 29.7127 117.143 29.7183 117.196 29.7117C117.434 29.7062 117.671 29.6797 117.905 29.6324C118.794 29.4729 119.697 29.4027 120.6 29.4229C121.009 29.4305 121.418 29.4588 121.824 29.5079L122.968 29.6381C123.22 29.6794 123.474 29.704 123.729 29.7117C124.564 29.7117 124.988 29.5249 124.988 29.1455C124.981 29.0792 124.96 29.015 124.927 28.9568C124.894 28.8987 124.849 28.8479 124.796 28.8075C124.742 28.7672 124.681 28.7382 124.615 28.7223C124.55 28.7064 124.482 28.704 124.415 28.7152C123.824 28.6705 123.258 28.4583 122.785 28.1037C122.519 27.9036 122.32 27.6296 122.213 27.3167C122.107 26.8047 122.065 26.2819 122.087 25.7597V22.2211C122.087 19.5562 121.673 17.6444 120.846 16.4856C120.018 15.3268 118.656 14.7512 116.761 14.7587C115.939 14.7346 115.122 14.9007 114.377 15.2437C113.631 15.5867 112.976 16.0973 112.465 16.7347C112.335 16.9542 112.133 17.1224 111.892 17.2103C111.835 17.1995 111.783 17.1722 111.741 17.1319C111.699 17.0917 111.67 17.0402 111.658 16.9839L111.555 16.3101V15.3136L111.606 14.4247C111.606 14.1869 111.538 14.0793 111.395 14.0907C111.308 14.0979 111.227 14.1361 111.166 14.1982C110.037 14.9365 108.777 15.4571 107.453 15.7326C106.92 15.8441 106.396 15.9955 105.886 16.1855C105.799 16.2273 105.727 16.2939 105.679 16.3767C105.631 16.4595 105.609 16.5547 105.617 16.6498C105.612 16.6976 105.618 16.7457 105.633 16.7914C105.647 16.8371 105.671 16.8794 105.702 16.9159C105.736 16.9532 105.777 16.982 105.824 16.9998C105.871 17.0175 105.922 17.0237 105.971 17.0178H106.818C107.006 16.9987 107.196 17.0346 107.364 17.1211C107.532 17.2077 107.67 17.3411 107.762 17.5047C107.975 18.0646 108.062 18.6633 108.019 19.2599V19.945V26.173V26.7392C108.059 27.2369 107.974 27.7365 107.773 28.1943C107.478 28.5492 107.078 28.8045 106.629 28.9247C106.546 28.9483 106.473 28.9971 106.42 29.0641C106.366 29.1312 106.336 29.2131 106.332 29.2984C106.328 29.3541 106.337 29.41 106.358 29.4616C106.38 29.5132 106.414 29.559 106.457 29.5953C106.5 29.6317 106.55 29.6576 106.605 29.6709C106.66 29.6842 106.717 29.6846 106.772 29.6721C107.064 29.6585 107.354 29.6263 107.642 29.5758C108.428 29.459 109.221 29.3966 110.016 29.389C110.519 29.3833 111.441 29.4796 112.773 29.6211Z" fill="#231F20"/>
<path d="M166.475 29.2249C166.48 29.1581 166.47 29.0911 166.448 29.0281C166.425 28.965 166.39 28.9072 166.344 28.8584C166.297 28.8095 166.242 28.7706 166.179 28.744C166.117 28.7174 166.051 28.7038 165.983 28.704C165.441 28.6872 164.909 28.5551 164.423 28.3167C163.938 28.0783 163.51 27.7392 163.168 27.3225C162.596 26.5411 162.31 25.337 162.31 23.7102V22.9968L161.887 12.0298V10.8352C161.887 9.26683 162.11 8.15711 162.55 7.50034C162.823 7.14932 163.176 6.86657 163.579 6.67482C163.982 6.48307 164.426 6.38766 164.873 6.39628C164.935 6.402 164.997 6.39454 165.056 6.3744C165.115 6.35426 165.168 6.32191 165.213 6.27953C165.258 6.23715 165.294 6.18572 165.317 6.1287C165.34 6.07168 165.351 6.01041 165.348 5.94899C165.349 5.87331 165.333 5.79838 165.3 5.72987C165.268 5.66136 165.22 5.60107 165.16 5.55359C165.101 5.50611 165.031 5.47269 164.957 5.45585C164.882 5.43901 164.805 5.4392 164.73 5.45641C164.547 5.45641 164.278 5.45641 163.912 5.50737C163.318 5.58124 162.72 5.62094 162.121 5.62627C161.766 5.62758 161.411 5.60868 161.057 5.56965C160.708 5.56965 160.445 5.51869 160.279 5.51869C160.074 5.51284 159.869 5.5561 159.684 5.64479C159.499 5.73349 159.338 5.86502 159.215 6.02826C158.679 6.81898 158.218 7.65666 157.836 8.53079L151.172 22.6854C151.13 22.8501 151.048 23.0023 150.933 23.1286C150.819 23.2549 150.675 23.3515 150.514 23.4101C150.302 23.4101 150.039 23.0817 149.718 22.391L142.47 6.62275C142.35 6.28497 142.124 5.99356 141.826 5.79019C141.528 5.58681 141.173 5.48187 140.811 5.49038C140.577 5.49038 140.056 5.53001 139.255 5.62627C138.714 5.69388 138.17 5.72791 137.625 5.72818C137.327 5.72818 137.092 5.72818 136.898 5.72818L135.874 5.65458H135.462C134.953 5.65458 134.701 5.83009 134.701 6.1698C134.701 6.50951 134.924 6.67371 135.376 6.67371C135.914 6.64612 136.452 6.7404 136.947 6.94939C137.443 7.15838 137.884 7.47655 138.237 7.87968C138.974 8.82648 139.341 10.0043 139.272 11.1975L139.221 12.3752L138.734 23.9423C138.788 25.0573 138.575 26.1691 138.111 27.1866C137.686 27.9672 136.969 28.5524 136.114 28.8172C136.001 28.8361 135.898 28.8922 135.821 28.9765C135.744 29.0607 135.698 29.1682 135.691 29.2815C135.687 29.3527 135.7 29.424 135.729 29.4893C135.758 29.5547 135.802 29.6124 135.858 29.6576C135.913 29.7029 135.979 29.7345 136.05 29.7498C136.12 29.7651 136.193 29.7637 136.263 29.7457C136.561 29.7353 136.858 29.6974 137.15 29.6325C137.984 29.5032 138.828 29.4483 139.673 29.4683C140.135 29.4599 140.597 29.4807 141.057 29.5306L142.316 29.7061C142.695 29.7551 143.077 29.7815 143.46 29.7854C143.877 29.7854 144.083 29.6325 144.083 29.3211C144.083 29.0097 143.815 28.8398 143.282 28.7153C141.766 28.3246 140.84 27.2715 140.514 25.539L140.353 23.8857V23.1837L140.571 14.2946V13.7284C140.571 13.2452 140.664 13.0037 140.851 13.0037C140.895 13.0032 140.939 13.0145 140.977 13.0364C141.015 13.0583 141.047 13.09 141.068 13.1282L141.194 13.3943L146.864 25.9863L147.768 27.8151C148.38 29.1173 148.809 29.7627 149.066 29.7514C149.324 29.7401 149.564 29.3721 149.907 28.619L150.153 28.0925L156.807 14.0228C157.11 13.3773 157.379 13.0546 157.533 13.0546C157.688 13.0546 157.756 13.2075 157.768 13.5245L158.305 25.2389C158.305 25.3974 158.305 25.6749 158.305 26.0655C158.347 26.7022 158.202 27.3371 157.888 27.8943C157.535 28.355 157.024 28.673 156.452 28.7889C156.323 28.8005 156.202 28.855 156.109 28.9434C156.015 29.0318 155.955 29.149 155.937 29.2758C155.928 29.3364 155.933 29.3984 155.952 29.4567C155.971 29.5151 156.003 29.5683 156.046 29.6122C156.089 29.6562 156.142 29.6895 156.201 29.7097C156.259 29.73 156.322 29.7365 156.383 29.7288C156.918 29.7042 157.451 29.6475 157.979 29.5589C159.006 29.4303 160.04 29.3716 161.074 29.3834C161.677 29.3834 162.699 29.4627 164.141 29.6212C164.661 29.6835 165.045 29.7174 165.285 29.7174C166.074 29.7118 166.475 29.5532 166.475 29.2249Z" fill="#231F20"/>
<path d="M182.16 27.9158C182.018 27.9326 181.881 27.9748 181.754 28.0404C181.513 28.1361 181.253 28.1786 180.993 28.1649C180.026 28.1649 179.534 27.5591 179.534 26.3531C179.534 25.8322 179.575 24.8018 179.649 23.2618C179.718 21.9029 179.752 20.7819 179.752 19.8647C179.752 18.0925 179.363 16.8469 178.608 16.1335C177.593 15.1936 176.068 14.7237 174.031 14.7237C172.417 14.6785 170.831 15.1468 169.506 16.0599C168.939 16.4678 168.554 17.0762 168.43 17.7584C168.396 17.9396 168.356 18.0868 168.327 18.2171C168.278 18.3402 168.247 18.4699 168.236 18.6021C168.215 18.6922 168.217 18.7861 168.241 18.8753C168.266 18.9646 168.312 19.0467 168.375 19.1142C168.439 19.1818 168.519 19.2329 168.607 19.2631C168.695 19.2932 168.79 19.3015 168.882 19.2871C170.709 19.2871 171.623 18.8908 171.623 18.0982L171.571 17.7641C171.542 17.5977 171.529 17.429 171.531 17.2602C171.531 16.326 172.103 15.8561 173.247 15.8561C173.678 15.8522 174.102 15.9536 174.483 16.1511C174.865 16.3487 175.191 16.6363 175.433 16.9884C176.023 17.8262 176.318 18.8329 176.274 19.8533C176.263 20.3197 176.197 20.7833 176.079 21.2348C173.142 21.7784 171.176 22.3049 170.181 22.8145C169.416 23.1798 168.776 23.7603 168.343 24.4834C167.909 25.2064 167.701 26.04 167.744 26.8797C167.72 27.3151 167.784 27.7509 167.932 28.1618C168.079 28.5728 168.307 28.951 168.602 29.2746C168.912 29.5718 169.281 29.8021 169.686 29.9512C170.091 30.1003 170.522 30.1649 170.953 30.1409C172.399 30.1409 174.22 29.4407 176.417 28.0404C177.118 29.3766 177.988 30.0447 179.025 30.0447C179.514 30.0518 179.997 29.9349 180.427 29.7049L181.033 29.3539L181.726 28.9972C181.905 28.9296 182.063 28.8166 182.185 28.6696C182.306 28.5225 182.386 28.3466 182.418 28.1593C182.422 28.1253 182.418 28.091 182.406 28.0588C182.394 28.0267 182.375 27.9977 182.35 27.9741C182.325 27.9505 182.295 27.933 182.262 27.9228C182.229 27.9127 182.194 27.9103 182.16 27.9158ZM176.205 23.1032V24.4621C176.232 25.2212 176.172 25.9809 176.028 26.7268C175.99 26.9232 175.913 27.11 175.801 27.2763C175.689 27.4426 175.544 27.585 175.375 27.695C174.769 28.0756 174.063 28.2724 173.344 28.2612C172.097 28.2612 171.474 27.4798 171.474 25.9228C171.495 25.4158 171.63 24.9198 171.869 24.4704C172.107 24.0211 172.443 23.6296 172.852 23.324C173.236 22.9601 173.691 22.677 174.188 22.4921C174.686 22.3072 175.216 22.2243 175.747 22.2483C175.879 22.2448 176.009 22.2761 176.125 22.3389L176.234 22.7296V23.1032H176.205Z" fill="#231F20"/>
<path d="M194.655 15.5223C194.154 15.0516 193.527 14.7333 192.848 14.6051C192.334 14.7437 191.865 15.0108 191.486 15.3808C190.929 15.7837 190.435 16.2665 190.022 16.8132C189.621 17.3794 189.364 17.6738 189.249 17.6625C189.18 17.653 189.117 17.6211 189.068 17.572C189.019 17.5228 188.988 17.4591 188.98 17.3907V17.1982L189.049 16.0998L189.1 15.1034C189.1 14.8486 189.1 14.6731 189.1 14.5938C189.1 14.339 189.009 14.2031 188.832 14.2031C188.736 14.2055 188.643 14.2394 188.568 14.2994L187.882 14.7014C186.59 15.409 185.175 15.8718 183.711 16.0659C183.649 16.0659 183.586 16.0782 183.528 16.1022C183.47 16.1261 183.418 16.1613 183.374 16.2055C183.329 16.2497 183.295 16.3022 183.271 16.3599C183.248 16.4176 183.236 16.4793 183.237 16.5415C183.235 16.5937 183.244 16.6458 183.264 16.6942C183.284 16.7426 183.315 16.7861 183.353 16.822C183.391 16.8579 183.437 16.8853 183.487 16.9023C183.537 16.9194 183.59 16.9257 183.643 16.9208C184.163 16.8985 184.672 17.0772 185.062 17.4191C185.336 17.9414 185.449 18.532 185.388 19.1176V25.3909V26.127C185.388 27.65 184.924 28.5219 183.986 28.7428C183.873 28.7507 183.767 28.7985 183.687 28.8776C183.608 28.9566 183.559 29.0615 183.551 29.1731C183.543 29.2385 183.55 29.305 183.573 29.3671C183.595 29.4292 183.632 29.4851 183.681 29.5304C183.729 29.5756 183.788 29.6089 183.852 29.6275C183.916 29.6461 183.983 29.6494 184.049 29.6373C184.255 29.6404 184.462 29.6291 184.667 29.6034L185.765 29.4788C186.292 29.4278 186.909 29.4052 187.55 29.4052C188.772 29.4019 189.993 29.4947 191.2 29.6826C191.362 29.7127 191.527 29.7297 191.692 29.7336C191.75 29.7387 191.809 29.7306 191.864 29.7097C191.919 29.6888 191.968 29.6557 192.008 29.613C192.048 29.5704 192.077 29.5192 192.094 29.4636C192.11 29.4079 192.114 29.3492 192.104 29.292C192.096 29.226 192.075 29.1622 192.042 29.1044C192.009 29.0467 191.964 28.9962 191.911 28.956C191.857 28.9158 191.796 28.8867 191.731 28.8705C191.666 28.8543 191.598 28.8513 191.532 28.8617C189.816 28.6239 188.923 27.5821 188.923 25.7306V20.7992C188.923 18.9685 189.615 18.0532 191 18.0532C191.382 18.052 191.76 18.1254 192.114 18.2692C192.467 18.413 192.789 18.6243 193.059 18.8911L193.546 19.3328C193.659 19.4424 193.81 19.5052 193.969 19.5083C194.335 19.5083 194.77 19.0553 195.262 18.1438C195.5 17.7553 195.691 17.3412 195.834 16.9095C195.868 16.5868 195.462 16.1338 194.655 15.5223Z" fill="#231F20"/>
<path d="M211.42 13.7056C211.372 13.703 211.324 13.7106 211.28 13.7277C211.235 13.7448 211.195 13.7711 211.161 13.8048C211.127 13.8385 211.102 13.8789 211.085 13.9233C211.068 13.9677 211.062 14.015 211.065 14.0622C211.013 14.6375 210.736 15.1698 210.293 15.5457C209.733 15.9321 209.075 16.1556 208.393 16.1911C207.03 15.2274 205.389 14.725 203.714 14.7587C202.068 14.689 200.449 15.1896 199.137 16.1741C198.575 16.5903 198.121 17.1318 197.811 17.7546C197.501 18.3774 197.343 19.0638 197.352 19.7581C197.368 20.5027 197.564 21.2328 197.924 21.8869C198.22 22.5292 198.697 23.0736 199.297 23.4553C199.466 23.5102 199.622 23.5988 199.754 23.7157C199.887 23.8325 199.994 23.9752 200.069 24.1347C200.066 24.1981 200.05 24.2602 200.023 24.3175C199.995 24.3749 199.957 24.4262 199.909 24.4687L199.337 24.9953C198.958 25.3268 198.654 25.7347 198.447 26.1916C198.24 26.6486 198.134 27.1441 198.136 27.645C198.135 28.3607 198.419 29.048 198.925 29.5587L199.451 30.0853L199.595 30.3174C199.355 30.5116 199.057 30.6212 198.748 30.6288C198.231 30.7386 197.771 31.0303 197.455 31.4498C197.102 31.845 196.9 32.3496 196.883 32.8766C196.883 33.8731 197.455 34.6261 198.599 35.1413C199.743 35.6565 201.425 35.9283 203.616 35.9283C206.137 35.9283 208.033 35.4225 209.303 34.4109C209.893 33.9836 210.374 33.4247 210.706 32.7795C211.038 32.1343 211.212 31.4208 211.214 30.6968C211.263 30.1323 211.122 29.5676 210.811 29.0918C210.5 28.616 210.038 28.2564 209.497 28.0697C208.353 27.6394 206.065 27.4299 202.632 27.4299C200.859 27.4299 199.972 26.9222 199.972 25.9068C199.961 25.5174 200.094 25.1373 200.344 24.8367C200.457 24.7002 200.599 24.5906 200.761 24.5161C200.922 24.4416 201.098 24.4041 201.276 24.4064C201.486 24.4093 201.695 24.4339 201.9 24.4801C202.49 24.5915 203.09 24.6502 203.691 24.6556C205.299 24.7103 206.883 24.254 208.21 23.3533C208.764 23.0098 209.221 22.5343 209.541 21.9705C209.861 21.4068 210.033 20.7726 210.041 20.1261C210.041 20.0015 210.006 19.6505 209.955 19.09C209.92 18.9031 209.901 18.7137 209.898 18.5238C210.301 18.3634 210.685 18.1583 211.042 17.9123C211.199 17.7509 211.289 17.5365 211.294 17.3122C211.294 17.114 211.362 16.6837 211.448 16.0269C211.558 15.4051 211.63 14.7774 211.666 14.1472C211.723 13.8641 211.614 13.7056 211.42 13.7056ZM200.115 31.1327C200.259 30.975 200.436 30.8502 200.634 30.7671C200.831 30.6839 201.045 30.6445 201.259 30.6515C201.401 30.6521 201.543 30.6635 201.683 30.6854L202.146 30.7817C202.684 30.8666 203.462 30.9572 204.48 31.0251C205.59 31.0531 206.692 31.2225 207.758 31.5291C207.992 31.6338 208.187 31.8089 208.314 32.0296C208.441 32.2502 208.495 32.505 208.468 32.7577C208.46 33.1265 208.349 33.486 208.147 33.796C207.945 34.106 207.66 34.3542 207.323 34.5128C206.392 34.9892 205.351 35.2174 204.303 35.1753C203.125 35.2372 201.954 34.9704 200.922 34.4053C200.538 34.2039 200.218 33.9019 199.996 33.5324C199.774 33.163 199.659 32.7402 199.663 32.3104C199.656 31.875 199.817 31.4534 200.115 31.1327ZM205.836 22.9174C205.599 23.2449 205.285 23.5104 204.921 23.691C204.558 23.8715 204.155 23.9616 203.748 23.9535C203.315 23.9435 202.893 23.821 202.524 23.5984C202.154 23.3758 201.85 23.0608 201.643 22.6852C201.045 21.7074 200.753 20.5769 200.802 19.4353C200.746 18.4184 201.02 17.4104 201.585 16.5591C201.824 16.2212 202.144 15.9478 202.517 15.7639C202.89 15.5799 203.303 15.4913 203.719 15.506C205.661 15.506 206.631 17.063 206.631 20.177C206.678 21.1506 206.403 22.1127 205.847 22.9174H205.836Z" fill="#231F20"/>
<path d="M221.446 28.789C220.468 28.7324 219.793 28.472 219.438 27.9964C219.083 27.5208 218.866 26.6942 218.866 25.4995V15.5177C218.866 15.0987 218.866 14.8326 218.866 14.725V14.5665C218.875 14.5287 218.876 14.4894 218.869 14.4512C218.861 14.4131 218.845 14.377 218.823 14.3453C218.8 14.3136 218.77 14.2872 218.736 14.2677C218.703 14.2482 218.665 14.2362 218.626 14.2324C218.516 14.2448 218.413 14.288 218.328 14.357C217.051 15.2195 215.601 15.7989 214.078 16.0555C213.362 16.2141 212.996 16.4349 212.996 16.735C212.988 16.8231 213.006 16.9117 213.048 16.9897C213.11 17.0437 213.183 17.0838 213.262 17.1072C213.341 17.1307 213.424 17.137 213.505 17.1256H213.917C214.124 17.105 214.333 17.1436 214.519 17.2369C214.704 17.3303 214.859 17.4744 214.964 17.6522C215.203 18.2571 215.302 18.9069 215.256 19.5546V25.5165V26.2582C215.259 26.7745 215.166 27.2869 214.981 27.7699C214.88 28.1454 214.644 28.4715 214.318 28.6871L213.717 28.9872C213.649 29.0192 213.591 29.0697 213.551 29.1329C213.51 29.196 213.489 29.2691 213.488 29.3439C213.483 29.3925 213.49 29.4416 213.507 29.4874C213.524 29.5332 213.552 29.5744 213.588 29.6078C213.624 29.6412 213.667 29.666 213.714 29.6801C213.762 29.6942 213.811 29.6974 213.86 29.6893C214.064 29.6802 214.267 29.6537 214.467 29.61C215.306 29.4617 216.155 29.3765 217.007 29.3552C217.241 29.3552 217.722 29.3892 218.46 29.4571L219.793 29.5874C220.182 29.6213 220.433 29.644 220.554 29.644C221.497 29.644 221.955 29.4854 221.955 29.1797C221.955 28.874 221.835 28.8173 221.446 28.789Z" fill="#231F20"/>
<path d="M236.178 25.9452C236.121 25.9479 236.066 25.9618 236.015 25.9861C235.964 26.0105 235.918 26.0447 235.88 26.0868L235.308 26.653C234.826 27.0949 234.259 27.4371 233.641 27.6597C233.023 27.8823 232.367 27.9809 231.71 27.9495C231.021 27.9352 230.345 27.7656 229.732 27.4536C229.119 27.1416 228.587 26.6955 228.174 26.1491C227.172 25.0021 226.627 23.5324 226.641 22.0159C226.617 21.7785 226.687 21.5411 226.836 21.3535C227.038 21.2499 227.267 21.2085 227.494 21.2346H228.066H229.811L233.163 21.1836H234.244H234.65L235.463 21.2233C236.104 21.2233 236.418 20.9911 236.418 20.5325C236.418 19.3265 235.846 18.1149 234.753 16.892C234.168 16.217 233.443 15.6756 232.626 15.3051C231.809 14.9347 230.921 14.7439 230.022 14.7461C229.08 14.7501 228.151 14.9633 227.304 15.3699C226.456 15.7766 225.712 16.3664 225.125 17.0958C223.763 18.6284 223.029 20.6093 223.066 22.6501C222.98 24.6343 223.671 26.5749 224.994 28.0684C225.62 28.759 226.392 29.3054 227.255 29.6693C228.118 30.0331 229.051 30.2056 229.988 30.1747C231.911 30.1344 233.749 29.3807 235.137 28.0628C236.052 27.2588 236.504 26.6813 236.504 26.3642C236.517 26.3148 236.519 26.2631 236.508 26.213C236.498 26.163 236.476 26.1159 236.445 26.0755C236.413 26.035 236.373 26.0022 236.327 25.9796C236.28 25.9571 236.229 25.9453 236.178 25.9452ZM227.465 16.7844C227.693 16.4349 228.003 16.1453 228.369 15.9402C228.734 15.7351 229.145 15.6207 229.565 15.6067C230.004 15.613 230.437 15.7146 230.832 15.9044C231.227 16.0942 231.576 16.3675 231.853 16.7051C232.5 17.3869 232.856 18.2893 232.848 19.2246C232.848 19.8588 232.333 20.1702 231.292 20.1702C231.126 20.1702 230.514 20.1702 229.456 20.2438C229.015 20.2438 228.609 20.2834 228.22 20.2834C227.754 20.3127 227.286 20.2764 226.83 20.1758C226.728 20.1136 226.648 20.021 226.601 19.9112C226.555 19.8015 226.545 19.6801 226.573 19.5643C226.548 18.5651 226.862 17.5865 227.465 16.7844Z" fill="#231F20"/>
<path d="M246.51 28.743C245.765 28.6984 245.067 28.3672 244.565 27.8201C244.233 27.3728 244.067 26.5632 244.067 25.3969V24.8307V9.24927C244.067 8.1622 244.119 6.81468 244.222 5.23502C244.222 4.77641 244.262 4.482 244.262 4.35177C244.262 4.10831 244.176 3.98942 243.999 4.00074C243.887 4.01088 243.78 4.04572 243.684 4.10265L243.112 4.45369C241.983 5.07741 240.757 5.51351 239.485 5.74459C239.122 5.80601 238.766 5.90079 238.421 6.02768C238.356 6.06366 238.303 6.11764 238.268 6.18301C238.234 6.24837 238.219 6.32228 238.226 6.3957C238.22 6.46192 238.23 6.52865 238.254 6.59077C238.278 6.65289 238.316 6.70877 238.365 6.75412C238.414 6.79947 238.473 6.8331 238.537 6.85242C238.601 6.87175 238.669 6.87627 238.736 6.86563C239.024 6.84834 239.31 6.91884 239.557 7.06764C239.803 7.21644 239.998 7.43641 240.114 7.69793C240.433 8.69818 240.561 9.74837 240.492 10.795V25.0062V25.4818L240.458 26.5009C240.458 27.6786 240.011 28.4486 239.113 28.8166C239.009 28.8372 238.912 28.8863 238.834 28.9583C238.756 29.0304 238.7 29.1225 238.673 29.2243C238.66 29.278 238.661 29.3338 238.674 29.3874C238.687 29.4409 238.712 29.4909 238.747 29.5335C238.782 29.5761 238.827 29.6101 238.877 29.6331C238.928 29.656 238.983 29.6672 239.039 29.6659C239.176 29.6574 239.312 29.6366 239.445 29.6036C240.519 29.4548 241.604 29.3942 242.689 29.4224C243.855 29.4096 245.021 29.472 246.178 29.6093C246.459 29.6432 246.665 29.6659 246.796 29.6659C246.85 29.6673 246.904 29.6564 246.953 29.634C247.003 29.6117 247.046 29.5784 247.08 29.5369C247.115 29.4953 247.139 29.4466 247.151 29.3944C247.163 29.3421 247.163 29.2878 247.151 29.2356C247.167 29.1165 247.138 28.9959 247.071 28.8959C246.897 28.8054 246.706 28.7532 246.51 28.743Z" fill="#231F20"/>
<path d="M262.745 27.9159C262.605 27.9326 262.469 27.9748 262.344 28.0404C262.103 28.136 261.843 28.1785 261.583 28.165C260.617 28.165 260.125 27.5592 260.125 26.3532C260.125 25.8323 260.163 24.8018 260.239 23.2618C260.302 21.903 260.336 20.7819 260.336 19.8647C260.336 18.0925 259.953 16.8469 259.192 16.1335C258.181 15.1937 256.656 14.7237 254.615 14.7237C253 14.6781 251.411 15.1464 250.084 16.0599C249.519 16.4686 249.134 17.0767 249.009 17.7585C248.975 17.9397 248.935 18.0869 248.906 18.2171C248.857 18.3404 248.826 18.4701 248.814 18.6021C248.793 18.6928 248.795 18.7873 248.82 18.8771C248.844 18.9669 248.891 19.0493 248.956 19.1171C249.02 19.1848 249.1 19.2358 249.19 19.2654C249.279 19.2951 249.374 19.3026 249.467 19.2872C251.286 19.2872 252.207 18.8909 252.207 18.0982L252.127 17.7585C252.113 17.5889 252.113 17.4185 252.127 17.2489C252.127 16.3128 252.699 15.8448 253.843 15.8448C254.273 15.841 254.698 15.9423 255.079 16.1399C255.46 16.3374 255.786 16.625 256.028 16.9772C256.618 17.8191 256.91 18.8303 256.858 19.8534C256.848 20.3198 256.782 20.7834 256.663 21.2349C253.727 21.7784 251.761 22.305 250.765 22.8145C250 23.1798 249.361 23.7603 248.927 24.4834C248.494 25.2065 248.285 26.04 248.328 26.8797C248.302 27.3163 248.363 27.7536 248.509 28.1665C248.654 28.5795 248.88 28.9599 249.175 29.286C249.485 29.5834 249.854 29.814 250.259 29.9631C250.663 30.1122 251.095 30.1766 251.526 30.1523C252.975 30.1523 254.797 29.4521 256.99 28.0517C257.699 29.3804 258.572 30.0447 259.61 30.0447C260.099 30.0519 260.581 29.9349 261.011 29.705L261.618 29.354L262.31 28.9973C262.487 28.9307 262.644 28.8194 262.764 28.6744C262.885 28.5294 262.965 28.3557 262.996 28.1706C263.002 28.1364 263 28.1013 262.989 28.0682C262.979 28.0351 262.96 28.0049 262.936 27.9801C262.911 27.9552 262.881 27.9365 262.848 27.9253C262.815 27.9142 262.779 27.9109 262.745 27.9159ZM256.789 23.1033V24.4621C256.816 25.2212 256.756 25.9809 256.612 26.7269C256.574 26.9233 256.497 27.1103 256.385 27.2766C256.273 27.443 256.129 27.5853 255.96 27.695C255.353 28.076 254.647 28.2728 253.929 28.2612C252.682 28.2612 252.058 27.4818 252.058 25.9229C252.081 25.416 252.216 24.9203 252.454 24.471C252.692 24.0218 253.028 23.6302 253.437 23.3241C253.822 22.9605 254.278 22.6778 254.776 22.4929C255.274 22.308 255.806 22.2248 256.337 22.2483C256.467 22.2464 256.595 22.2776 256.709 22.3389L256.818 22.7296V23.1033H256.789Z" fill="#231F20"/>
<path d="M69.5589 10.9705C70.8006 10.9705 71.8072 9.96669 71.8072 8.72842C71.8072 7.49015 70.8006 6.48633 69.5589 6.48633C68.3171 6.48633 67.3105 7.49015 67.3105 8.72842C67.3105 9.96669 68.3171 10.9705 69.5589 10.9705Z" fill="#231F20"/>
<path d="M214.674 8.53036C214.682 8.96868 214.821 9.39492 215.072 9.75558C215.324 10.1162 215.678 10.3953 216.089 10.5576C216.501 10.72 216.952 10.7584 217.385 10.6681C217.819 10.5779 218.215 10.3629 218.526 10.0502C218.836 9.73746 219.046 9.34097 219.13 8.91046C219.214 8.47995 219.167 8.0346 218.995 7.63032C218.824 7.22604 218.536 6.88084 218.167 6.63805C217.798 6.39526 217.365 6.26569 216.922 6.26562C216.624 6.26634 216.329 6.3257 216.054 6.44026C215.779 6.55482 215.529 6.7223 215.32 6.93298C215.111 7.14366 214.946 7.39335 214.835 7.66756C214.724 7.94177 214.67 8.23505 214.674 8.53036Z" fill="#231F20"/>
</svg>
