<svg width="200" height="31" viewBox="0 0 200 31" fill="none" xmlns="http://www.w3.org/2000/svg">
<g clip-path="url(#clip0_2241_11264)">
<path d="M3.63008 30.9974H0.822341C0.58807 30.9974 0.00195312 30.9974 0.00195312 30.6468C0.00195312 30.4145 0.119527 30.2962 0.470495 30.1788C3.04748 29.3593 3.62921 27.957 3.62921 25.9718V5.03082C3.62921 3.15872 3.04309 1.75553 0.470495 0.823862C0.119527 0.823862 0.00195312 0.58985 0.00195312 0.473282C0.00195312 0.00613516 0.58807 0.122703 0.822341 0.122703H24.0047C29.2736 0.122703 33.6071 4.32966 33.6071 9.59624C33.6071 14.8628 29.2736 19.0645 24.0047 19.0645H12.2955V26.1997C12.4131 28.0709 12.9974 29.3549 15.4542 30.1761C15.8052 30.2936 15.9219 30.411 15.9219 30.6442C15.9219 30.9947 15.3366 30.9947 15.1024 30.9947H3.63008V30.9974ZM176.464 19.6517H181.967L176.464 10.2939L175.877 9.35785L170.964 19.6517H176.464ZM176.464 0.00262935H180.212L195.901 27.6108C196.37 28.3119 196.954 29.0131 197.656 29.3637C198.241 29.8326 198.943 29.9509 199.528 30.1831C199.763 30.3015 199.997 30.4189 199.997 30.6521C199.997 31.0026 199.411 31.0026 199.176 31.0026H185.243C185.009 31.0026 184.305 31.0026 184.305 30.6521C184.305 30.4189 184.54 30.3015 184.776 30.1831C185.478 29.9509 185.945 29.5994 186.18 28.8983C186.415 28.0779 186.18 27.6125 185.595 26.5573C184.8 24.8692 183.981 23.1929 183.138 21.5282H170.023L169.907 21.7614C169.789 22.2303 168.854 23.8648 168.152 25.6221C167.217 27.4933 166.865 27.9605 167.1 28.8965C167.218 29.5977 167.802 29.9483 168.503 30.1823C168.739 30.3006 168.854 30.418 168.854 30.6503C168.854 31.0009 168.267 31.0009 168.034 31.0009H161.593C161.36 31.0009 160.773 31.0009 160.773 30.6503C160.773 30.418 160.891 30.2997 161.241 30.1823C161.828 29.9491 162.528 29.8317 163.114 29.3628C163.816 29.0122 164.403 28.3111 164.869 27.6099L165.69 25.857L174.589 7.25349L173.299 5.03082C172.131 3.15872 170.958 1.98954 169.67 1.2875C169.085 0.936924 168.499 0.936924 167.916 0.702912C167.565 0.585468 167.446 0.468024 167.565 0.234012C167.565 0 167.798 0.117444 167.916 0H176.465L176.464 0.00262935ZM141.455 30.8791H141.924C163.471 30.8791 163.237 0.115691 141.924 0.115691H124.243C123.892 0.115691 123.308 -0.0017529 123.308 0.466271C123.308 0.582839 123.541 0.81685 123.774 0.81685C126.35 1.63545 126.933 3.03952 127.052 4.79505V26.2058C126.937 28.0762 126.35 29.361 123.774 30.1814C123.541 30.2997 123.308 30.4172 123.308 30.6503C123.308 31.0009 123.893 31.0009 124.243 31.0009H135.601V30.8826H141.455V30.8791ZM141.455 2.34012C143.037 2.34635 144.553 2.97673 145.672 4.09398C146.791 5.21123 147.423 6.72486 147.43 8.30523V22.5756C147.423 24.156 146.791 25.6698 145.672 26.7871C144.553 27.9044 143.037 28.5347 141.455 28.5407H135.597V2.34012H141.455ZM96.8393 19.6517H102.342L96.8393 10.2939L96.2532 9.35785L91.3396 19.6517H96.8393ZM96.8393 0.00262935H100.7L116.391 27.6108C116.742 28.3119 117.328 29.0131 118.031 29.3637C118.615 29.8326 119.32 29.9509 120.022 30.1831C120.255 30.3015 120.488 30.4189 120.488 30.6521C120.488 31.0026 119.786 31.0026 119.553 31.0026H105.624C105.389 31.0026 104.804 31.0026 104.804 30.6521C104.804 30.4189 104.919 30.3015 105.27 30.1831C105.857 29.9509 106.441 29.5994 106.559 28.8983C106.793 28.0779 106.559 27.6125 106.091 26.5573C105.27 24.8044 104.336 23.1654 103.516 21.5282H90.3982L90.2815 21.7614C90.1648 22.2303 89.3444 23.8648 88.5266 25.6221C87.7071 27.4933 87.2394 27.9605 87.4737 28.8965C87.708 29.5977 88.1757 29.9483 88.8776 30.1823C89.111 30.3006 89.3453 30.418 89.3453 30.6503C89.3453 31.0009 88.76 31.0009 88.4099 31.0009H82.0846C81.8503 31.0009 81.1475 31.0009 81.1475 30.6503C81.1475 30.418 81.3818 30.2997 81.6161 30.1823C82.318 29.9491 82.9041 29.8317 83.6078 29.3628C84.1922 29.0122 84.8959 28.3111 85.2459 27.6099L86.0655 25.857L95.0827 7.25349L93.7964 5.03082C92.6259 3.15872 91.3396 1.98954 90.1665 1.2875C89.4646 0.936924 88.9952 0.936924 88.2924 0.702912C88.0572 0.585468 87.8229 0.468024 87.9414 0.234012C88.0598 0 88.2923 0.117444 88.4108 0H96.841L96.8393 0.00262935ZM58.1968 20.4712C60.8905 21.4055 64.1694 21.6386 66.7447 20.8218L76.9333 29.5951L77.7528 30.2962C77.7975 30.3421 77.8314 30.3974 77.8519 30.458C77.8724 30.5187 77.879 30.5832 77.8712 30.6468C77.8712 30.9974 77.2851 30.9974 77.05 30.9974H66.2779L58.1986 24.3302L51.6399 19.0654V26.3189C51.7583 28.0718 52.4603 29.3593 54.9188 30.1753C55.1531 30.2936 55.2698 30.4102 55.2698 30.6433C55.2698 30.9939 54.6836 30.9939 54.4485 30.9939H40.2808C39.9298 30.9939 39.3437 30.9939 39.3437 30.6433C39.3437 30.4102 39.5789 30.2927 39.8114 30.1753C42.6191 29.241 42.9701 27.8369 43.0903 25.6177V5.3814C42.9727 3.27792 42.6218 1.75553 39.8114 0.823862C39.5771 0.823862 39.3437 0.58985 39.3437 0.473282C39.3437 0.00613516 39.9298 0.122703 40.2808 0.122703H63.1148C64.3551 0.117397 65.5844 0.356196 66.7323 0.825463C67.8803 1.29473 68.9245 1.98527 69.8052 2.85766C70.686 3.73005 71.3861 4.7672 71.8656 5.90987C72.3451 7.05255 72.5945 8.27838 72.5997 9.51736V9.59624C72.6086 12.0972 71.623 14.4993 69.8596 16.2748C68.0962 18.0502 65.6992 19.0536 63.1955 19.0645H55.7374C56.0884 19.7657 56.9079 20.0006 57.6098 20.352C57.845 20.352 57.9608 20.4712 58.196 20.4712H58.1968ZM58.1968 16.8453H59.1383C62.1821 16.8453 64.7591 13.5692 64.7591 9.35785C64.7538 5.26395 62.1777 1.98954 59.1383 1.98954H51.639V16.8453H58.1968ZM18.9691 1.99042H12.2955V16.8462H20.0247C23.1834 16.8462 25.6402 13.5701 25.6402 9.35872C25.6402 5.26571 23.1834 1.99042 20.0247 1.99042H18.9691Z" fill="#231F20"/>
</g>
<defs>
<clipPath id="clip0_2241_11264">
<rect width="200" height="31" fill="white"/>
</clipPath>
</defs>
</svg>
