<svg width="161" height="74" viewBox="0 0 161 74" fill="none" xmlns="http://www.w3.org/2000/svg">
<path d="M72.9346 18.8005C74.2197 18.516 75.2056 18.1433 75.7009 17.1917C75.7009 17.1917 76.1718 17.437 75.6666 18.0599C75.1614 18.6779 72.4833 19.9826 72.9346 18.8005ZM71.4533 17.0397L73.8469 15.2347C74.0774 14.9992 74.4992 15.4946 74.1902 15.6908L71.7966 17.4909C71.5465 17.6675 71.1639 17.2898 71.4533 17.0397ZM72.0125 13.4493C72.7482 13.1354 72.8512 13.6602 72.8512 13.6602C71.8015 13.8711 71.1688 14.7098 70.541 15.8674C69.2804 15.9753 71.2767 13.7681 72.0125 13.4493ZM67.3479 4.31632C66.8378 4.591 66.3424 4.66457 66.2492 4.48309C66.1511 4.30651 66.4895 3.93864 67.0045 3.66887C67.5196 3.3942 68.01 3.32062 68.1081 3.50211C68.2013 3.68359 67.8629 4.04655 67.3479 4.31632ZM99.8527 32.3626C97.0177 31.8378 94.8154 31.3129 94.8154 31.3129C92.5003 28.8997 90.607 29.9494 89.0325 27.7422C88.0172 26.3197 86.3005 24.4853 84.2012 23.4357C86.4035 22.3811 91.6566 22.1702 93.133 23.5387C94.6045 24.9022 96.0269 25.4123 96.7773 24.9513C97.5327 24.4853 99.6467 24.7992 99.8527 25.432C100.064 26.0598 103.37 27.0947 102.379 25.2211C100.696 22.1702 94.4966 18.9133 87.7719 20.9096C81.0473 22.9059 80.6255 19.86 78.0014 19.5461C77.1577 20.4927 75.1614 21.5424 74.1118 20.9096C75.8971 21.1205 79.3649 17.9716 79.3649 16.2892C79.3649 13.5474 80.3116 11.8748 81.1552 11.2421C81.9939 10.6142 82.8327 8.82884 83.2545 6.83254C76.422 6.83254 71.6936 9.34876 70.4331 11.7718C70.4331 11.036 71.2767 9.55967 73.0621 8.61793C74.1118 2.73204 70.8549 1.36847 70.8549 1.36847C70.8549 1.36847 69.9083 2.83994 70.2222 2.31021C70.541 1.78539 70.644 0.946647 70.8549 0C64.4442 3.57568 65.6017 5.57198 62.4479 7.46037C60.2505 8.77979 61.5012 9.45667 61.5012 9.45667C61.5012 9.45667 61.7121 9.77058 63.0806 9.55967C62.4479 9.55967 61.6091 11.9778 62.9727 11.1391C64.3412 10.2954 65.1799 9.98149 67.0732 9.45667C64.969 8.1961 69.3883 9.23104 68.9616 9.66758C59.9268 11.1391 60.9764 16.3922 60.9764 16.3922C60.9764 16.3922 60.6625 15.9704 56.562 14.7098C52.4664 13.4493 53.83 15.5535 55.6202 21.8563C57.4056 28.1591 58.7692 27.2173 60.4516 26.6925L59.294 24.4853C57.7195 27.3204 56.6699 18.8103 56.6699 18.8103C56.6699 18.8103 55.3014 15.9704 57.5086 17.3389C60.8734 18.5994 62.7618 23.5387 66.5484 22.6999C70.8549 29.5276 75.2693 26.3737 79.9927 29.1057C79.9927 29.1057 79.7867 28.37 80.5225 27.7422C80.3116 35.8304 90.0821 31.7348 93.0251 32.8923C95.4432 33.8341 95.3402 33.3092 100.382 34.2559C105.278 35.1731 102.168 37.0958 102.168 37.0958H105.008C105.425 34.148 102.693 32.8923 99.8527 32.3626Z" fill="#231F20"/>
<path d="M84.0116 6.8916C83.5947 8.8879 82.7511 10.6733 81.9123 11.306C81.0736 11.9338 80.127 13.6064 80.127 16.3483C80.127 16.3483 81.9172 16.9369 86.42 16.8339C89.3482 16.309 87.7786 14.6463 85.6891 14.6365C88.4064 14.4255 90.7363 16 92.6982 14.3225C93.4291 13.6947 92.4873 13.1699 90.8148 12.5421C94.1648 13.2729 97.5001 13.1846 96.7791 11.9584C96.3279 11.1932 94.4787 10.9725 94.4787 10.9725C94.4787 10.9725 102.842 12.2527 97.6179 9.61383C93.9147 7.74015 88.7498 7.37719 84.0116 6.8916Z" fill="#231F20"/>
<path d="M72.8121 63.7986C72.5473 63.8133 72.3314 63.8526 72.1745 63.9163C72.0126 63.9752 71.8655 64.0782 71.7281 64.2204C71.6251 64.3234 71.5516 64.4362 71.4976 64.5638C71.4486 64.6864 71.4142 64.8483 71.3946 65.0395C71.3603 65.2946 71.3456 65.5938 71.3456 65.942V71.3718C71.3456 71.877 71.3701 72.2498 71.4289 72.495C71.4829 72.7403 71.5859 72.9365 71.7281 73.0836C71.9832 73.3436 72.3462 73.4858 72.8121 73.5103V73.6771H68.3487V73.5103C68.6184 73.4956 68.8392 73.4564 69.001 73.3926C69.1678 73.3239 69.3149 73.2209 69.4474 73.0836C69.5896 72.9266 69.6877 72.7304 69.7417 72.4852C69.7956 72.24 69.825 71.8721 69.825 71.3718V64.7894L66.2297 73.6771H66.0826L62.5069 64.9218V71.3718C62.5069 71.877 62.5314 72.2498 62.5854 72.4901C62.6393 72.7304 62.7374 72.9266 62.8846 73.0836C63.0121 73.2258 63.1593 73.3288 63.326 73.3926C63.4928 73.4564 63.7086 73.4956 63.9735 73.5103V73.6771H60.7559V73.5103C61.0207 73.4956 61.2365 73.4564 61.3984 73.3926C61.5652 73.3288 61.7123 73.2258 61.8447 73.0836C61.987 72.9266 62.0851 72.7304 62.139 72.4852C62.193 72.24 62.2224 71.8721 62.2224 71.3718V65.942C62.2224 65.7164 62.2126 65.5055 62.1979 65.3044C62.1783 64.9414 62.1243 64.6766 62.0409 64.5049C61.9232 64.2744 61.7614 64.1076 61.5603 63.9948C61.3592 63.8869 61.0894 63.8182 60.7559 63.7986V63.6318H63.7871L66.8085 71.5042L69.9428 63.6318H72.8121V63.7986Z" fill="#231F20"/>
<path d="M72.8148 63.7983L72.805 63.6414C72.5303 63.661 72.3047 63.6953 72.1183 63.7689C71.9319 63.8376 71.7651 63.9553 71.618 64.1122L71.7308 64.2202L71.618 64.1073C71.5052 64.2251 71.4169 64.3575 71.3531 64.5046C71.2943 64.6469 71.2599 64.8186 71.2403 65.0197C71.206 65.2796 71.1913 65.5886 71.1913 65.9418V71.3715C71.1913 71.8816 71.2158 72.2642 71.2796 72.5291C71.3384 72.7988 71.4512 73.0245 71.618 73.1961C71.9074 73.4904 72.3145 73.6425 72.805 73.667L72.8148 73.5101H72.6578V73.5199H68.5083V73.5101H68.3513L68.3611 73.667C68.6407 73.6523 68.8761 73.6131 69.0625 73.5346C69.2489 73.461 69.4206 73.3482 69.5628 73.1912C69.7296 73.0098 69.8424 72.7841 69.9013 72.5193C69.9552 72.2544 69.9847 71.8767 69.9847 71.3715V64.7891L69.6806 64.7303L66.1245 73.5199H66.0853V73.6768L66.2275 73.618L62.6518 64.8578L62.3526 64.9216V71.3715C62.3526 71.8816 62.3771 72.2593 62.436 72.5242C62.4949 72.7841 62.6028 73.0098 62.7695 73.1912C62.9118 73.3482 63.0834 73.4659 63.2698 73.5395C63.4611 73.6131 63.6917 73.6523 63.9663 73.667L63.9761 73.5101H63.8192V73.5199H60.9155V73.5101H60.7585L60.7634 73.667C61.043 73.6523 61.2735 73.6131 61.4599 73.5395C61.6463 73.4659 61.818 73.3482 61.9602 73.1912C62.127 73.0098 62.2398 72.7841 62.2987 72.5193C62.3526 72.2544 62.382 71.8767 62.382 71.3715V65.9418C62.382 65.7112 62.3722 65.4954 62.3575 65.2894C62.333 64.9167 62.2839 64.6371 62.1809 64.436C62.0534 64.1809 61.8719 63.9847 61.6365 63.8572C61.406 63.7297 61.1166 63.6659 60.7634 63.6414L60.7585 63.7983H60.9155V63.7885H63.6769L66.8063 71.9356L70.0484 63.7885H72.6578V63.7983H72.8148H72.9717V63.4746H69.8375L66.8112 71.0723L63.8977 63.4746H60.6016V63.9455L60.7487 63.9553C61.0675 63.9749 61.3128 64.0387 61.4894 64.1319C61.661 64.2251 61.7984 64.3722 61.9014 64.5782C61.97 64.7106 62.024 64.9608 62.0436 65.314C62.0583 65.5101 62.0681 65.7211 62.0681 65.9418V71.3715C62.0681 71.862 62.0387 72.2299 61.9897 72.4506C61.9406 72.6713 61.8523 72.843 61.7297 72.9803C61.6169 73.1029 61.4894 73.1912 61.3471 73.2452C61.2049 73.304 61.0038 73.3433 60.7487 73.3531L60.6016 73.3629V73.8338H64.1331V73.3629L63.981 73.3531C63.7309 73.3433 63.5298 73.304 63.3826 73.2452C63.2453 73.1912 63.1178 73.1029 63.0001 72.9803C62.8774 72.843 62.7892 72.6713 62.7401 72.4555C62.6911 72.2348 62.6665 71.8669 62.6665 71.3715V65.7211L65.9773 73.8338H66.3354L69.6707 65.5935V71.3715C69.6707 71.862 69.6413 72.2299 69.5923 72.4506C69.5432 72.6713 69.4549 72.843 69.3323 72.9803C69.2195 73.098 69.092 73.1863 68.9448 73.2452C68.8075 73.2991 68.6015 73.3433 68.3464 73.3531L68.1944 73.3629V73.8338H72.9717V73.3629L72.8246 73.3531C72.3832 73.3286 72.0643 73.201 71.8436 72.9754C71.721 72.8528 71.6376 72.686 71.5837 72.4604C71.5297 72.2348 71.5052 71.8669 71.5052 71.3715V65.9418C71.5052 65.5984 71.5199 65.3041 71.5542 65.0589V65.054C71.5689 64.8725 71.6033 64.7254 71.6474 64.6224L71.8436 64.3281C71.9662 64.2005 72.0938 64.1122 72.2311 64.0583C72.3684 64.0092 72.5695 63.97 72.8246 63.9553L72.9717 63.9504V63.7983H72.8148Z" fill="#231F20"/>
<path d="M74.8936 64.6718C74.7121 64.6718 74.5601 64.613 74.4375 64.4904C74.3197 64.3677 74.2609 64.2108 74.2609 64.0244C74.2609 63.8429 74.3197 63.6909 74.4424 63.5682C74.565 63.4407 74.7121 63.377 74.8936 63.377C75.0702 63.377 75.2222 63.4407 75.3449 63.5682C75.4626 63.6909 75.5263 63.8429 75.5263 64.0244C75.5263 64.2108 75.4675 64.3677 75.3449 64.4904C75.2271 64.613 75.0751 64.6718 74.8936 64.6718ZM73.4369 67.5756L75.4479 67.3107V71.5485L75.4528 72.1077C75.4528 72.4412 75.4724 72.6816 75.5116 72.8385C75.546 72.9906 75.6195 73.1181 75.7274 73.2211C75.855 73.3535 76.0953 73.4516 76.4485 73.5203V73.6773H73.3633V73.5203C73.6429 73.4811 73.844 73.4271 73.9617 73.3584C74.0843 73.2849 74.1824 73.1672 74.256 72.9955C74.3099 72.8827 74.3443 72.7159 74.3639 72.4854C74.3884 72.2597 74.3982 71.9311 74.3982 71.5044V69.6945C74.3982 69.1942 74.3835 68.841 74.3639 68.6399C74.3394 68.4339 74.2854 68.2721 74.2069 68.1445C74.1284 68.0072 74.0303 67.9091 73.9224 67.8453C73.8096 67.7865 73.6478 67.7472 73.4369 67.7325V67.5756Z" fill="#231F20"/>
<path d="M74.8924 64.6716V64.5146C74.7452 64.5146 74.6422 64.4705 74.549 64.3773C74.4607 64.2841 74.4166 64.1811 74.4166 64.0241C74.4166 63.877 74.4607 63.774 74.5539 63.6759C74.652 63.5778 74.7501 63.5385 74.8924 63.5336C75.0346 63.5385 75.1327 63.5778 75.2308 63.6759C75.324 63.774 75.3632 63.877 75.3681 64.0241C75.3632 64.1811 75.324 64.2841 75.2308 64.3773C75.1376 64.4705 75.0395 64.5146 74.8924 64.5146V64.8285C75.1082 64.8334 75.3093 64.7501 75.4564 64.598C75.6036 64.4509 75.6821 64.2449 75.6821 64.0241C75.6821 63.8083 75.6036 63.6072 75.4515 63.4552C75.3044 63.3031 75.1082 63.2197 74.8924 63.2197C74.6766 63.2197 74.4754 63.3031 74.3283 63.4552C74.1762 63.6072 74.0978 63.8083 74.1027 64.0241C74.0978 64.2449 74.1762 64.4509 74.3234 64.598C74.4705 64.7501 74.6716 64.8334 74.8924 64.8285V64.6716ZM73.4356 67.5753L73.4552 67.7322L75.2897 67.4919V71.5483L75.2946 72.1074C75.2946 72.4459 75.3142 72.696 75.3534 72.8726C75.3976 73.0541 75.4859 73.211 75.6183 73.3337C75.7851 73.5004 76.0499 73.6034 76.4129 73.677L76.4472 73.52H73.362V73.677H73.519V73.52H73.362L73.3817 73.677C73.671 73.6378 73.8869 73.5838 74.0438 73.4906C74.2008 73.4023 74.3185 73.2503 74.4019 73.0541C74.4607 72.9216 74.5 72.7402 74.5196 72.4998C74.5441 72.2644 74.5539 71.9358 74.5539 71.5041V69.6942C74.5539 69.189 74.5441 68.8358 74.5147 68.62C74.4902 68.3993 74.4362 68.2129 74.3381 68.0609C74.2498 67.9088 74.137 67.7862 73.9948 67.7077C73.8476 67.6341 73.671 67.5949 73.4454 67.5753L73.4356 67.7322H73.5926V67.5753H73.4356H73.2787V67.8794L73.4209 67.8892C73.622 67.9039 73.7642 67.9432 73.8427 67.9873C73.9261 68.0314 73.9997 68.105 74.0732 68.2227C74.137 68.3257 74.1812 68.468 74.2057 68.6544C74.2253 68.8457 74.24 69.1939 74.24 69.6942V71.5041C74.24 71.9259 74.2302 72.2546 74.2057 72.4704C74.1861 72.6911 74.1517 72.8481 74.1125 72.9314C74.0438 73.0835 73.9702 73.1718 73.882 73.2208C73.7986 73.2748 73.6073 73.3287 73.3375 73.368L73.2051 73.3827V73.834H76.6042V73.3925L76.4767 73.368C76.1382 73.3042 75.9273 73.2012 75.8341 73.108C75.7458 73.0246 75.6919 72.9265 75.6624 72.799C75.6281 72.6715 75.6085 72.4311 75.6085 72.1074L75.6036 71.5483V67.1338L73.2787 67.4379V67.5753H73.4356Z" fill="#231F20"/>
<path d="M76.9027 63.6018L78.9137 63.3369V71.5428L78.9186 72.102C78.9186 72.4355 78.9382 72.6808 78.9725 72.8328C79.0118 72.9898 79.0853 73.1173 79.1932 73.2203C79.3208 73.3527 79.5611 73.4508 79.9143 73.5195V73.6765H76.834V73.5195C77.1087 73.4803 77.3098 73.4263 77.4324 73.3576C77.5501 73.2841 77.6482 73.1615 77.7218 72.9898C77.7757 72.8819 77.8101 72.7102 77.8297 72.4797C77.8542 72.254 77.864 71.9254 77.864 71.4938V65.7207C77.864 65.2253 77.8493 64.8722 77.8297 64.6661C77.8052 64.4601 77.7512 64.2934 77.6727 64.1658C77.5942 64.0285 77.4961 63.9304 77.3833 63.8715C77.2705 63.8127 77.1087 63.7735 76.9027 63.7587V63.6018Z" fill="#231F20"/>
<path d="M76.9034 63.6016L76.923 63.7586L78.7574 63.5182V71.5426L78.7623 72.1018C78.7623 72.4402 78.7819 72.6904 78.8212 72.8719C78.8653 73.0485 78.9536 73.2103 79.0811 73.3329C79.2528 73.4997 79.5177 73.6027 79.8855 73.6763L79.915 73.5193H76.8347L76.8543 73.6763C77.1437 73.637 77.3546 73.5782 77.5116 73.4899C77.6685 73.3967 77.7862 73.2447 77.8696 73.0534C77.9285 72.916 77.9628 72.7345 77.9873 72.4942C78.0119 72.2588 78.0217 71.9252 78.0217 71.4936V65.7205C78.0217 65.2202 78.007 64.8671 77.9824 64.6463C77.9579 64.4256 77.904 64.2343 77.8059 64.0823C77.7176 63.9302 77.6048 63.8076 77.4576 63.7291C77.3154 63.6556 77.1339 63.6212 76.9132 63.6016L76.9034 63.7586H77.0603V63.6016H76.9034H76.7464V63.9057L76.8886 63.9155C77.0897 63.9302 77.232 63.9646 77.3154 64.0087C77.3939 64.0528 77.4674 64.1264 77.5361 64.2441C77.6048 64.3471 77.6489 64.4943 77.6734 64.6807C77.6931 64.8769 77.7078 65.2251 77.7078 65.7205V71.4936C77.7078 71.9203 77.698 72.249 77.6734 72.4648C77.6538 72.6855 77.6195 72.8424 77.5802 72.9258C77.5165 73.0828 77.438 73.1711 77.3497 73.2201C77.2663 73.2741 77.0799 73.328 76.8102 73.3673L76.6777 73.382V73.8332H80.067V73.3918L79.9444 73.3673C79.606 73.3035 79.3951 73.2005 79.3019 73.1073C79.2185 73.0239 79.1596 72.9258 79.1302 72.7983C79.0959 72.6659 79.0762 72.4304 79.0762 72.1018L79.0713 71.5426V63.1602L76.7464 63.4643V63.6016H76.9034Z" fill="#231F20"/>
<path d="M83.9578 70.0622C83.7077 70.2829 83.433 70.4791 83.1289 70.6459C82.7905 70.8372 82.555 70.9794 82.4275 71.0775C82.2951 71.1756 82.1773 71.2933 82.0694 71.4307C81.8536 71.7152 81.7408 72.0438 81.7408 72.4215C81.7408 72.7452 81.8242 73.015 81.9959 73.2259C82.1675 73.4368 82.3784 73.5398 82.6433 73.5398C82.8689 73.5398 83.0848 73.4662 83.2859 73.3191C83.487 73.167 83.639 72.9659 83.742 72.7158C83.8892 72.3871 83.9578 71.9114 83.9578 71.2933V70.0622ZM86.268 72.961L86.3907 73.0346C86.219 73.5496 85.8364 73.8046 85.238 73.8046C84.9045 73.8046 84.6298 73.7213 84.4091 73.5496C84.2619 73.4368 84.1148 73.2406 83.9627 72.961C83.6488 73.2553 83.4134 73.4466 83.2564 73.5398C82.9523 73.7164 82.5992 73.8046 82.197 73.8046C81.6869 73.8046 81.2748 73.6771 80.9805 73.4172C80.6764 73.1572 80.5293 72.804 80.5293 72.3626C80.5293 71.9604 80.647 71.6171 80.8972 71.3424C81.0345 71.1903 81.1964 71.0677 81.3778 70.9794C81.5593 70.8862 81.8193 70.7979 82.1675 70.7047C82.5746 70.5968 82.8689 70.5036 83.0651 70.4301C83.2564 70.3565 83.4183 70.2682 83.5458 70.1652C83.6979 70.0524 83.8009 69.92 83.8548 69.7679C83.9088 69.6159 83.9431 69.4049 83.9431 69.1352C83.9431 68.5662 83.8401 68.1444 83.6341 67.8844C83.536 67.7618 83.4183 67.6637 83.2711 67.5901C83.124 67.5166 82.9719 67.4773 82.8101 67.4773C82.6237 67.4773 82.452 67.5313 82.3049 67.6343C82.1528 67.7373 82.04 67.8795 81.9664 68.061L81.7899 68.4877C81.7016 68.7183 81.5348 68.8311 81.2896 68.8311C81.1326 68.8311 81.0002 68.7771 80.8923 68.6692C80.7844 68.5564 80.7353 68.4191 80.7353 68.2474C80.7353 67.9972 80.9021 67.7863 81.2356 67.6147C81.4171 67.5264 81.6427 67.4528 81.9125 67.3988C82.1773 67.34 82.4422 67.3105 82.6973 67.3105C82.9916 67.3105 83.2908 67.3498 83.5998 67.4283C83.9137 67.5067 84.1736 67.6097 84.3846 67.7324C84.6887 67.9139 84.88 68.1493 84.9535 68.4387C84.9928 68.5858 85.0075 68.8311 85.0075 69.1793V71.9015C85.0075 72.3626 85.0271 72.6765 85.0663 72.8433C85.1448 73.1915 85.3361 73.3632 85.6402 73.3632C85.7825 73.3632 85.8953 73.3387 85.9787 73.2847C86.062 73.2308 86.1552 73.1229 86.268 72.961Z" fill="#231F20"/>
<path d="M83.9567 70.061L83.8537 69.9432C83.6134 70.1541 83.3485 70.3454 83.0542 70.5073C82.7109 70.6986 82.4705 70.8457 82.3283 70.9536C82.186 71.0567 82.0585 71.1842 81.9457 71.3313C81.7054 71.6452 81.5827 72.0131 81.5827 72.4202C81.5827 72.7734 81.6759 73.0824 81.8721 73.3227C82.0634 73.5631 82.3381 73.7004 82.6422 73.6955C82.9022 73.6955 83.1572 73.6072 83.3779 73.4404C83.6036 73.2737 83.7752 73.048 83.888 72.7734C84.045 72.4153 84.1137 71.9248 84.1137 71.2921V69.7176L83.8537 69.9432L83.9567 70.061H83.7998V71.2921C83.7998 71.9003 83.7311 72.3565 83.5987 72.6557C83.5055 72.8813 83.373 73.0579 83.1915 73.1903C83.0101 73.3227 82.8335 73.3816 82.6422 73.3816C82.4215 73.3816 82.2694 73.3031 82.1174 73.1265C81.9751 72.945 81.9016 72.7194 81.9016 72.4202C81.9016 72.072 81.9947 71.7826 82.1909 71.5275C82.2939 71.4 82.4019 71.2921 82.5196 71.2038C82.6373 71.1106 82.8678 70.9684 83.2063 70.782C83.5202 70.6054 83.7998 70.4092 84.0597 70.1787L83.9567 70.061ZM86.2669 72.9598L86.1884 73.0922L86.3062 73.1658L86.3895 73.0333L86.2375 72.9843C86.0805 73.4404 85.7911 73.6366 85.2369 73.6464C84.9328 73.6464 84.6924 73.5729 84.5061 73.4257C84.3883 73.3325 84.2461 73.1511 84.099 72.8813L84.0009 72.7047L83.8537 72.8469C83.5447 73.1363 83.3142 73.3227 83.1719 73.4061C82.8972 73.5631 82.5735 73.6464 82.1958 73.6464C81.7103 73.6464 81.3424 73.5238 81.0824 73.2982C80.8127 73.0628 80.6851 72.7685 80.6851 72.3614C80.6851 71.9886 80.793 71.6943 81.0138 71.4441C81.1364 71.3068 81.2835 71.1989 81.4454 71.1155C81.6122 71.037 81.8672 70.9438 82.2057 70.8506C82.6128 70.7427 82.9169 70.6545 83.118 70.576C83.324 70.4975 83.5006 70.4043 83.6428 70.2866C83.8096 70.164 83.9371 70.0021 84.0009 69.8206C84.0646 69.644 84.099 69.4184 84.099 69.1339C84.094 68.5453 83.996 68.0941 83.7556 67.7851C83.6477 67.6428 83.5055 67.53 83.3387 67.4466C83.1719 67.3633 82.9953 67.3191 82.809 67.3191C82.5931 67.3191 82.3871 67.3829 82.2106 67.5006C82.034 67.6232 81.9065 67.7949 81.8182 68.0009L81.6465 68.4276C81.5631 68.6091 81.4797 68.668 81.2884 68.6729C81.1658 68.6729 81.0873 68.6385 81.004 68.5551C80.9255 68.4718 80.8911 68.3835 80.8911 68.2461C80.8911 68.0745 80.9941 67.9175 81.3081 67.7556L81.2345 67.6134L81.3032 67.7556C81.4699 67.6723 81.6857 67.6036 81.9457 67.5496C82.2008 67.4957 82.4509 67.4663 82.6961 67.4663C82.9708 67.4663 83.2602 67.5055 83.5643 67.5791C83.8635 67.6575 84.1137 67.7507 84.3099 67.8636C84.5796 68.0303 84.7366 68.2314 84.8004 68.4767C84.8298 68.5944 84.8494 68.8396 84.8494 69.1781V71.9003C84.8543 72.3663 84.869 72.6802 84.9132 72.8764C84.9867 73.2639 85.2663 73.5336 85.6391 73.5189C85.801 73.5189 85.9481 73.4895 86.0658 73.411C86.1786 73.3374 86.2816 73.2197 86.3994 73.048L86.2669 72.9598L86.1394 72.8715C86.0364 73.0235 85.9432 73.1216 85.8892 73.151C85.8451 73.1805 85.7666 73.205 85.6391 73.205C85.4037 73.1952 85.3007 73.1118 85.2173 72.8077C85.1829 72.6704 85.1633 72.3565 85.1633 71.9003V69.1781C85.1633 68.8249 85.1486 68.5699 85.1045 68.3982C85.0162 68.0647 84.7954 67.79 84.4668 67.5938C84.2363 67.4614 83.9616 67.3583 83.6379 67.275C83.3142 67.1965 83.0052 67.1523 82.6961 67.1523C82.4313 67.1523 82.1566 67.1818 81.877 67.2406C81.6024 67.2995 81.3669 67.378 81.1658 67.4712L81.1609 67.4761C80.8029 67.6526 80.5723 67.9175 80.5772 68.2461C80.5723 68.4472 80.641 68.6336 80.7783 68.7759C80.9108 68.9132 81.0922 68.9917 81.2884 68.9868C81.5827 68.9966 81.8329 68.82 81.9359 68.5453L82.1125 68.1186C82.1762 67.9617 82.2694 67.8488 82.392 67.7606C82.5147 67.6772 82.6471 67.633 82.809 67.633C82.9463 67.633 83.0738 67.6625 83.2014 67.7262C83.3289 67.7949 83.427 67.8734 83.5055 67.9764C83.682 68.1971 83.785 68.5797 83.785 69.1339C83.785 69.3939 83.7507 69.5901 83.7066 69.7127C83.6624 69.8353 83.5839 69.9432 83.4515 70.0413C83.3338 70.1296 83.1866 70.213 83.0052 70.2817C82.8237 70.3503 82.5294 70.4435 82.1272 70.5514C81.774 70.6446 81.5043 70.7378 81.3081 70.8359C81.107 70.9389 80.9304 71.0714 80.7783 71.2381C80.5037 71.5373 80.3663 71.9248 80.3712 72.3614C80.3663 72.8371 80.538 73.2442 80.8715 73.5336C81.21 73.823 81.6563 73.9604 82.1958 73.9604C82.6226 73.9604 83.0052 73.8672 83.3338 73.6759C83.5153 73.568 83.7507 73.3718 84.0695 73.0726L83.9616 72.9598L83.8243 73.0333C83.9812 73.3227 84.1382 73.5336 84.3099 73.671C84.56 73.8672 84.8788 73.9604 85.2369 73.9604C85.8794 73.9702 86.3601 73.6563 86.5367 73.0824L86.5759 72.9647L86.3503 72.8273L86.2228 72.7488L86.1394 72.8715L86.2669 72.9598Z" fill="#231F20"/>
<path d="M88.3917 67.3105C88.4555 67.5999 88.4898 67.8648 88.4898 68.115V68.2327C89.0686 67.6196 89.7553 67.3105 90.5499 67.3105C91.1483 67.3105 91.629 67.4577 91.9919 67.752C92.35 68.0414 92.5315 68.4534 92.5315 68.988V72.1026C92.5315 72.4362 92.5462 72.6814 92.5854 72.8335C92.6247 72.9904 92.6933 73.118 92.8013 73.221C92.9337 73.3534 93.174 73.4515 93.5223 73.5202V73.6771H90.442V73.5202C90.7167 73.4809 90.9178 73.427 91.0404 73.3583C91.163 73.2847 91.2611 73.1621 91.3298 72.9904C91.3837 72.8776 91.4181 72.7109 91.4377 72.4803C91.4622 72.2547 91.472 71.9261 91.472 71.4993V69.9396C91.472 69.4049 91.4524 69.0126 91.4181 68.7624C91.3837 68.5123 91.32 68.3111 91.2219 68.1591C91.114 67.9874 90.957 67.855 90.7559 67.7618C90.5597 67.6637 90.339 67.6147 90.0986 67.6147C89.8338 67.6147 89.5934 67.6686 89.3678 67.7765C89.1373 67.8844 88.9607 68.0316 88.8283 68.218C88.6909 68.4142 88.6027 68.6398 88.5536 68.885C88.5095 69.1352 88.4898 69.5423 88.4898 70.1162V71.5582L88.4996 72.1026C88.4996 72.4362 88.5144 72.6814 88.5536 72.8335C88.5928 72.9904 88.6615 73.118 88.7694 73.221C88.9019 73.3534 89.1373 73.4515 89.4904 73.5202V73.6771H86.4102V73.5202C86.6848 73.4809 86.8859 73.427 87.0086 73.3583C87.1312 73.2847 87.2293 73.167 87.2979 72.9953C87.3519 72.8825 87.3862 72.7158 87.4059 72.4852C87.4304 72.2596 87.4402 71.931 87.4402 71.5042V69.6943C87.4402 69.194 87.4304 68.8409 87.4059 68.6398C87.3813 68.4338 87.3323 68.2719 87.2489 68.1444C87.1704 68.007 87.0772 67.9089 86.9644 67.8452C86.8467 67.7863 86.6897 67.7471 86.4788 67.7324V67.5754L88.3917 67.3105Z" fill="#231F20"/>
<path d="M88.3905 67.3103L88.2384 67.3447C88.2973 67.6243 88.3316 67.8793 88.3316 68.1147V68.6249L88.6014 68.3404C89.1557 67.7518 89.7933 67.4722 90.5487 67.4673C91.1225 67.4673 91.564 67.6095 91.8926 67.8744C92.2114 68.1344 92.3684 68.4875 92.3733 68.9878V72.1024C92.3733 72.4409 92.388 72.691 92.4321 72.8725C92.4763 73.0491 92.5646 73.211 92.6921 73.3336L92.8 73.2208L92.6921 73.3287C92.8638 73.5003 93.1286 73.6033 93.4916 73.6769L93.521 73.52H90.4407L90.4653 73.6769C90.7498 73.6377 90.9607 73.5788 91.1176 73.4905C91.2746 73.3973 91.3923 73.2453 91.4757 73.054C91.5394 72.9167 91.5738 72.7303 91.5934 72.4948C91.6179 72.2594 91.6277 71.9308 91.6277 71.4991V69.9394C91.6277 69.4047 91.6081 69.0074 91.5738 68.7426C91.5345 68.4777 91.4659 68.2521 91.3531 68.0755C91.2304 67.8793 91.049 67.7224 90.8233 67.6194C90.6026 67.5114 90.3574 67.4575 90.0974 67.4575C89.808 67.4575 89.5431 67.5163 89.2979 67.6341C89.0527 67.7518 88.8467 67.9186 88.6995 68.1295C88.5475 68.3453 88.4494 68.5905 88.4003 68.8554C88.3513 69.1252 88.3316 69.5372 88.3316 70.116V71.558L88.3414 72.1024C88.3414 72.4409 88.3562 72.691 88.4003 72.8725C88.4444 73.0491 88.5278 73.211 88.6603 73.3336L88.7682 73.2208L88.6554 73.3287C88.827 73.5003 89.0919 73.6033 89.4598 73.6769L89.4892 73.52H86.4089L86.4285 73.6769C86.7179 73.6377 86.9288 73.5837 87.0858 73.4905C87.2427 73.4022 87.3605 73.2502 87.4438 73.054C87.5076 72.9167 87.5419 72.7352 87.5616 72.4997C87.5861 72.2643 87.5959 71.9357 87.5959 71.504V69.6941C87.5959 69.1889 87.5861 68.8358 87.5567 68.62C87.537 68.3992 87.4782 68.2128 87.385 68.0608C87.2967 67.9087 87.179 67.7861 87.0367 67.7076C86.8896 67.6341 86.713 67.5948 86.4874 67.5752L86.4776 67.7322H86.6345V67.7125L88.4101 67.4673L88.3905 67.3103L88.3709 67.1583L86.3206 67.4379V67.8793L86.4678 67.8891C86.664 67.9038 86.8062 67.9382 86.8847 67.9872C86.9681 68.0314 87.0416 68.1049 87.1152 68.2227C87.179 68.3257 87.228 68.4679 87.2476 68.6543C87.2722 68.8456 87.282 69.1938 87.282 69.6941V71.504C87.282 71.9259 87.2722 72.2545 87.2526 72.4703C87.2329 72.691 87.1937 72.848 87.1545 72.9265C87.0907 73.0834 87.0122 73.1717 86.9288 73.2208C86.8405 73.2747 86.6542 73.3287 86.3893 73.3679L86.252 73.3875V73.8339H89.6462V73.3924L89.5186 73.3679C89.1802 73.3041 88.9693 73.2011 88.881 73.1079H88.8761C88.7927 73.0246 88.7387 72.9265 88.7044 72.794C88.6701 72.6665 88.6554 72.4311 88.6554 72.1024L88.6455 71.558V70.116C88.6455 69.547 88.6652 69.1399 88.7093 68.9142C88.7486 68.6837 88.8319 68.4875 88.9595 68.3109C89.0723 68.1442 89.2292 68.0167 89.4303 67.9186C89.6363 67.8205 89.8522 67.7714 90.0974 67.7714C90.3181 67.7714 90.5143 67.8155 90.6909 67.9038C90.8675 67.9872 90.995 68.1 91.0833 68.2423C91.1667 68.3698 91.2304 68.5513 91.2599 68.7867C91.2942 69.0222 91.3138 69.4096 91.3138 69.9394V71.4991C91.3138 71.921 91.304 72.2496 91.2844 72.4654C91.2648 72.6861 91.2255 72.8431 91.1863 72.9265C91.1225 73.0834 91.0441 73.1717 90.9607 73.2208C90.8724 73.2747 90.686 73.3287 90.4211 73.3679L90.2838 73.3875V73.8339H93.678V73.3924L93.5505 73.3679C93.2169 73.3041 93.0011 73.2011 92.9128 73.1079H92.9079C92.8245 73.0246 92.7706 72.9265 92.7362 72.7989C92.7068 72.6665 92.6872 72.4311 92.6872 72.1024V68.9878C92.6872 68.4189 92.4861 67.948 92.0888 67.6292C91.6915 67.3103 91.1716 67.1534 90.5487 67.1534C89.7148 67.1534 88.9742 67.482 88.3758 68.1246L88.4886 68.2325H88.6455V68.1147C88.6455 67.8548 88.6112 67.5752 88.5425 67.276L88.5131 67.1387L88.3709 67.1583L88.3905 67.3103Z" fill="#231F20"/>
<path d="M95.3612 70.4889C95.3612 71.3424 95.5427 72.0634 95.9057 72.6569C96.3128 73.3191 96.818 73.6477 97.4066 73.6477C97.6567 73.6477 97.902 73.5741 98.1374 73.427C98.3777 73.2847 98.5837 73.0787 98.7554 72.8139C98.9369 72.5392 99.084 72.1958 99.1919 71.7789C99.3097 71.3669 99.3636 70.9647 99.3636 70.5772C99.3636 70.175 99.3048 69.7728 99.1821 69.3657C99.0693 68.9537 98.9075 68.6054 98.7064 68.3111C98.3238 67.7569 97.8578 67.4773 97.3036 67.4773C96.7738 67.4773 96.3226 67.7716 95.94 68.3553C95.5525 68.9341 95.3612 69.6502 95.3612 70.4889ZM94.0859 70.5723C94.0859 69.7777 94.3655 69.0665 94.9247 68.4436C95.6065 67.6882 96.4158 67.3105 97.3624 67.3105C98.314 67.3105 99.1233 67.6882 99.8002 68.4436C100.359 69.0714 100.639 69.7826 100.639 70.5772C100.639 71.362 100.374 72.0634 99.8443 72.6716C99.187 73.427 98.363 73.8046 97.3624 73.8046C96.3667 73.8046 95.5427 73.427 94.8805 72.6716C94.6255 72.3773 94.4293 72.0536 94.2919 71.6906C94.1546 71.3277 94.0859 70.9549 94.0859 70.5723Z" fill="#231F20"/>
<path d="M95.3619 70.4877H95.205C95.205 71.3657 95.3914 72.1161 95.7739 72.739C96.1958 73.4257 96.7549 73.8083 97.4073 73.8034C97.6918 73.8034 97.9664 73.72 98.2264 73.5582C98.4814 73.4012 98.7071 73.1756 98.8886 72.896C99.0798 72.6066 99.2319 72.2436 99.3447 71.8218C99.4624 71.3951 99.5213 70.9782 99.5213 70.576C99.5213 70.1591 99.4575 69.7421 99.3349 69.3203C99.2172 68.8985 99.0504 68.5306 98.8395 68.2216C98.4373 67.6379 97.9125 67.3191 97.3043 67.3191C96.7157 67.3191 96.2056 67.6575 95.8083 68.2658C95.4061 68.8789 95.205 69.6244 95.205 70.4877H95.5189C95.5189 69.6686 95.7053 68.9917 96.0731 68.4374C96.441 67.8832 96.8383 67.6379 97.3043 67.633C97.8046 67.6379 98.2117 67.8734 98.5795 68.3982C98.7659 68.6729 98.918 69.0113 99.0357 69.4037C99.1485 69.801 99.2074 70.1885 99.2074 70.576C99.2074 70.9487 99.1534 71.3362 99.0455 71.7384C98.9376 72.1406 98.7954 72.4693 98.6237 72.7243C98.4618 72.9745 98.2754 73.1609 98.0596 73.2933C97.8438 73.4257 97.628 73.4895 97.4073 73.4895C96.8775 73.4895 96.4361 73.205 96.0388 72.5723C95.6955 72.0082 95.5189 71.3215 95.5189 70.4877H95.3619ZM94.0866 70.5711H94.2436C94.2436 69.8108 94.5085 69.1486 95.0431 68.5502C95.7004 67.8194 96.4606 67.4712 97.3631 67.4663C98.2705 67.4712 99.0308 67.8194 99.6831 68.5502C100.218 69.1535 100.483 69.8206 100.483 70.576C100.483 71.3264 100.232 71.9837 99.7224 72.5674C99.0946 73.2933 98.3245 73.6464 97.3631 73.6464C96.4067 73.6464 95.6366 73.2933 95.0039 72.5674C94.7586 72.2878 94.5673 71.9788 94.4398 71.6305C94.3074 71.2872 94.2436 70.934 94.2436 70.5711H93.9297C93.9297 70.9684 94.0033 71.3608 94.1455 71.7433C94.2877 72.121 94.4987 72.4693 94.7684 72.7734C95.4453 73.5631 96.3282 73.9653 97.3631 73.9604C98.403 73.9653 99.2809 73.5631 99.9627 72.7734C100.512 72.1406 100.797 71.3951 100.797 70.576C100.797 69.7421 100.497 68.9917 99.9137 68.3393C99.2172 67.5545 98.3539 67.1523 97.3631 67.1523C96.3772 67.1523 95.5091 67.5545 94.8077 68.3393C94.224 68.9868 93.9297 69.7372 93.9297 70.5711H94.0866Z" fill="#231F20"/>
<path fill-rule="evenodd" clip-rule="evenodd" d="M31.6955 49.4073V47.4747H1.93253V42.0107H31.5091V40.0781H0V56.6175H31.6955V54.6849H1.93253V49.4073H31.6955Z" fill="#231F20"/>
<path fill-rule="evenodd" clip-rule="evenodd" d="M42.377 40.2695V42.1972H56.7778V56.029H58.7103V42.1972H73.4888V40.2695H42.377Z" fill="#231F20"/>
<path fill-rule="evenodd" clip-rule="evenodd" d="M158.096 47.465C158.086 47.9948 158.071 48.5392 158.071 49.1033V49.481L158.076 50.5895C158.091 52.6054 158.106 54.3466 157.517 54.9401C157.444 55.0186 157.208 55.254 156.448 55.254H132.33C130.006 55.2442 129.79 53.552 129.79 49.0738V48.5343L129.78 47.2247C129.746 45.199 129.726 43.443 130.447 42.7122C130.78 42.3639 131.349 42.2021 132.173 42.1972C132.164 42.1972 156.119 42.3885 156.119 42.3885C157.056 42.3885 157.365 42.7024 157.468 42.8054C158.184 43.5362 158.135 45.4442 158.096 47.465ZM160.028 47.5043C160.082 44.9635 160.131 42.7661 158.851 41.4565C158.199 40.7944 157.287 40.4608 156.129 40.4608C156.139 40.4608 132.178 40.2695 132.178 40.2695C130.805 40.2695 129.79 40.6227 129.069 41.3535C127.784 42.6631 127.808 44.7919 127.842 47.2541L127.857 48.5343V49.0738C127.857 53.0517 127.857 57.1669 132.326 57.1866C132.33 57.1866 156.448 57.1866 156.448 57.1866C157.488 57.1866 158.307 56.8874 158.891 56.2988C160.043 55.1363 160.028 53.1253 160.009 50.5747L160.004 49.481V49.1033C160.004 48.5637 160.019 48.0242 160.028 47.5043Z" fill="#231F20"/>
<path fill-rule="evenodd" clip-rule="evenodd" d="M87.0339 47.474V42.3974L113.947 42.3876C114.04 42.3974 115.075 42.52 115.075 44.6488V44.6929L115.08 44.737C115.173 45.8308 115.061 47.0865 114.835 47.474H87.0339ZM116.267 48.7738C117.194 47.6604 117.067 45.2913 117.003 44.5605V44.6488C117.003 41.333 115.007 40.46 113.947 40.46H85.1013V56.4058H87.0339V49.4065H114.335C114.673 49.7695 115.286 50.5886 115.085 51.6824L115.075 51.7658V56.0281H117.003V51.8541L116.988 52.0257C117.243 50.6278 116.772 49.5095 116.267 48.7738Z" fill="#231F20"/>
</svg>
