<svg width="240" height="33" viewBox="0 0 240 33" fill="none" xmlns="http://www.w3.org/2000/svg">
<path d="M143.415 27.8842C140.889 29.9923 137.739 31.1167 134.333 31.1167C126.329 31.1167 120.085 24.7078 120.085 16.5281C120.085 8.48893 126.187 2.02385 133.964 1.82709C136.887 1.93952 138.874 2.52981 141.003 3.99148V6.80239H142.479V0H141.031V1.29302C138.846 0.421636 136.604 0 134.361 0C124.74 0 116.906 7.39267 116.906 16.5C116.906 25.5792 124.74 32.9719 134.361 32.9719C138.108 32.9719 141.684 31.5664 144.465 29.0085L144.721 28.7836L143.699 27.6874L143.415 27.8842ZM100.984 1.93952H102.46L97.1239 15.2632L90.3973 1.93952H91.8165V0.449744H85.4872V1.93952H86.9347L94.7682 17.793V31.0605H92.7531V32.5503H100.36V31.0605H98.0889V17.8492L104.503 1.93952H105.922V0.449744H100.984V1.93952ZM28.2119 1.93952H29.631V0.449744H23.5005V1.93952H25.0047V31.0605H23.5005V32.5503H29.631V31.0605H28.2119V1.93952ZM71.3245 17.2589L64.0587 0.449744H60.2554V1.93952H61.8732V31.0605H60.2554V32.5503H65.3075V31.0605H63.86V7.25213L70.8136 23.6116L77.7105 6.40886V31.0605H76.1211V32.5503H82.3652V31.0605H80.9461V1.93952H82.3652V0.449744H78.0795L71.3245 17.2589ZM45.1561 17.2589L37.8903 0.449744H34.087V1.93952H35.7048V31.0605H34.087V32.5503H39.1391V31.0605H37.6916V7.25213L44.6168 23.6116L51.5421 6.40886V31.0605L50.2649 31.0886L50.0946 31.1167L49.9527 31.3416V32.5503H56.1684V31.0605H54.7777V1.93952H56.1684V0.449744H51.9111L45.1561 17.2589ZM164.588 1.93952H166.036V0.477854L159.735 0.449744V1.93952H161.324V8.96678H151.845V1.93952H153.264V0.449744H147.02V1.93952H148.581V31.0605H147.02V32.5503H153.264V31.0605H151.845V10.7376H161.324V31.0605H159.735V32.5503H166.064V31.0605H164.588V1.93952ZM12.772 1.91141H14.3614V24.2581C14.3614 29.655 10.7001 31.1729 8.7701 31.201C6.98202 31.1729 3.49101 29.7956 3.17881 24.9327L3.15043 24.5673L0 25.0451L0.0567644 25.3825C0.25544 26.7879 0.681173 28.0247 1.39073 29.2053C2.29896 30.7232 5.02365 33 8.74172 33C13.3396 33 15.667 29.8518 16.0927 29.2334C17.5118 27.0409 17.6254 24.4549 17.6254 21.5315V1.96763H19.0445V0.449744H12.772V1.91141ZM185.307 0C175.686 0 167.852 7.39267 167.852 16.5C167.852 25.5792 175.686 33 185.307 33C194.929 33 202.763 25.6073 202.763 16.5C202.763 7.39267 194.929 0 185.307 0ZM185.222 31.1167C177.275 31.1167 171.06 24.7078 171.06 16.5C171.06 12.5647 172.535 8.88245 175.203 6.12777C177.871 3.37308 181.476 1.8552 185.307 1.8552C193.169 1.8552 199.584 8.48893 199.584 16.6405C199.555 24.7359 193.254 31.1167 185.222 31.1167ZM222.545 0C212.923 0 205.09 7.39267 205.09 16.5C205.09 25.5792 212.923 33 222.545 33C232.167 33 240 25.6073 240 16.5C240 7.39267 232.167 0 222.545 0ZM222.63 31.1167C214.711 31.0605 208.297 24.5111 208.297 16.5C208.297 12.5647 209.773 8.88245 212.441 6.12777C215.109 3.37308 218.713 1.8552 222.545 1.8552C230.407 1.8552 236.821 8.48893 236.821 16.6405C236.821 24.7078 230.577 31.0605 222.63 31.1167Z" fill="#231F20"/>
</svg>
