<svg width="269" height="25" viewBox="0 0 269 25" fill="none" xmlns="http://www.w3.org/2000/svg">
<path fill-rule="evenodd" clip-rule="evenodd" d="M0 0.774506H8.77222C14.9808 0.826781 20.0549 6.06807 20.0549 12.4732C20.0549 18.903 14.9808 24.1443 8.77222 24.198H0V0.774506ZM3.83326 3.61525V21.4343H7.77437C13.4423 21.2816 16.2504 17.0707 16.2504 12.5777C16.2504 8.10956 13.3891 4.46817 8.77366 3.71981L3.83326 3.61525ZM34.82 0.232486C42.2694 0.232486 48.3428 5.75854 48.3428 12.4993C48.3428 19.2401 42.2694 24.7414 34.82 24.7414C27.3979 24.7414 21.3245 19.2387 21.3245 12.4993C21.3245 5.75992 27.3979 0.232486 34.82 0.232486ZM34.8747 3.20256C40.2723 3.20256 44.6721 7.35982 44.6721 12.4732C44.6721 17.559 40.2723 21.719 34.8747 21.719C29.477 21.719 25.0499 17.5604 25.0499 12.4732C25.0485 7.35982 29.4756 3.20256 34.8747 3.20256ZM49.3953 0.826773H53.0115V21.4852H59.9217V24.1719H49.3953V0.826773ZM71.6645 0.103171C74.4712 0.103171 77.0895 0.903818 79.2491 2.24647V6.50829C77.4403 4.44203 74.7415 3.09938 71.6918 3.09938C66.2942 3.09938 61.8944 7.30892 61.8944 12.4732C61.8944 17.6127 66.2942 21.8208 71.6918 21.8208C74.7429 21.8208 77.4417 20.4796 79.2491 18.4133V22.726C76.9984 24.1459 74.3604 24.9 71.6645 24.8941C64.2151 24.8941 58.1417 19.3157 58.1417 12.4979C58.1417 5.68151 64.2151 0.103171 71.6645 0.103171ZM84.188 21.4095H92.9329V24.1719H80.3821V0.825398H92.9329V3.4598H84.188V10.4069H92.9329V13.2463H84.188V21.4095ZM106.699 22.6999C106.303 23.0625 105.848 23.3596 105.35 23.5789C104.855 23.8379 104.316 24.0125 103.758 24.0948C103.623 24.1223 103.488 24.1457 103.353 24.1457C103.218 24.1732 103.083 24.1732 102.949 24.1732C102.571 24.1732 102.193 24.1223 101.814 24.0439C101.445 23.939 101.098 23.7728 100.789 23.5528C100.434 23.2834 100.148 22.9399 99.9524 22.5486C99.7169 22.1695 99.5698 21.7462 99.5211 21.3077V21.1523C99.4938 21.0766 99.4938 21.023 99.4938 20.9721C99.4938 20.9212 99.4938 20.8936 99.5211 20.8427V20.6873V20.6364C99.5484 20.6116 99.5484 20.6116 99.5484 20.5855V20.4837V20.4053C99.7109 19.6831 100.062 19.1135 100.601 18.6485C101.113 18.1836 101.679 17.7695 102.275 17.4338C101.953 17.0732 101.656 16.6937 101.385 16.2975C101.118 15.9354 100.976 15.5025 100.979 15.0594V14.8531C101.006 14.8022 101.006 14.7513 101.006 14.6729C101.034 14.6729 101.034 14.6454 101.034 14.622V14.5945C101.052 14.5636 101.062 14.5284 101.061 14.4927C101.061 14.4651 101.088 14.4418 101.088 14.4142C101.223 13.8447 101.52 13.4073 102.006 13.0977C102.455 12.8092 102.977 12.6398 103.517 12.6066H103.868C104.516 12.6575 105.137 12.8914 105.676 13.3055C106.217 13.692 106.486 14.2588 106.486 15.0085C106.486 15.7046 106.243 16.2741 105.812 16.6882C105.38 17.1257 104.867 17.5136 104.326 17.8754L106.919 20.8716C107.162 20.5869 107.431 20.3021 107.674 20.0201C107.889 19.7353 108.132 19.423 108.322 19.1149L109.212 19.9939C109.055 20.2801 108.865 20.5487 108.646 20.7946C108.457 21.0257 108.24 21.2857 108.024 21.5168C107.97 21.5679 107.915 21.6198 107.862 21.6723L107.699 21.825L109.589 24.0205H107.915L106.699 22.6999ZM103.433 23.0356C103.892 22.9847 104.323 22.8553 104.702 22.6215C105.079 22.3875 105.44 22.1292 105.781 21.8484C105.809 21.8484 105.836 21.8208 105.863 21.7975C105.891 21.7975 105.918 21.7699 105.945 21.7465L103.002 18.3885C102.975 18.3885 102.975 18.4161 102.949 18.4394C102.922 18.4394 102.894 18.467 102.867 18.4903C102.814 18.5179 102.786 18.544 102.732 18.5688C102.704 18.5688 102.679 18.5963 102.65 18.6224C102.407 18.7751 102.191 18.9319 101.975 19.0846C101.76 19.2401 101.57 19.4478 101.408 19.6542C101.353 19.756 101.272 19.8605 101.219 19.9898C101.158 20.1037 101.112 20.2249 101.084 20.3502L101.004 20.6625C100.976 20.7643 100.976 20.8689 100.976 20.9721C100.976 21.5154 101.192 22.0066 101.625 22.444C102.029 22.8581 102.569 23.0892 103.216 23.0892C103.216 23.0892 103.244 23.0892 103.244 23.0644H103.353C103.38 23.0644 103.38 23.0369 103.408 23.0369L103.433 23.0356ZM102.354 14.849V14.9274C102.354 14.9549 102.326 14.9783 102.326 15.0058V15.0567C102.326 15.3414 102.407 15.6001 102.569 15.8326C102.73 16.0912 102.92 16.3209 103.136 16.5286C103.19 16.6071 103.271 16.6841 103.326 16.7598C103.379 16.8382 103.461 16.8918 103.514 16.9661C103.569 16.9413 103.594 16.9152 103.649 16.8904C103.685 16.8567 103.734 16.8375 103.784 16.8368C104.108 16.6566 104.378 16.4502 104.648 16.2191C104.919 15.9853 105.08 15.7005 105.134 15.3401V15.2617V15.1832C105.134 15.1585 105.162 15.1323 105.162 15.1048V15.0539C105.162 14.6935 105.027 14.3826 104.758 14.1749C104.514 13.9549 104.2 13.8189 103.866 13.7883H103.622C103.351 13.7883 103.083 13.8929 102.84 14.0469C102.703 14.1395 102.589 14.2591 102.506 14.3974C102.422 14.5358 102.37 14.6898 102.354 14.849ZM129.291 0C134.148 0 138.442 2.37578 140.843 5.914L137.687 7.463C136.796 6.11041 135.561 4.99596 134.097 4.22374C132.634 3.45152 130.99 3.04671 129.319 3.04711C123.867 3.02097 119.439 7.25665 119.439 12.4732C119.439 17.6636 123.867 21.8992 129.319 21.8992C133.907 21.8992 137.524 19.7037 137.793 15.1337H129.913V12.37H137.605C137.605 12.3177 141.52 12.37 141.762 12.37V12.4993C141.762 19.8082 137.605 25 129.293 25C120.952 25 115.662 19.368 115.662 12.4993C115.662 5.6306 121.787 0 129.291 0ZM139.711 24.1719L149.805 0.749736H152.209L162.383 24.1719H158.415L155.61 17.559H146.351L143.599 24.1719H139.711ZM147.755 14.5903L151.02 6.27579L154.34 14.5903H147.755ZM197.852 24.1719L207.947 0.749736H210.348L220.525 24.1719H216.556L213.748 17.559H204.49L201.738 24.1719H197.852ZM205.922 14.5903L209.16 6.27579L212.48 14.5903H205.922ZM246.327 24.1719L256.422 0.749736H258.823L269 24.1719H265.032L262.223 17.559H252.965L250.213 24.1719H246.327ZM254.37 14.5903L257.635 6.27579L260.958 14.5903H254.37ZM171.128 3.48732C173.532 3.74595 174.422 4.7268 174.422 7.02554C174.451 9.3229 172.802 10.5376 170.698 10.5376H167.51V3.46118H171.128V3.48732ZM171.318 13.377H171.506C173.286 13.377 176.471 13.7663 176.471 17.5604C176.471 20.6102 173.69 21.4865 171.049 21.4618L171.695 21.4866H167.51V13.377H171.318ZM166.62 24.1719H172.937C177.256 24.1719 180.362 21.4604 180.362 17.559C180.362 14.5656 178.415 12.2655 175.663 11.363C177.23 10.4069 178.12 8.70247 178.12 6.53305C178.12 2.99483 175.634 0.826774 171.965 0.748361C169.968 0.722224 167.943 0.748361 165.919 0.748361H163.706V24.1705L166.62 24.1719ZM189.67 3.48732C192.074 3.74595 192.964 4.7268 192.993 7.02554C193.019 9.3229 191.373 10.5376 189.266 10.5376H186.082V3.46118H189.67V3.48732ZM189.886 13.377H190.077C191.83 13.377 195.042 13.7663 195.042 17.5604C195.042 20.6102 192.237 21.4865 189.617 21.4618L190.238 21.4866H186.082V13.377H189.886ZM185.192 24.1719H191.508C195.798 24.1719 198.93 21.4604 198.93 17.559C198.93 14.5656 196.962 12.2655 194.207 11.363C195.798 10.4069 196.664 8.70247 196.664 6.53305C196.664 2.99483 194.181 0.826774 190.536 0.748361C188.512 0.722224 186.487 0.748361 184.464 0.748361H182.277V24.1705L185.192 24.1719ZM222.142 0.826773H224.465L241.604 18.1533V0.826773H244.923V24.1719H242.387L225.596 7.02416V24.1719H222.142V0.826773Z" fill="#231F20"/>
</svg>
