<svg width="208" height="33" viewBox="0 0 208 33" fill="none" xmlns="http://www.w3.org/2000/svg">
<path d="M21.2551 33C12.0319 33 4.55481 25.6135 4.55481 16.5021C4.55481 7.39288 12.0276 0.00852549 21.2465 0.00429254H16.7088C16.7067 0.00429254 16.7024 0.00429254 16.7002 0.00429254C7.47707 0.00429254 0 7.39077 0 16.5021C0 25.6135 7.47707 33 16.7002 33H21.2551Z" fill="#231F20"/>
<path d="M186.745 32.9999C195.968 32.9999 203.445 25.6135 203.445 16.5021C203.445 7.39282 195.972 0.00846587 186.754 0.00423292H191.291C191.293 0.00423292 191.298 0.00423292 191.3 0.00423292C200.523 0.00423292 208 7.39071 208 16.5021C208 25.6135 200.523 32.9999 191.3 32.9999H186.745Z" fill="#231F20"/>
<path d="M51.6198 20.2482C51.6198 26.0474 46.8615 30.7479 40.9911 30.7479C35.121 30.7479 30.3624 26.0474 30.3624 20.2482V0.00211646H25.8077V20.2503C25.8077 24.1446 27.5774 27.6284 30.3624 29.967C32.6143 31.8571 35.528 32.9999 38.7137 32.9999C45.8416 32.9977 51.6198 27.2897 51.6198 20.2482Z" fill="#231F20"/>
<path d="M132.087 20.2482C132.087 26.0474 127.329 30.7479 121.459 30.7479C115.588 30.7479 110.83 26.0474 110.83 20.2482V0.00211646H106.275V20.2503C106.275 24.1446 108.045 27.6284 110.83 29.967C113.082 31.8571 115.996 32.9999 119.181 32.9999C126.309 32.9977 132.087 27.2897 132.087 20.2482Z" fill="#231F20"/>
<path d="M62.2482 0.00211646H57.6934V32.9999H62.2482V0.00211646Z" fill="#231F20"/>
<path d="M72.8746 32.9977H78.9486V27.0061C78.9444 30.3161 76.2278 32.9977 72.8746 32.9977Z" fill="#231F20"/>
<path d="M81.9844 0.00846587H75.9105V6.00019C75.9169 2.69003 78.6335 0.00846587 81.9844 0.00846587Z" fill="#231F20"/>
<path d="M95.6487 0.00846587H101.723V6.00019C101.718 2.69003 99.0019 0.00846587 95.6487 0.00846587Z" fill="#231F20"/>
<path d="M91.0939 0H86.5392V32.9977H91.0939V0Z" fill="#231F20"/>
<path d="M177.635 0.00846587H183.709V6.00019C183.703 2.69003 180.986 0.00846587 177.635 0.00846587Z" fill="#231F20"/>
<path d="M177.635 32.9894H183.709V26.9976C183.703 30.3078 180.986 32.9894 177.635 32.9894Z" fill="#231F20"/>
<path d="M174.6 16.4915H180.673V10.4998C180.667 13.8099 177.95 16.4915 174.6 16.4915Z" fill="#231F20"/>
<path d="M174.6 16.5084H180.673V22.5001C180.667 19.19 177.95 16.5084 174.6 16.5084Z" fill="#231F20"/>
<path d="M171.561 0H167.007V32.9977H171.561V0Z" fill="#231F20"/>
<path d="M141.955 0H137.401V32.9977H141.955V0Z" fill="#231F20"/>
<path d="M149.548 0H144.993C150.024 0 154.103 4.02976 154.103 8.99922C154.103 13.9687 150.024 17.9984 144.993 17.9984H149.548C154.578 17.9984 158.658 13.9687 158.658 8.99922C158.658 4.02976 154.578 0 149.548 0Z" fill="#231F20"/>
<path d="M156.899 26.9976C156.14 21.7488 152.82 17.9984 147.789 17.9984H143.234C148.265 17.9984 151.586 22.498 152.344 26.9976C153.102 31.4972 155.665 32.8707 158.317 32.9894C158.431 32.9936 158.542 32.9977 158.656 32.9977H163.21C160.513 32.9977 157.659 32.2487 156.899 26.9976Z" fill="#231F20"/>
<path fill-rule="evenodd" clip-rule="evenodd" d="M86.537 0.00210097C86.5442 0.000721612 86.5521 0 86.5599 0H91.1093C91.1171 0 91.1247 0.000721612 91.1322 0.00210097H101.725C101.793 0.00210097 101.848 0.0561875 101.848 0.122907C101.848 0.123961 101.848 0.125011 101.848 0.126058C101.848 0.127106 101.848 0.128156 101.848 0.12921V6.0769C101.848 6.14359 101.793 6.19783 101.725 6.19786C101.658 6.19792 101.602 6.1439 101.602 6.0772C101.598 2.85793 98.9398 0.250016 95.6588 0.250016C95.6451 0.250016 95.6316 0.2478 95.6193 0.243713H91.2323V32.8771C91.2323 32.9436 91.1773 32.9977 91.1093 32.9977H86.5599C86.4919 32.9977 86.4369 32.9436 86.4369 32.8771V0.243713H82.0499C82.0376 0.2478 82.0241 0.250016 82.0104 0.250016C78.7316 0.250016 76.0732 2.85793 76.0668 6.07729C76.0668 6.14395 76.0117 6.19792 75.9438 6.19786C75.8758 6.1978 75.8208 6.14373 75.8208 6.07706V0.12921C75.8208 0.114667 75.8233 0.100725 75.8283 0.0878117C75.8434 0.0382084 75.8904 0.00210097 75.946 0.00210097H86.537ZM76.0668 0.250016V4.38555C76.6564 2.39676 78.2525 0.829036 80.2771 0.250016H76.0668ZM86.6829 0.243713V32.7562H90.9863V0.243713H86.6829ZM101.602 0.250016H97.3929C99.4176 0.828726 101.013 2.39509 101.602 4.38242V0.250016ZM137.338 0.00210097C137.345 0.000721612 137.353 0 137.361 0H141.911C141.918 0 141.926 0.000721612 141.933 0.00210097H144.922C144.929 0.000721612 144.937 0 144.945 0H149.494C154.587 0 158.716 4.05433 158.716 9.05413C158.716 13.9345 154.782 17.914 149.857 18.1014C153.765 19.0031 156.306 22.4198 156.958 26.9037C157.335 29.4903 158.227 30.9448 159.336 31.7568C160.449 32.5707 161.802 32.7562 163.14 32.7562C163.208 32.7562 163.263 32.8103 163.263 32.8771C163.263 32.9436 163.208 32.9977 163.14 32.9977H158.591C158.477 32.9977 158.366 32.9938 158.255 32.9897L158.248 32.9894C156.904 32.9295 155.572 32.5532 154.479 31.6164C153.387 30.6797 152.548 29.1939 152.165 26.9406C151.413 22.5032 148.126 18.1083 143.188 18.1083C143.12 18.1083 143.065 18.0542 143.065 17.9875C143.065 17.9207 143.12 17.8666 143.188 17.8666H144.945C149.901 17.8666 153.921 13.9205 153.921 9.05413C153.921 4.25272 150.008 0.347096 145.143 0.243713H142.034V32.8771C142.034 32.9436 141.978 32.9977 141.911 32.9977H137.361C137.293 32.9977 137.238 32.9436 137.238 32.8771V0.243713H135.846C135.778 0.243713 135.723 0.189626 135.723 0.122907C135.723 0.0561875 135.778 0.00210097 135.846 0.00210097H137.338ZM137.484 0.243713V32.7562H141.787V0.243713H137.484ZM147.079 0.243713C151.142 1.18924 154.167 4.77548 154.167 9.05413C154.167 13.3359 151.138 16.9243 147.07 17.8666H149.494C154.451 17.8666 158.47 13.9205 158.47 9.05413C158.47 4.19524 154.463 0.253722 149.517 0.241639C149.51 0.243 149.502 0.243713 149.494 0.243713H147.079ZM145.178 18.1083H147.737C152.682 18.1083 155.963 21.7671 156.714 26.9379C157.097 29.5638 158.01 31.0873 159.189 31.9503C159.728 32.3452 160.319 32.5981 160.931 32.7562H158.591C158.482 32.7562 158.374 32.7523 158.262 32.7481L158.258 32.7479C156.953 32.6899 155.68 32.3258 154.641 31.4345C153.602 30.5435 152.784 29.1145 152.408 26.9009C151.75 23.0182 149.163 19.1037 145.178 18.1083ZM166.909 0.00210097C166.917 0.000721612 166.924 0 166.932 0H171.481C171.49 0 171.497 0.000721612 171.505 0.00210097H183.613C183.668 0.00210097 183.715 0.0382084 183.731 0.0878117C183.735 0.100725 183.738 0.114667 183.738 0.12921V6.07706C183.738 6.14373 183.683 6.1978 183.615 6.19786C183.547 6.19792 183.492 6.14395 183.492 6.07729C183.485 2.85793 180.827 0.250016 177.548 0.250016C177.534 0.250016 177.521 0.2478 177.509 0.243713H171.605V16.3792H174.471C174.485 16.3737 174.5 16.3708 174.516 16.3708C177.795 16.3708 180.453 13.7629 180.46 10.5435C180.46 10.4768 180.515 10.4229 180.583 10.4229C180.651 10.423 180.706 10.477 180.706 10.5437V16.4916C180.706 16.4944 180.706 16.4972 180.705 16.4999C180.706 16.5027 180.706 16.5055 180.706 16.5084V22.4562C180.706 22.5229 180.651 22.577 180.583 22.577C180.515 22.5771 180.46 22.5231 180.46 22.4565C180.453 19.2371 177.795 16.6292 174.516 16.6292C174.5 16.6292 174.485 16.6262 174.471 16.6208H171.605V32.7562H177.503C177.517 32.7509 177.532 32.7479 177.548 32.7479C180.827 32.7479 183.485 30.14 183.492 26.9205C183.492 26.8539 183.547 26.7999 183.615 26.8C183.683 26.8 183.738 26.8541 183.738 26.9208V32.8685C183.738 32.8804 183.736 32.8915 183.733 32.9023C183.721 32.957 183.672 32.9977 183.613 32.9977H165.417C165.349 32.9977 165.294 32.9436 165.294 32.8771C165.294 32.8103 165.349 32.7562 165.417 32.7562H166.809V0.243713H165.417C165.349 0.243713 165.294 0.189626 165.294 0.122907C165.294 0.0561875 165.349 0.00210097 165.417 0.00210097H166.909ZM167.055 0.243713V32.7562H171.358V16.6208H169.965C169.897 16.6208 169.842 16.5667 169.842 16.5C169.842 16.4332 169.897 16.3792 169.965 16.3792H171.358V0.243713H167.055ZM183.492 32.7479V28.6123C182.902 30.6012 181.306 32.1688 179.281 32.7479H183.492ZM180.46 16.6292H176.249C178.274 17.2082 179.87 18.7759 180.46 20.7647V16.6292ZM180.46 16.3708V12.2352C179.87 14.224 178.274 15.7917 176.249 16.3708H180.46ZM183.492 0.250016H179.281C181.306 0.829036 182.902 2.39677 183.492 4.38555V0.250016ZM24.2621 0.122907C24.2621 0.0561875 24.3172 0.00210097 24.3852 0.00210097H31.9669C32.0348 0.00210097 32.0899 0.0561875 32.0899 0.122907C32.0899 0.189626 32.0348 0.243713 31.9669 0.243713H30.5726V20.2208C30.5726 25.9107 35.2703 30.523 41.0658 30.523C46.861 30.523 51.5586 25.9107 51.5586 20.2208V0.243713H50.1646C50.0964 0.243713 50.0413 0.189626 50.0413 0.122907C50.0413 0.0561875 50.0964 0.00210097 50.1646 0.00210097H53.1988C53.2667 0.00210097 53.3218 0.0561875 53.3218 0.122907C53.3218 0.189626 53.2667 0.243713 53.1988 0.243713H51.8049V20.9666H51.7831C51.3897 27.6762 45.7234 32.998 38.7909 32.9999C35.5786 32.9999 32.6403 31.8544 30.37 29.9606C27.5618 27.617 25.7772 24.1257 25.7772 20.2229V0.243713H24.3852C24.3172 0.243713 24.2621 0.189626 24.2621 0.122907ZM26.0233 0.243713V20.2229C26.0233 24.0517 27.7737 27.4767 30.5293 29.7765C32.7569 31.6347 35.6393 32.7584 38.7909 32.7584C43.9587 32.7567 48.4095 29.7418 50.4185 25.4061C48.5747 28.6054 45.077 30.7645 41.0658 30.7645C35.1344 30.7645 30.3266 26.0442 30.3266 20.2208V0.243713H26.0233ZM56.108 0.122907C56.108 0.0561875 56.1631 0.00210097 56.231 0.00210097H63.8127C63.8806 0.00210097 63.9357 0.0561875 63.9357 0.122907C63.9357 0.189626 63.8806 0.243713 63.8127 0.243713H62.4207V32.7562H72.9116C76.1926 32.7562 78.851 30.1484 78.8552 26.929C78.8552 26.8623 78.9103 26.8083 78.9782 26.8084C79.0462 26.8084 79.1012 26.8625 79.1012 26.9292V32.8771C79.1012 32.9436 79.0462 32.9977 78.9782 32.9977H62.3206C62.3133 32.9991 62.3055 32.9999 62.2977 32.9999H57.7482C57.7404 32.9999 57.7329 32.9991 57.7253 32.9977H56.231C56.1631 32.9977 56.108 32.9436 56.108 32.8771C56.108 32.8103 56.1631 32.7562 56.231 32.7562H57.6252V0.243713H56.231C56.1631 0.243713 56.108 0.189626 56.108 0.122907ZM57.8713 0.243713V32.7562H62.1747V0.243713H57.8713ZM74.646 32.7562H78.8552V28.6237C78.2659 30.6112 76.6704 32.1774 74.646 32.7562ZM104.634 0.122907C104.634 0.0561875 104.69 0.00210097 104.758 0.00210097H112.339C112.407 0.00210097 112.462 0.0561875 112.462 0.122907C112.462 0.189626 112.407 0.243713 112.339 0.243713H110.945V20.2208C110.945 25.9107 115.643 30.523 121.438 30.523C127.233 30.523 131.931 25.9107 131.931 20.2208V0.243713H130.537C130.469 0.243713 130.414 0.189626 130.414 0.122907C130.414 0.0561875 130.469 0.00210097 130.537 0.00210097H133.571C133.639 0.00210097 133.694 0.0561875 133.694 0.122907C133.694 0.189626 133.639 0.243713 133.571 0.243713H132.177V20.9666H132.155C131.762 27.6762 126.096 32.998 119.163 32.9999C115.951 32.9999 113.013 31.8544 110.742 29.9606C107.934 27.617 106.15 24.1257 106.15 20.2229V0.243713H104.758C104.69 0.243713 104.634 0.189626 104.634 0.122907ZM106.396 0.243713V20.2229C106.396 24.0517 108.146 27.4767 110.902 29.7765C113.129 31.6347 116.012 32.7584 119.163 32.7584C124.331 32.7567 128.782 29.7421 130.791 25.4062C128.947 28.6054 125.449 30.7645 121.438 30.7645C115.507 30.7645 110.699 26.0442 110.699 20.2208V0.243713H106.396ZM0 16.5021C0 7.39074 7.52331 0.00420195 16.8035 0.00420195H21.3443C21.4123 0.00420195 21.4674 0.0582715 21.4674 0.12498C21.4674 0.191688 21.4124 0.245782 21.3444 0.245814C12.2044 0.250015 4.79552 7.52621 4.79552 16.5021C4.79552 25.48 12.2086 32.7584 21.353 32.7584C21.4209 32.7584 21.476 32.8125 21.476 32.879C21.476 32.9459 21.4209 32.9999 21.353 32.9999H16.8035C7.52331 32.9999 0 25.6135 0 16.5021ZM18.4716 32.7584C10.5642 31.4168 4.54941 24.6489 4.54941 16.5021C4.54941 8.35481 10.5642 1.58736 18.4711 0.245814H16.8036C7.65935 0.245814 0.246088 7.52413 0.246088 16.5021C0.246088 25.48 7.65924 32.7584 16.8035 32.7584H18.4716ZM186.533 0.12498C186.533 0.0582715 186.588 0.00420195 186.656 0.00420195H191.196C200.477 0.00420195 208 7.39068 208 16.5021C208 25.6135 200.477 32.9999 191.196 32.9999H186.647C186.579 32.9999 186.524 32.9459 186.524 32.879C186.524 32.8125 186.579 32.7584 186.647 32.7584C195.791 32.7584 203.205 25.48 203.205 16.5021C203.205 7.52621 195.796 0.249985 186.656 0.245814C186.588 0.245782 186.533 0.191688 186.533 0.12498ZM189.529 0.245814C197.436 1.58736 203.451 8.35481 203.451 16.5021C203.451 24.6489 197.436 31.4168 189.528 32.7584H191.196C200.341 32.7584 207.754 25.48 207.754 16.5021C207.754 7.52413 200.341 0.245814 191.196 0.245814H189.529Z" fill="#231F20"/>
</svg>
