<svg width="166" height="42" viewBox="0 0 166 42" fill="none" xmlns="http://www.w3.org/2000/svg">
<path d="M12.215 20.5322H8.95165V40.7017H12.8043C16.7928 40.7017 19.0591 36.9851 19.1497 31.0475C19.2404 24.0675 16.4756 20.5322 12.215 20.5322ZM11.3085 1.72237H8.99698V19.943H12.6683C15.841 19.943 18.4245 16.6342 18.3792 10.8327C18.3339 4.35122 15.4784 1.72237 11.3085 1.72237ZM13.9374 41.1096H0.0679872C-0.0226624 41.1096 -0.0226624 40.7471 0.0679872 40.7471H4.01125V1.72237H0.0226631V1.31445H11.8978C16.9741 1.31445 23.2743 2.3116 23.5009 10.5607C23.7276 18.7192 16.8382 20.2149 13.6654 20.2149C18.7418 20.2149 24.906 23.9769 24.906 30.6849C24.9513 36.0786 20.5095 41.1096 13.9374 41.1096Z" fill="#231F20"/>
<path d="M35.33 8.88367L29.9817 28.9172H40.2251L35.33 8.88367ZM39.2733 41.019V40.747H43.6245L40.4517 29.3252H29.9817L27.7608 37.529C27.2622 39.5686 27.0356 40.747 27.0356 40.747H31.2508V41.019H22.5938V40.747H26.5823C26.5823 40.747 26.809 39.7499 27.3529 37.529L37.3696 0L48.8821 40.747H52.8707V41.019H39.2733Z" fill="#231F20"/>
<path d="M55.7734 41.0189L72.7702 1.405H64.5211C58.4929 1.49565 56.7706 8.8836 56.6799 16.7248C56.6799 17.7673 56.5893 19.1723 56.544 20.7134L56.272 20.6681V0.99707H77.892L61.1218 40.747H68.6004C75.8523 40.5203 77.2574 35.2626 77.5294 20.7134H77.8466V41.0189H55.7734Z" fill="#231F20"/>
<path d="M149.232 1.40442H146.286V19.9876H149.957C154.082 19.9876 156.031 17.4041 156.348 11.0133C156.62 3.98793 153.13 1.40442 149.232 1.40442ZM163.963 41.4716C163.283 41.8342 162.422 41.9701 161.47 41.9701C157.391 41.9701 155.986 38.9787 156.167 31.0015V27.3302C156.167 22.3445 153.765 20.6221 150.003 20.6221H146.331V40.7464H151.045V40.973H137.402V40.7464H141.391V1.35909H137.402V0.951172H150.229C156.439 0.951172 161.606 2.67351 161.606 10.7867C161.606 17.6307 156.031 20.2595 151.725 20.2595C158.116 20.2595 161.923 22.9337 161.198 31.0922L161.062 36.1686C161.062 39.0693 161.424 41.1543 163.102 41.1543C163.645 41.1543 164.144 41.0183 164.461 40.6557C164.824 40.2478 165.05 39.6133 165.096 39.2053C165.141 38.9787 165.232 38.5254 165.141 37.9816V32.0893H165.458V35.7606C165.504 39.024 165.504 39.4319 165.232 40.0665C165.005 40.5197 164.643 41.1543 163.963 41.4716Z" fill="#231F20"/>
<path d="M92.4413 8.88326L87.093 28.9168H97.3364L92.4413 8.88326ZM96.3846 41.0639V40.7919H100.736L97.5631 29.3701H87.093L84.8721 37.5739C84.3735 39.6135 84.1469 40.7919 84.1469 40.7919H88.3621V41.0639H79.7051V40.7919H83.6937C83.6937 40.7919 83.9203 39.7948 84.4642 37.5739L94.481 0.0449219L105.993 40.7919H109.982V41.0639H96.3846Z" fill="#231F20"/>
<path d="M120.586 8.88326L115.238 28.9168H125.481L120.586 8.88326ZM124.529 41.0639V40.7919H128.88L125.708 29.3701H115.238L113.017 37.5739C112.518 39.6135 112.291 40.7919 112.291 40.7919H116.507V41.0639H107.85V40.7919H111.838C111.838 40.7919 112.065 39.7948 112.609 37.5739L122.626 0.0449219L134.138 40.7919H138.127V41.0639H124.529Z" fill="#231F20"/>
<path d="M99.8289 3.03652V4.98548H100.418V5.16679H98.4238V4.98548H99.013V1.04223H98.4238V0.90625H100.418V1.04223H99.8289V2.90055H101.415V1.04223H100.826V0.90625H102.82V1.04223H102.186V4.98548H102.82V5.16679H100.826V4.98548H101.415V3.03652H99.8289Z" fill="#231F20"/>
<path d="M104.632 3.89783C104.27 3.89783 103.771 3.94316 103.771 4.48705C103.771 4.759 103.862 4.98562 104.179 4.98562C104.406 4.98562 104.542 4.80432 104.632 4.62302C104.678 4.53237 104.678 4.3964 104.678 4.30575V3.89783H104.632ZM104.632 2.94601C104.632 2.76471 104.315 2.71938 104.225 2.71938C103.998 2.71938 103.726 2.85536 103.817 2.94601C103.862 2.99133 103.907 3.1273 103.907 3.26328C103.907 3.44458 103.771 3.53523 103.635 3.53523C103.454 3.53523 103.318 3.44458 103.318 3.21796C103.318 2.71939 103.907 2.53809 104.27 2.53809C104.542 2.53809 104.814 2.58341 105.04 2.71938C105.222 2.81003 105.267 2.90069 105.267 3.12731V4.84965C105.267 4.9403 105.358 4.98562 105.403 4.98562C105.494 4.98562 105.584 4.89497 105.63 4.84965L105.72 4.9403C105.584 5.16693 105.403 5.25758 105.131 5.25758C104.859 5.25758 104.678 5.07628 104.678 4.80433C104.451 5.07628 104.134 5.25758 103.771 5.25758C103.409 5.25758 103.137 5.03095 103.137 4.62302C103.137 3.8525 104.089 3.71653 104.678 3.71653V2.94601H104.632Z" fill="#231F20"/>
<path d="M106.9 3.30901C107.081 2.94641 107.308 2.58381 107.761 2.58381C107.988 2.58381 108.26 2.71979 108.26 2.99174C108.26 3.26369 108.078 3.35434 107.897 3.35434C107.761 3.35434 107.625 3.21836 107.625 3.03706V2.94641C107.625 2.85576 107.67 2.81044 107.58 2.81044C107.444 2.81044 107.398 2.85576 107.308 2.94641C107.081 3.17304 106.945 3.53564 106.945 4.35148V4.94071H107.489V5.12201H105.948V4.94071H106.311V2.71979H105.857V2.53849C106.175 2.53849 106.537 2.53849 106.9 2.49316V3.30901Z" fill="#231F20"/>
<path d="M110.524 3.26328C110.524 2.90068 110.433 2.71938 110.07 2.71938C109.708 2.71938 109.345 3.21796 109.345 3.44458V4.26043C109.345 4.66835 109.617 5.1216 110.025 5.1216C110.342 5.1216 110.478 4.9403 110.478 4.62302V3.26328H110.524ZM109.391 3.12731C109.527 2.85536 109.844 2.58341 110.161 2.58341C110.841 2.58341 111.294 3.21796 111.294 3.89783C111.294 4.53238 110.796 5.25758 110.161 5.25758C109.844 5.25758 109.572 5.1216 109.436 4.80433V6.48134H109.844V6.66264H108.303V6.48134H108.756V2.76471H108.303V2.58341C108.665 2.58341 109.028 2.58341 109.391 2.53809V3.12731Z" fill="#231F20"/>
<path d="M113.198 3.58114C113.198 3.17321 113.289 2.71996 112.745 2.71996C112.246 2.71996 112.292 3.17321 112.292 3.58114H113.198ZM112.292 3.76243V4.26101C112.292 4.71426 112.337 5.12218 112.835 5.12218C113.289 5.12218 113.606 4.8049 113.742 4.35166H113.878C113.742 4.9862 113.289 5.25815 112.7 5.25815C112.02 5.25815 111.566 4.57828 111.566 3.94373C111.566 3.21853 112.11 2.58398 112.79 2.58398C113.334 2.58398 113.878 2.99191 113.878 3.62646C113.878 3.76243 113.833 3.76243 113.742 3.76243H112.292Z" fill="#231F20"/>
<path d="M115.148 3.30901C115.329 2.94641 115.555 2.58381 116.009 2.58381C116.235 2.58381 116.507 2.71979 116.507 2.99174C116.507 3.26369 116.326 3.35434 116.145 3.35434C116.009 3.35434 115.873 3.21836 115.873 3.03706V2.94641C115.873 2.85576 115.918 2.81044 115.827 2.81044C115.691 2.81044 115.646 2.85576 115.555 2.94641C115.329 3.17304 115.193 3.53564 115.193 4.35148V4.94071H115.737V5.12201H114.196V4.94071H114.558V2.71979H114.15V2.53849C114.468 2.53849 114.83 2.53849 115.193 2.49316L115.148 3.30901Z" fill="#231F20"/>
<path d="M117.55 2.08457C117.55 2.53782 117.278 2.90042 116.915 3.17237C116.87 3.17237 116.779 3.17237 116.779 3.08172L116.915 2.94574C117.142 2.80977 117.369 2.40184 117.369 2.1299C117.369 2.08457 117.323 1.85795 117.278 1.85795C117.187 1.85795 117.187 1.90327 117.187 1.9486C117.142 2.08457 117.051 2.17522 116.87 2.17522C116.643 2.17522 116.553 1.99393 116.553 1.7673C116.553 1.49535 116.734 1.35938 117.006 1.35938C117.369 1.35938 117.55 1.67665 117.55 2.08457Z" fill="#231F20"/>
<path d="M117.684 5.16751H117.594V4.26101H117.775C117.82 4.71426 118.092 5.12218 118.546 5.12218C118.818 5.12218 119.089 4.94088 119.089 4.6236C119.089 4.30633 118.818 4.26101 118.5 4.21568C117.866 4.12503 117.639 3.85309 117.639 3.35451C117.639 2.85594 117.956 2.58398 118.41 2.58398C118.636 2.58398 118.818 2.67463 118.999 2.81061L119.089 2.62931H119.18V3.39983H118.999C118.953 3.03723 118.682 2.71996 118.364 2.71996C118.138 2.71996 117.866 2.85593 117.866 3.17321C117.866 3.35451 117.911 3.44516 118.455 3.53581C118.999 3.62646 119.316 3.71711 119.316 4.39698C119.316 5.03152 118.999 5.25815 118.455 5.25815C118.274 5.25815 118.002 5.12218 117.866 4.9862L117.684 5.16751Z" fill="#231F20"/>
</svg>
