<svg width="36" height="36" viewBox="0 0 36 36" fill="none" xmlns="http://www.w3.org/2000/svg">
<path fill-rule="evenodd" clip-rule="evenodd" d="M0 18C0 8.05888 8.05888 0 18 0C27.9411 0 36 8.05888 36 18C36 27.9411 27.9411 36 18 36C8.05888 36 0 27.9411 0 18Z" fill="#B2B3B7"/>
<path d="M26.9471 14.3054C26.9361 13.5484 26.7961 12.7974 26.5281 12.0894C26.0591 10.8804 25.1041 9.92445 23.8951 9.45645C23.1961 9.19345 22.4571 9.05245 21.7091 9.03645C20.7471 8.99345 20.4421 8.98145 18.0001 8.98145C15.5581 8.98145 15.2451 8.98145 14.2901 9.03645C13.5431 9.05245 12.8041 9.19345 12.1051 9.45645C10.8961 9.92445 9.94007 10.8804 9.47207 12.0894C9.20907 12.7884 9.06707 13.5274 9.05307 14.2744C9.01007 15.2374 8.99707 15.5424 8.99707 17.9844C8.99707 20.4264 8.99707 20.7384 9.05307 21.6944C9.06807 22.4424 9.20907 23.1804 9.47207 23.8814C9.94107 25.0894 10.8961 26.0454 12.1061 26.5134C12.8021 26.7854 13.5411 26.9394 14.2911 26.9634C15.2541 27.0064 15.5591 27.0194 18.0011 27.0194C20.4431 27.0194 20.7561 27.0194 21.7111 26.9634C22.4581 26.9484 23.1971 26.8074 23.8971 26.5444C25.1061 26.0754 26.0611 25.1194 26.5301 23.9114C26.7931 23.2114 26.9341 22.4734 26.9491 21.7244C26.9921 20.7624 27.0051 20.4574 27.0051 18.0144C27.0031 15.5724 27.0031 15.2624 26.9471 14.3054ZM17.9941 22.6024C15.4401 22.6024 13.3711 20.5334 13.3711 17.9794C13.3711 15.4254 15.4401 13.3564 17.9941 13.3564C20.5461 13.3564 22.6171 15.4254 22.6171 17.9794C22.6171 20.5334 20.5461 22.6024 17.9941 22.6024ZM22.8011 14.2634C22.2041 14.2634 21.7231 13.7814 21.7231 13.1854C21.7231 12.5894 22.2041 12.1074 22.8011 12.1074C23.3961 12.1074 23.8781 12.5894 23.8781 13.1854C23.8781 13.7814 23.3961 14.2634 22.8011 14.2634Z" fill="#2A2627"/>
<path d="M17.994 20.9816C19.6525 20.9816 20.997 19.6371 20.997 17.9786C20.997 16.3201 19.6525 14.9756 17.994 14.9756C16.3355 14.9756 14.991 16.3201 14.991 17.9786C14.991 19.6371 16.3355 20.9816 17.994 20.9816Z" fill="#2A2627"/>
</svg>
