<svg width="25" height="25" viewBox="0 0 25 25" fill="none" xmlns="http://www.w3.org/2000/svg">
<path d="M22.2991 20.5757L17.7048 15.9814C18.8109 14.509 19.408 12.7166 19.406 10.875C19.406 6.1709 15.5789 2.34375 10.8748 2.34375C6.17065 2.34375 2.34351 6.1709 2.34351 10.875C2.34351 15.5791 6.17065 19.4062 10.8748 19.4062C12.7164 19.4083 14.5087 18.8112 15.9812 17.7051L20.5754 22.2993C20.808 22.5072 21.1113 22.6182 21.4231 22.6094C21.7349 22.6007 22.0316 22.473 22.2521 22.2524C22.4727 22.0318 22.6005 21.7352 22.6092 21.4234C22.6179 21.1116 22.507 20.8082 22.2991 20.5757ZM4.78101 10.875C4.78101 9.66977 5.1384 8.49161 5.80799 7.48949C6.47758 6.48738 7.42929 5.70633 8.54278 5.24511C9.65627 4.78389 10.8815 4.66321 12.0636 4.89834C13.2457 5.13347 14.3315 5.71384 15.1837 6.56607C16.0359 7.41829 16.6163 8.5041 16.8514 9.68617C17.0865 10.8682 16.9659 12.0935 16.5046 13.207C16.0434 14.3205 15.2624 15.2722 14.2603 15.9418C13.2582 16.6114 12.08 16.9687 10.8748 16.9687C9.25919 16.9668 7.71034 16.3242 6.56797 15.1818C5.42559 14.0394 4.78294 12.4906 4.78101 10.875Z" fill="white"/>
</svg>
