<svg width="17" height="17" viewBox="0 0 17 17" fill="none" xmlns="http://www.w3.org/2000/svg">
<path d="M14.0781 2.65625H2.92187C2.4289 2.65678 1.95627 2.85284 1.60768 3.20143C1.25909 3.55002 1.06303 4.02265 1.0625 4.51562V12.4844C1.06303 12.9773 1.25909 13.45 1.60768 13.7986C1.95627 14.1472 2.4289 14.3432 2.92187 14.3437H14.0781C14.5711 14.3432 15.0437 14.1472 15.3923 13.7986C15.7409 13.45 15.937 12.9773 15.9375 12.4844V4.51562C15.937 4.02265 15.7409 3.55002 15.3923 3.20143C15.0437 2.85284 14.5711 2.65678 14.0781 2.65625ZM13.6073 5.73186L8.82605 9.4506C8.73282 9.52308 8.61809 9.56243 8.5 9.56243C8.38191 9.56243 8.26718 9.52308 8.17394 9.4506L3.39269 5.73186C3.33652 5.68943 3.28934 5.63627 3.25388 5.57545C3.21843 5.51464 3.19542 5.44738 3.18619 5.3776C3.17695 5.30781 3.18168 5.23689 3.20009 5.16894C3.21851 5.101 3.25024 5.0374 3.29345 4.98182C3.33666 4.92625 3.39048 4.87982 3.45179 4.84523C3.5131 4.81064 3.58067 4.78857 3.65058 4.78032C3.72049 4.77207 3.79134 4.7778 3.85901 4.79716C3.92669 4.81653 3.98984 4.84916 4.0448 4.89314L8.5 8.35822L12.9552 4.89314C13.0666 4.80901 13.2066 4.77212 13.345 4.79043C13.4834 4.80874 13.6091 4.88079 13.6947 4.991C13.7804 5.10121 13.8193 5.24072 13.8029 5.37936C13.7866 5.518 13.7163 5.64462 13.6073 5.73186Z" fill="#C80D3A"/>
</svg>
