<svg width="36" height="36" viewBox="0 0 36 36" fill="none" xmlns="http://www.w3.org/2000/svg">
<circle cx="18" cy="18" r="18" fill="#B2B3B7"/>
<path d="M22.6939 11.82C21.9964 11.0396 21.612 10.0374 21.6122 9H18.4592V21.4C18.4349 22.071 18.1458 22.7066 17.6528 23.1729C17.1599 23.6393 16.5015 23.8999 15.8163 23.9C14.3673 23.9 13.1633 22.74 13.1633 21.3C13.1633 19.58 14.8571 18.29 16.602 18.82V15.66C13.0816 15.2 10 17.88 10 21.3C10 24.63 12.8163 27 15.8061 27C19.0102 27 21.6122 24.45 21.6122 21.3V15.01C22.8908 15.9099 24.4259 16.3926 26 16.39V13.3C26 13.3 24.0816 13.39 22.6939 11.82Z" fill="#231F20"/>
</svg>
