<svg width="17" height="17" viewBox="0 0 17 17" fill="none" xmlns="http://www.w3.org/2000/svg">
<path d="M8.5 1.59375C4.68596 1.59375 1.59375 4.68596 1.59375 8.5C1.59375 12.3081 4.69227 15.4062 8.5 15.4062C12.3137 15.4062 15.4062 12.3137 15.4062 8.5C15.4062 4.69193 12.3081 1.59375 8.5 1.59375ZM12.0859 9.5625H8.10156C8.06634 9.5625 8.03256 9.54851 8.00765 9.5236C7.98274 9.49869 7.96875 9.46491 7.96875 9.42969V3.85156C7.96875 3.81634 7.98274 3.78256 8.00765 3.75765C8.03256 3.73274 8.06634 3.71875 8.10156 3.71875H8.89844C8.93366 3.71875 8.96744 3.73274 8.99235 3.75765C9.01726 3.78256 9.03125 3.81634 9.03125 3.85156V8.5H12.0859C12.1212 8.5 12.1549 8.51399 12.1798 8.5389C12.2048 8.56381 12.2187 8.59759 12.2187 8.63281V9.42969C12.2187 9.46491 12.2048 9.49869 12.1798 9.5236C12.1549 9.54851 12.1212 9.5625 12.0859 9.5625Z" fill="#C80D3A"/>
</svg>
