<svg width="17" height="17" viewBox="0 0 17 17" fill="none" xmlns="http://www.w3.org/2000/svg">
<path d="M12.9821 15.9372C12.334 15.9372 11.4235 15.7028 10.0602 14.9411C8.40238 14.0114 7.12008 13.1531 5.47121 11.5086C3.88145 9.91979 3.10781 8.89116 2.02506 6.92088C0.801857 4.69627 1.01037 3.53018 1.24346 3.0318C1.52104 2.43614 1.93076 2.07987 2.46035 1.72625C2.76116 1.52917 3.07948 1.36023 3.41129 1.22157C3.44449 1.20729 3.47537 1.19368 3.50293 1.18139C3.66729 1.10735 3.91631 0.995454 4.23174 1.11498C4.44225 1.19401 4.63018 1.35571 4.92436 1.64623C5.52766 2.24123 6.35209 3.56637 6.65623 4.21715C6.86043 4.65577 6.99557 4.9453 6.9959 5.27002C6.9959 5.6502 6.80465 5.94338 6.57256 6.25981C6.52906 6.31924 6.4859 6.37602 6.44406 6.43114C6.19139 6.76317 6.13594 6.85913 6.17246 7.03045C6.2465 7.37477 6.79867 8.39975 7.70611 9.3052C8.61355 10.2106 9.60898 10.728 9.95463 10.8017C10.1333 10.8398 10.2312 10.7821 10.5739 10.5204C10.623 10.4829 10.6735 10.4441 10.7263 10.4052C11.0802 10.1419 11.3598 9.95565 11.731 9.95565H11.733C12.0561 9.95565 12.3326 10.0958 12.7908 10.3269C13.3885 10.6283 14.7535 11.4422 15.3521 12.0461C15.6433 12.3396 15.8057 12.5269 15.885 12.7371C16.0046 13.0535 15.892 13.3015 15.8186 13.4675C15.8063 13.4951 15.7927 13.5253 15.7785 13.5589C15.6387 13.8901 15.4688 14.2077 15.2708 14.5078C14.9178 15.0357 14.5602 15.4445 13.9632 15.7224C13.6567 15.8674 13.3212 15.9408 12.9821 15.9372Z" fill="#C80D3A"/>
</svg>
