<svg width="36" height="36" viewBox="0 0 36 36" fill="none" xmlns="http://www.w3.org/2000/svg">
<path fill-rule="evenodd" clip-rule="evenodd" d="M0 18C0 8.05888 8.05888 0 18 0C27.9411 0 36 8.05888 36 18C36 27.9411 27.9411 36 18 36C8.05888 36 0 27.9411 0 18Z" fill="#C80D3A"/>
<path d="M26.9471 14.3052C26.9361 13.5482 26.7961 12.7972 26.5281 12.0892C26.0591 10.8802 25.1041 9.9242 23.8951 9.4562C23.1961 9.1932 22.4571 9.0522 21.7091 9.0362C20.7471 8.9932 20.4421 8.9812 18.0001 8.9812C15.5581 8.9812 15.2451 8.9812 14.2901 9.0362C13.5431 9.0522 12.8041 9.1932 12.1051 9.4562C10.8961 9.9242 9.94007 10.8802 9.47207 12.0892C9.20907 12.7882 9.06707 13.5272 9.05307 14.2742C9.01007 15.2372 8.99707 15.5422 8.99707 17.9842C8.99707 20.4262 8.99707 20.7382 9.05307 21.6942C9.06807 22.4422 9.20907 23.1802 9.47207 23.8812C9.94107 25.0892 10.8961 26.0452 12.1061 26.5132C12.8021 26.7852 13.5411 26.9392 14.2911 26.9632C15.2541 27.0062 15.5591 27.0192 18.0011 27.0192C20.4431 27.0192 20.7561 27.0192 21.7111 26.9632C22.4581 26.9482 23.1971 26.8072 23.8971 26.5442C25.1061 26.0752 26.0611 25.1192 26.5301 23.9112C26.7931 23.2112 26.9341 22.4732 26.9491 21.7242C26.9921 20.7622 27.0051 20.4572 27.0051 18.0142C27.0031 15.5722 27.0031 15.2622 26.9471 14.3052ZM17.9941 22.6022C15.4401 22.6022 13.3711 20.5332 13.3711 17.9792C13.3711 15.4252 15.4401 13.3562 17.9941 13.3562C20.5461 13.3562 22.6171 15.4252 22.6171 17.9792C22.6171 20.5332 20.5461 22.6022 17.9941 22.6022ZM22.8011 14.2632C22.2041 14.2632 21.7231 13.7812 21.7231 13.1852C21.7231 12.5892 22.2041 12.1072 22.8011 12.1072C23.3961 12.1072 23.8781 12.5892 23.8781 13.1852C23.8781 13.7812 23.3961 14.2632 22.8011 14.2632Z" fill="#2A2627"/>
<path d="M17.994 20.9816C19.6525 20.9816 20.997 19.6371 20.997 17.9786C20.997 16.3201 19.6525 14.9756 17.994 14.9756C16.3355 14.9756 14.991 16.3201 14.991 17.9786C14.991 19.6371 16.3355 20.9816 17.994 20.9816Z" fill="#2A2627"/>
</svg>
