<svg width="36" height="36" viewBox="0 0 36 36" fill="none" xmlns="http://www.w3.org/2000/svg">
<path fill-rule="evenodd" clip-rule="evenodd" d="M0 18C0 8.05888 8.05888 0 18 0C27.9411 0 36 8.05888 36 18C36 27.9411 27.9411 36 18 36C8.05888 36 0 27.9411 0 18Z" fill="#231F20"/>
<path d="M26.9461 14.3054C26.9351 13.5484 26.7951 12.7974 26.5271 12.0894C26.0581 10.8804 25.1031 9.92445 23.8941 9.45645C23.1951 9.19345 22.4561 9.05245 21.7081 9.03645C20.7461 8.99345 20.4411 8.98145 17.9991 8.98145C15.5571 8.98145 15.2441 8.98145 14.2891 9.03645C13.5421 9.05245 12.8031 9.19345 12.1041 9.45645C10.8951 9.92445 9.93909 10.8804 9.47109 12.0894C9.20809 12.7884 9.06609 13.5274 9.05209 14.2744C9.00909 15.2374 8.99609 15.5424 8.99609 17.9844C8.99609 20.4264 8.99609 20.7384 9.05209 21.6944C9.06709 22.4424 9.20809 23.1804 9.47109 23.8814C9.94009 25.0894 10.8951 26.0454 12.1051 26.5134C12.8011 26.7854 13.5401 26.9394 14.2901 26.9634C15.2531 27.0064 15.5581 27.0194 18.0001 27.0194C20.4421 27.0194 20.7551 27.0194 21.7101 26.9634C22.4571 26.9484 23.1961 26.8074 23.8961 26.5444C25.1051 26.0754 26.0601 25.1194 26.5291 23.9114C26.7921 23.2114 26.9331 22.4734 26.9481 21.7244C26.9911 20.7624 27.0041 20.4574 27.0041 18.0144C27.0021 15.5724 27.0021 15.2624 26.9461 14.3054ZM17.9931 22.6024C15.4391 22.6024 13.3701 20.5334 13.3701 17.9794C13.3701 15.4254 15.4391 13.3564 17.9931 13.3564C20.5451 13.3564 22.6161 15.4254 22.6161 17.9794C22.6161 20.5334 20.5451 22.6024 17.9931 22.6024ZM22.8001 14.2634C22.2031 14.2634 21.7221 13.7814 21.7221 13.1854C21.7221 12.5894 22.2031 12.1074 22.8001 12.1074C23.3951 12.1074 23.8771 12.5894 23.8771 13.1854C23.8771 13.7814 23.3951 14.2634 22.8001 14.2634Z" fill="white"/>
<path d="M17.9952 20.9816C19.6537 20.9816 20.9982 19.6371 20.9982 17.9786C20.9982 16.3201 19.6537 14.9756 17.9952 14.9756C16.3367 14.9756 14.9922 16.3201 14.9922 17.9786C14.9922 19.6371 16.3367 20.9816 17.9952 20.9816Z" fill="white"/>
</svg>
