<svg width="17" height="17" viewBox="0 0 17 17" fill="none" xmlns="http://www.w3.org/2000/svg">
<path d="M8.5 1.0625C5.57082 1.0625 3.1875 3.34189 3.1875 6.14258C3.1875 7.47635 3.79545 9.25006 4.99441 11.4146C5.9573 13.1524 7.07127 14.7239 7.65066 15.5059C7.74857 15.6395 7.87658 15.7481 8.02431 15.823C8.17205 15.8979 8.33536 15.9369 8.50099 15.9369C8.66663 15.9369 8.82994 15.8979 8.97768 15.823C9.12541 15.7481 9.25342 15.6395 9.35133 15.5059C9.92973 14.7239 11.0447 13.1524 12.0076 11.4146C13.2045 9.25072 13.8125 7.47701 13.8125 6.14258C13.8125 3.34189 11.4292 1.0625 8.5 1.0625ZM8.5 8.5C8.07971 8.5 7.66887 8.37537 7.31941 8.14187C6.96996 7.90837 6.69759 7.5765 6.53676 7.1882C6.37592 6.79991 6.33384 6.37264 6.41583 5.96043C6.49782 5.54822 6.70021 5.16958 6.9974 4.8724C7.29458 4.57521 7.67322 4.37282 8.08543 4.29083C8.49764 4.20884 8.92491 4.25092 9.3132 4.41176C9.70149 4.57259 10.0334 4.84496 10.2669 5.19441C10.5004 5.54387 10.625 5.95471 10.625 6.375C10.6244 6.9384 10.4003 7.47854 10.0019 7.87692C9.60354 8.2753 9.0634 8.49938 8.5 8.5Z" fill="#C80D3A"/>
</svg>
